<?xml version="1.0" encoding="utf-8"?>
<!-- Generator: Adobe Illustrator 28.0.0, SVG Export Plug-In . SVG Version: 6.00 Build 0)  -->
<svg version="1.1" id="Capa_1" xmlns:v="https://vecta.io/nano"
	 xmlns="http://www.w3.org/2000/svg" xmlns:xlink="http://www.w3.org/1999/xlink" x="0px" y="0px" viewBox="0 0 300 300"
	 style="enable-background:new 0 0 300 300;" xml:space="preserve">
<style type="text/css">
	.st0{fill-rule:evenodd;clip-rule:evenodd;fill:#CCCCCC;}
	.st1{fill:#CCCCCC;}
</style>
<g>
	<path class="st0" d="M136.6,138.5c3.9-2.5,8.8-1.4,10.5-0.4c1.7,0.8,2.4,2.5,2.4,3.6c0,1.2,0.1,14,0.1,14s1,2.8,3.1,0l0.8,1
		c0,0-2,3.3-4.7,3.3s-3-3-3-3h-0.4c0,0-3,3.7-7.8,3c-5.3-0.8-4.4-6.4-3.9-7.6c0.5-1.2,2.4-4.4,11.8-6.3v-4.5c0,0-0.3-3-3.1-3
		s-3.4,2.7-3.4,2.7s-0.3,3.2-3,2.8C132.9,143.7,134.6,139.9,136.6,138.5L136.6,138.5z M145.6,147.5v7.6c0,0-2,2.5-4.8,2.5
		c-2,0-3.3-1.9-3.2-3.6C137.8,150.5,142.7,148.1,145.6,147.5L145.6,147.5z M158.6,156c0.9,0.5,1.3,1.9,0.6,2.9c-0.7,1.1-2,1.5-2.9,1
		s-1.3-1.9-0.6-2.9C156.3,156,157.6,155.4,158.6,156L158.6,156z M158.3,137.9c0,0,0.4-2,2.5-2c2,0.1,1.5,2.4,1.5,2.4
		s-1.8,5.8-2.1,7.3s-1.5,7.7-1.5,7.7l-1.1,0.1c0,0,0.7-6.1,0.7-7.3C158.4,143.4,158.3,138.6,158.3,137.9L158.3,137.9z"/>
	<g>
		<path class="st0" d="M160,165.4c1.6,0,2.9,1.4,2.9,3.2s-1.3,3.2-2.9,3.2s-2.9-1.4-2.9-3.2C157.1,166.9,158.4,165.4,160,165.4
			L160,165.4z M160,166.6c0.9,0,1.6,0.9,1.6,2.1c0,1.2-0.8,2.2-1.6,2.2s-1.7-0.9-1.7-2.2C158.3,167.5,159.1,166.6,160,166.6
			L160,166.6z"/>
		<polygon class="st0" points="154.8,165.8 156,165.8 156,171.7 154.8,171.7 154.8,171.7 154.7,171.7 152.7,167.9 152.5,167.9 
			152.5,171.7 151.3,171.7 151.3,165.8 152.7,165.8 154.8,169.8 		"/>
		<polygon class="st0" points="152.8,164.8 155.1,164.8 155.1,165.3 152.8,165.3 		"/>
		<polygon class="st0" points="139,165.8 140.2,165.8 140.2,171.7 139,171.7 		"/>
		<polygon class="st0" points="146.5,165.8 146.8,165.8 146.8,165.8 149.9,165.8 149.9,166.6 147.7,166.6 147.7,168.1 149.7,168.1 
			149.7,169 147.7,169 147.7,170.9 149.9,170.9 149.9,171.7 146.8,171.7 146.8,171.7 146.5,171.7 		"/>
		<path class="st0" d="M135.4,165.8c1.4,0.3,2.5,1.5,2.5,3s-1.1,2.8-2.5,3h-2.2v-6H135.4L135.4,165.8z M134.9,166.9c1,0,1.8,1,1.8,2
			c0,0.9-0.7,1.9-1.8,2H134V167L134.9,166.9L134.9,166.9z"/>
		<path class="st0" d="M143.7,165.4c0.4,0,0.9,0.2,1.3,0.3v0.9h-0.8c-0.2-0.2-0.4-0.2-0.6-0.2c-0.5,0-0.9,0.4-0.9,0.8
			c0,0.4,0.3,0.7,0.7,0.8c0.9,0.3,2,0.8,2,1.9s-1,1.9-2.3,1.9c-0.5,0-0.9-0.2-1.4-0.3v-1h0.6c0.1,0.3,0.4,0.3,0.8,0.3
			s0.9-0.3,0.9-0.7c0-0.6-0.9-0.8-1-0.8c-0.4-0.2-0.8-0.3-1-0.7c-0.1-0.1-0.1-0.2-0.2-0.3l0,0c-0.2-0.3-0.3-0.6-0.3-0.9
			C141.4,166.3,142.4,165.4,143.7,165.4L143.7,165.4z"/>
	</g>
	<path class="st1" d="M166.8,174.9h-38.3v-50h38.3V174.9z M129.3,174.1H166v-48.4h-36.7C129.3,125.7,129.3,174.1,129.3,174.1z"/>
	<g>
		<path class="st1" d="M167.9,129.5c0-1,0.8-1.8,1.8-1.8s1.8,0.8,1.8,1.8s-0.8,1.8-1.8,1.8S167.9,130.4,167.9,129.5z M171,129.5
			c0-0.8-0.6-1.4-1.4-1.4s-1.4,0.6-1.4,1.4c0,0.8,0.6,1.4,1.4,1.4S171,130.3,171,129.5z M170.5,130.3h-0.4l-0.4-0.8h-0.3v0.8H169
			v-1.9h0.8c0.4,0,0.7,0.1,0.7,0.6c0,0.3-0.2,0.5-0.5,0.5L170.5,130.3z M169.8,129.4c0.2,0,0.3,0,0.3-0.3c0-0.2-0.3-0.2-0.4-0.2
			h-0.4v0.4C169.4,129.4,169.8,129.4,169.8,129.4z"/>
	</g>
</g>
</svg>
