<?xml version="1.0" encoding="utf-8"?>
<!-- Generator: Adobe Illustrator 28.0.0, SVG Export Plug-In . SVG Version: 6.00 Build 0)  -->
<svg version="1.1" id="Capa_1" xmlns:v="https://vecta.io/nano"
	 xmlns="http://www.w3.org/2000/svg" xmlns:xlink="http://www.w3.org/1999/xlink" x="0px" y="0px" viewBox="0 0 300 300"
	 style="enable-background:new 0 0 300 300;" xml:space="preserve">
<style type="text/css">
	.st0{fill:#CCCCCC;}
</style>
<g id="Page-1_00000115489943111704869400000010814209765558575769_">
	<path id="Cannes-Lions-Logo_00000085228771564535881990000003137843420304176314_" class="st0" d="M171.2,147.1
		c-0.4-0.2-1.3-1.3-2-3.4c-0.7-2.1-1.5-3.6-0.1-5.7c1.4-2.1,1.5-4.1,1.6-4.8s0.1-1.8,1.9-2.6c1.6-0.8,2.9-1,4.3-1.5s2.5-1.5,3.1-1.9
		c0.7-0.5,2.8-0.5,3.6,0.7c0.9,1.3,5.8,1.6,6.5,2.6c0.8,1,0.2,2.2-0.2,2.7c-0.8,0.9-4.5,4.1-4.9,4.1s-0.1-0.9,0.2-1.8
		c0.4-0.8,0.8-1.4,0.7-2.3c-0.1-0.7-0.7-1.4-1.6-2c-1.5-0.9-4.3-1.5-5.2-1c-1.8,0.7-2.3,2.3-2.5,3.5s-0.2,2.7-1.4,4.5
		c-1.1,1.8-1.8,2.9-1.5,4c0.2,1.1,1.1,2.9,1.2,3.9c0.1,1,0,1.9-0.2,2.9c-0.2,1.1-0.4,1.9,0,2.5c0.4,0.7,0.5,0.8,0.6,0.9
		c0.1,0.1,0.1,0.2-0.1,0.1c-0.2-0.2-1.6-1.5-2.1-2.9s0-3.5-0.2-4.2s-1.6-2.7-1.4-4.3c0.1-1.6,1.4-3.4,2-4.3c0.6-0.9,1.8-2.6,2-3.4
		c0.2-0.7,0.8-2.2,1-2.6c0,0-0.2,0.2-1.4,1.6c-1.1,1.4-2.1,2.4-2.5,3.7c-0.2,1.3-1,2.5-2,3.3c-0.9,0.8-0.4,2-0.1,3.3
		c0.2,1.3,0.6,1.9,1.3,3.1c0.7,1.3,0.4,2.4,0.5,2.6C172.2,148.5,171.6,147.2,171.2,147.1z M180.4,145.9c0-0.2,0.4-1.2,0.5-1.8
		c0-0.6,0.1-1-0.2-0.9c-0.4,0.1-0.8,0.1-1,0s-0.2-0.2,0-0.2s0.9-0.2,1.3-0.5c0.4-0.3,0.5-0.6,0.6-0.7s0.1-0.2-0.2-0.1
		c-0.2,0.2-0.9,0.6-1.1,0.7c-0.2,0.2-0.7,0.2-0.7,0.4s0.1,0.7,0.1,1.4s-0.1,1.6-0.2,1.6c-0.2-0.2-0.1-0.7-0.4-0.9
		c-0.2-0.2-0.7-0.8-0.7-1.3c0-0.6,0.1-0.7,0-0.9s-0.1-0.7,0.2-0.7c0.2,0,0.4,0.2,0.9,0.1c0.6-0.1,1.1-0.5,1.6-0.8
		c0.4-0.3,1.2-1.2,1.6-1.3c0.5-0.1,0.7,0,1-0.5c0.4-0.5,0.7-0.8,0.9-0.9c0.2-0.2,0.4-0.2,0.5-0.2s-0.7,1.9-2,4
		c-1.2,2.1-2,3.4-2.2,3.7C180.7,145.9,180.3,146.2,180.4,145.9z M188.8,128.4c-1.8-0.4-3.4,0.1-4.8-0.9c-0.1-0.1-0.2-0.4,0-0.4
		c1.6-0.1,3.5-0.5,5.1,0c0.1,0,3.3,1.6,4.5,3c0.7,0.7,2,2.2,1.9,3.1s-0.6,1.4-2,2c-0.8,0.5-7,1.8-7,1.8c-1,0.2-0.7-0.2-0.2-0.6
		c0.5-0.4,1-0.8,2.5-1.8c1.5-0.9,2.1-1.3,2.7-2C192.3,131.8,191.6,129.4,188.8,128.4z M190.3,161.1c4.3-5.6,11.2-3.4,11.5-2.3
		c-8.8-1-7.9,5.7-12.9,7.6c-2.4,0.8-9.2,0.4-15.7,6.1c-2,1.4-5.3,0.6-6.1,0.6s-2-0.1-2.6,0.1c-0.6,0.2-0.8,0.1-1.1-0.1
		c-0.2-0.2-0.7-0.2-1.3-0.6c-0.6-0.2-1-0.2-1-0.2s-0.7-1.3-0.4-2.1s0.8-1.5,1.3-1.6c0.4-0.2,0.5-0.2,0.5-0.2s0-0.1-0.2-0.1
		s-0.5,0.2-0.6,0.2s-0.1-0.2,0-0.4s1.1-1.1,2.4-1.1c1.4,0.1,2.5,0.7,3.4,0.5s2.8-0.9,5.1-2.7c2.4-1.8,4.8-4.3,7.8-6.5
		c2.9-2.1,5.1-3.4,5.7-3.8c0.7-0.2,0.7-0.4,0.8-0.5s0.1-0.2-0.5,0s-2.8,0.8-3.6,1.5c-0.9,0.7-1.3,1.2-1.3,1.2s0.1-0.9,0.8-1.8
		c0.7-0.7,0.8-0.8,0.9-0.9c0.2-0.1,0.1-0.2-0.2,0c-0.2,0.2-1.4,1.3-1.9,2s-0.7,0.9-2,1.2c-1.4,0.2-2.6,0.6-3.1,1
		c-0.6,0.5-0.7,1-0.7,1s-0.2,0.2-0.2-0.1c0-0.4,0.2-1.9,1.9-3c1.6-1.2,2.3-1.8,2.6-2c0.2-0.2,0.2-0.2,0-0.2s-2,0.4-2.9,1
		c-0.8,0.7-1.1,0.9-1.1,0.9s-0.2,0.1-0.2-0.4c0.1-0.4,0.5-1.6,1.6-2.3c1-0.7,2.2-1,2.2-1V151c0,0-2.3-1.2-2.8-1.6
		c-0.5-0.4-1-0.8-0.7-3.1c0.4-2.3,0.5-2.8,0.5-3s-0.9-0.9-0.7-2.2s0.7-2,0.7-2s-0.1,1.6,0,2.4c0,0.8,0,1.3,0.2,1.6
		c0.2,0.4,0.2,0.2,0.4,0.5c0.1,0.2-0.5,2.6-0.6,3.5s-0.5,1.6,0.2,1.6c0.7-0.1,0.5-0.2,0.7-0.5c0.2-0.2,0.6-0.2,0.8-0.2
		c0.2,0.1,0.5,0.2,0.7,0.2c0.2-0.1,1,0,0.7,0.6c-0.5,0.6-1.1,0.4-0.9,0.9c0.2,0.5,2.7,2,3.5,1.5c1.1-0.7,1.6-0.8,1.6-1.3
		s-0.8-1.1-1.4-0.8c-0.6,0.2-1.6,0.7-2.2,0.6c-0.6-0.1-0.7-0.4-0.6-0.4s0.8,0.2,1.4-0.5c0.6-0.7,5.4-3,6.2-4.4s-0.5-4.8,0.2-5.5
		s5.5-1.6,6.4-2c1.9-0.7,3-2.2,2.7-3.7c-0.2-0.8-1.4-2.2-2.6-2.9c-0.2-0.2,6.1,0.7,6.1,7c0.1,2.7,4,5.1,3.5,8
		c-0.4,2.2-2.6,3.9-3.4,4.4c0.6,0,1.1,0,1.6,0.1c0.9,0.1,1.9,0.7,1.9,0.7s-6.4,0.7-8.5,1.9c-3.5,1.6-7.9,3.8-12.9,7.7
		c-4.7,3.6-7,5.7-12.4,8.5c-1.8,0.9-3.4,1-4.3,1.2c-0.8,0.2-1.6,0.7-1.8,1.1c-0.1,0.6-0.1,1.1,0.1,1.3c0.2,0.2,0.2,0.1,0.4-0.2
		c0.1-0.2,0-1.2,0.6-1.6c0.6-0.4,1-0.2,2.4-0.5c1.4-0.2,2.2-0.6,2.5-0.6c0.2-0.1,0.6,0,0.1,0.2c-0.4,0.2-1.2,0.8-2.2,1
		s-1.6,0.2-1.9,0.5c-0.2,0.2-0.2,0.6-0.2,0.6s0.7-0.1,1.1,0c0.4,0.1,1.1,0.5,2,0.6c0.8,0.1,2.3,0.4,3.5-0.8c0.7-0.7,3.4-3.4,7.2-4.9
		C182.6,164.6,187.4,164.7,190.3,161.1z M199.1,148.2c-0.5,0.5-0.7,0.8-1.3,1.1c0.7-0.1,1.4-0.2,2-0.2c0.8-1.2,2-3.9,1.6-5.7
		C201.3,144.3,201,146.3,199.1,148.2z M198,141.9c-0.8-1.8-3.8-3.9-4.3-4c0.2,0.2,2.6,3.7,2.7,4c0.7,1.5,1.1,2.7,0.8,4
		c-0.2,1.3-1.1,2.3-2,3.3c0.6-0.2,1.3-0.7,1.6-1C197.5,147.7,199.6,144.6,198,141.9z M190.7,139c1.5,3.8,0,8.9-0.2,9.4
		s-1.6,3.4-1.6,3.4s3-2.4,3.9-5.8C193.3,143.8,190.6,138.9,190.7,139z M185.1,148.9c0,0,3.5-1.3,3.9-2.5c0.2-0.8,0.2-2.1,0.1-2.3
		C188.8,143.9,186,148.4,185.1,148.9z M162.3,170.5c0.6-1.3,2-1.9,1.6-2c-1.5-0.2-2.1,1.1-2.1,1.3
		C161.5,170.2,162.1,170.9,162.3,170.5z M183.2,134.3c-0.6-0.7-2.6-1.1-3.4-0.4l-4.3,4.9c-0.1,0.2,2-4.4,2.1-5c0.2-1.4,0.9-3.1,3-3
		c0.6,0,3.8,1.1,4.3,2s-0.9,3.5-1.3,3.6C183.3,136.4,183.6,134.7,183.2,134.3z M108.8,164.6H98.4v-17.3h4.4v13.6h6.1L108.8,164.6
		L108.8,164.6z M111.1,147.3h4.4v17.3h-4.4V147.3z M136.5,152.4c0.5,1.1,0.7,2.3,0.7,3.5s-0.2,2.4-0.7,3.5s-1.2,2-2.1,2.9
		c-0.9,0.8-2,1.5-3.1,2c-1.2,0.5-2.4,0.7-3.7,0.7c-1.1,0-2.2-0.2-3.3-0.6c-1-0.4-2-0.8-2.9-1.6c-1.1-0.8-2-2-2.7-3
		c-0.7-1.2-0.9-2.5-0.9-3.9c0-1.2,0.2-2.4,0.7-3.5s1.2-2,2.1-2.9s2-1.5,3.1-2c2.4-0.9,5-0.9,7.4,0c1.2,0.5,2.2,1.1,3.1,2
		C135.3,150.3,136,151.4,136.5,152.4z M131.2,159.7c1-1,1.5-2.2,1.5-3.7s-0.5-2.8-1.5-3.8s-2.2-1.5-3.7-1.5s-2.8,0.5-3.7,1.5
		c-1,1-1.5,2.3-1.5,3.8s0.5,2.8,1.5,3.8s2.2,1.5,3.8,1.5C129,161.2,130.3,160.7,131.2,159.7z M143.7,164.7h-4.3v-17.3h4.3l8.7,11
		v-11h4.3v17.3h-4.2l-8.9-11.2L143.7,164.7L143.7,164.7z M164.9,165.1c-1.4,0-2.6-0.2-3.6-0.7s-1.8-1.1-2.3-2l-0.1-0.2l2.6-2.8
		l0.2,0.5c0.2,0.6,0.7,1,1.1,1.3c0.6,0.2,1.1,0.5,1.9,0.5c0.8,0,1.5-0.2,1.9-0.6c0.5-0.4,0.7-0.7,0.7-1.3c0-0.7-0.8-1.4-2.4-2
		c-0.6-0.2-1-0.5-1.3-0.7c-1.6-0.7-2.7-1.6-3.4-2.3s-0.9-1.8-0.9-2.8c0-1.5,0.7-2.7,1.9-3.6c1.2-0.9,2.8-1.4,4.7-1.4
		c1.1,0,2,0.2,2.9,0.6c0.8,0.4,1.6,0.9,2.1,1.8l0.2,0.2l-2.8,2.5l-0.2-0.4c-0.2-0.5-0.6-0.7-0.9-0.9s-0.8-0.2-1.4-0.2
		c-0.7,0-1.2,0.2-1.6,0.5c-0.4,0.2-0.6,0.7-0.6,1.1c0,0.7,0.8,1.5,2.5,2.1c0.4,0.2,0.7,0.2,0.8,0.4c1.5,0.7,2.7,1.4,3.4,2.3
		c0.7,0.8,1.1,1.9,1.1,2.9c0,1.6-0.7,2.9-1.9,4C168.5,164.7,166.9,165.1,164.9,165.1z M103.2,145.8c-2,0-3.6-0.6-4.8-1.6
		c-1.3-1.1-2-2.6-2-4.4c0-1.8,0.7-3.3,1.9-4.4c1.3-1.1,2.9-1.8,4.8-1.8c0.7,0,1.3,0.1,2,0.2s1.2,0.4,1.9,0.7l0.2,0.1l-0.1,3.3
		l-0.6-0.5c-0.5-0.4-1-0.7-1.5-0.9s-1-0.2-1.6-0.2c-1.1,0-2.1,0.4-2.8,1c-0.7,0.7-1,1.5-1,2.6s0.2,2,0.9,2.6
		c0.7,0.7,1.5,0.9,2.6,0.9c0.7,0,1.2-0.1,1.8-0.2c0.6-0.2,1-0.5,1.5-0.9l0.6-0.5v3.4l-0.2,0.1c-0.6,0.2-1.1,0.6-1.8,0.7
		C104.6,145.7,103.9,145.8,103.2,145.8z M116.2,133.7l4.8,11.8h-3.5l-0.9-2.3h-4.1l-0.8,2.3h-3.4l4.7-11.8H116.2z M113.3,140.7h2.3
		l-1.1-3.1v-0.1c0,0.1,0,0.1-0.1,0.2L113.3,140.7z M124.9,138.3v7.1h-3v-11.8h3l5.6,7v-7h3v11.8h-2.9L124.9,138.3z M138.6,145.5h-3
		v-11.8h3l5.6,7v-7h3v11.8h-2.9l-5.7-7.1L138.6,145.5L138.6,145.5z M156.6,145.5h-7.4v-11.8h7.5v2.6h-4.4v1.6h4.4v2.7h-4.4v2.1h4.4
		L156.6,145.5L156.6,145.5z M162.2,145.8c-0.9,0-1.8-0.2-2.4-0.5c-0.7-0.2-1.2-0.7-1.6-1.4l-0.1-0.2l1.9-2l0.2,0.5
		c0.2,0.4,0.4,0.7,0.7,0.8c0.4,0.2,0.7,0.2,1.1,0.2c0.5,0,0.9-0.1,1.2-0.4c0.2-0.2,0.4-0.5,0.4-0.8c0-0.2-0.2-0.7-1.5-1.3
		c-0.4-0.2-0.7-0.2-0.9-0.5c-1.1-0.6-1.9-1-2.2-1.6c-0.5-0.6-0.7-1.2-0.7-2c0-1,0.5-1.9,1.3-2.5s1.9-0.9,3.1-0.9
		c0.7,0,1.4,0.1,2,0.4c0.6,0.2,1,0.7,1.5,1.2l0.2,0.2l-2,1.9l-0.2-0.4c-0.2-0.2-0.4-0.5-0.6-0.7c-0.2-0.1-0.6-0.2-0.9-0.2
		c-0.5,0-0.7,0.1-1,0.2c-0.2,0.2-0.4,0.4-0.4,0.7c0,0.5,0.6,0.9,1.6,1.3c0.2,0.1,0.5,0.2,0.6,0.2c1,0.5,1.9,0.9,2.3,1.6
		c0.6,0.7,0.8,1.3,0.8,2c0,1.1-0.5,2-1.2,2.8C164.6,145.3,163.6,145.8,162.2,145.8z"/>
</g>
</svg>
