<?xml version="1.0" encoding="utf-8"?>
<!-- Generator: Adobe Illustrator 28.0.0, SVG Export Plug-In . SVG Version: 6.00 Build 0)  -->
<svg version="1.1" id="Capa_1" xmlns:v="https://vecta.io/nano"
	 xmlns="http://www.w3.org/2000/svg" xmlns:xlink="http://www.w3.org/1999/xlink" x="0px" y="0px" viewBox="0 0 300 300"
	 style="enable-background:new 0 0 300 300;" xml:space="preserve">
<style type="text/css">
	.st0{fill:#CCCCCC;}
</style>
<g>
	<path class="st0" d="M73,155.3l-10.7-10.7L73,134.1H62.2l-10.7,10.7l5.4,5.4l5.4,5.2l5.4,5.2L73,155.3z"/>
	<path class="st0" d="M80.6,150.1l-5.4-5.4l-5.4-5.2l-5.2,5.2l10.6,10.6L64.5,166h10.7l5.4-5.2l5.4-5.4L80.6,150.1z"/>
	<path class="st0" d="M99.4,144.7c-1.6,0-2.9,0.5-3.9,1.6s-1.4,2.5-1.4,4.4s0.5,3.4,1.3,4.4c1,1.1,2.1,1.6,3.9,1.6
		c1.1,0,2.1-0.2,3.4-0.6v1.6c-1.1,0.4-2.3,0.6-3.7,0.6c-2.1,0-3.9-0.6-5-1.9c-1.2-1.3-1.8-3.3-1.8-5.6c0-1.6,0.2-2.9,0.8-3.9
		c0.6-1.1,1.5-2.1,2.5-2.6s2.3-1,3.9-1s2.9,0.2,4.1,0.8l-0.7,1.5C101.6,145,100.6,144.7,99.4,144.7z"/>
	<path class="st0" d="M114.4,154.1c0,1.3-0.5,2.3-1.5,3s-2.1,1.1-3.9,1.1s-3.1-0.2-4.1-0.7v-1.6c0.6,0.2,1.3,0.5,1.9,0.6
		c0.6,0.2,1.5,0.2,2.1,0.2c1.2,0,2.1-0.2,2.5-0.6c0.6-0.5,0.8-1.1,0.8-1.8c0-0.5-0.2-1-0.4-1.2c-0.2-0.4-0.6-0.6-1.1-1
		c-0.5-0.2-1.2-0.6-2.1-1c-1.3-0.5-2.5-1.1-2.9-1.8c-0.6-0.7-0.8-1.6-0.8-2.6c0-1.1,0.5-2.1,1.3-2.7c0.8-0.7,2.1-1,3.4-1
		c1.5,0,2.7,0.2,4.1,0.8l-0.5,1.5c-1.2-0.5-2.5-0.7-3.5-0.7s-1.6,0.2-2.1,0.6c-0.5,0.4-0.7,1-0.7,1.6c0,0.5,0.2,1,0.2,1.2
		c0.2,0.4,0.5,0.6,1,0.8s1.1,0.6,2.1,1c1.6,0.6,2.6,1.2,3.3,1.8C114.1,152.4,114.4,153.2,114.4,154.1z"/>
	<path class="st0" d="M125.7,154.1c0,1.3-0.5,2.3-1.5,3s-2.1,1.1-3.9,1.1s-3.1-0.2-4.1-0.7v-1.6c0.6,0.2,1.3,0.5,1.9,0.6
		s1.5,0.2,2.1,0.2c1.2,0,2.1-0.2,2.5-0.6c0.6-0.5,0.8-1.1,0.8-1.8c0-0.5-0.2-1-0.4-1.2c-0.2-0.4-0.6-0.6-1.1-1
		c-0.5-0.2-1.2-0.6-2.1-1c-1.3-0.5-2.5-1.1-2.9-1.8c-0.6-0.7-0.8-1.6-0.8-2.6c0-1.1,0.5-2.1,1.3-2.7c0.8-0.7,2.1-1,3.4-1
		c1.5,0,2.7,0.2,4.1,0.8l-0.5,1.5c-1.2-0.5-2.5-0.7-3.5-0.7s-1.6,0.2-2.1,0.6c-0.5,0.4-0.7,1-0.7,1.6c0,0.5,0.2,1,0.2,1.2
		c0.2,0.4,0.5,0.6,1,0.8s1.1,0.6,2.1,1c1.6,0.6,2.6,1.2,3.3,1.8C125.3,152.4,125.7,153.2,125.7,154.1z"/>
	<path class="st0" d="M140.6,150.5c0,2.5-0.7,4.3-2.1,5.6c-1.3,1.3-3.3,2.1-5.7,2.1H128v-14.7h5c2.5,0,4.2,0.6,5.5,1.8
		C139.9,146.4,140.6,148.2,140.6,150.5z M136.5,150.5c0-1.3-0.2-2.5-0.8-3c-0.5-0.6-1.3-1-2.5-1H132v8.3h0.8c1.2,0,2.1-0.4,2.6-1.1
		C136.3,153,136.5,152,136.5,150.5z"/>
	<path class="st0" d="M148.5,158.4c-1.9,0-3.4-0.5-4.4-1.6c-1.1-1-1.6-2.5-1.6-4.3s0.5-3.4,1.5-4.4c1-1.1,2.5-1.6,4.2-1.6
		c1.6,0,3,0.5,3.9,1.3c1,0.8,1.5,2.1,1.5,3.9v1.8h-7.1c0,0.6,0.2,1.1,0.7,1.6c0.5,0.4,1.1,0.6,1.8,0.6s1.3-0.2,1.9-0.2
		c0.6-0.2,1.2-0.4,1.9-0.7v2.9c-0.6,0.4-1.2,0.5-1.9,0.6C150.2,158.2,149.5,158.4,148.5,158.4z M148.3,149.3c-0.5,0-0.8,0.2-1.2,0.5
		c-0.4,0.2-0.5,0.7-0.6,1.3h3.4c0-0.6-0.2-1-0.5-1.3C149.3,149.3,148.8,149.3,148.3,149.3z"/>
	<path class="st0" d="M164.5,154.6c0,1.2-0.4,2.1-1.2,2.7c-0.8,0.6-2.1,1-3.5,1c-0.8,0-1.6,0-2.1-0.2c-0.6-0.2-1.3-0.2-1.9-0.5v-3.1
		c0.6,0.2,1.3,0.5,2.1,0.7c0.7,0.2,1.3,0.2,1.9,0.2c0.8,0,1.3-0.2,1.3-0.6c0-0.2-0.2-0.4-0.4-0.5c-0.2-0.2-1-0.5-2.1-1
		s-1.8-1-2.1-1.5c-0.4-0.6-0.6-1.2-0.6-2.1c0-1.1,0.4-1.9,1.2-2.5s1.9-0.8,3.4-0.8c0.7,0,1.5,0.2,2.1,0.2c0.7,0.2,1.3,0.4,2.1,0.7
		l-1.1,2.5c-0.5-0.2-1.1-0.5-1.6-0.6c-0.6-0.2-1.1-0.2-1.5-0.2c-0.6,0-1,0.2-1,0.5c0,0.2,0.2,0.4,0.4,0.5c0.2,0.2,0.8,0.4,1.9,0.8
		c0.8,0.4,1.5,0.6,1.8,1c0.4,0.4,0.7,0.7,0.8,1.1C164.4,153.4,164.5,154,164.5,154.6z"/>
	<path class="st0" d="M166.6,143.8c0-0.6,0.2-1.1,0.5-1.3c0.4-0.2,0.8-0.5,1.6-0.5c0.7,0,1.3,0.2,1.6,0.5c0.4,0.2,0.5,0.7,0.5,1.3
		c0,1.2-0.7,1.6-2.1,1.6C167.3,145.6,166.6,145,166.6,143.8z M170.7,158.1h-3.9v-11.3h3.9V158.1z"/>
	<path class="st0" d="M184.1,146.7v1.9l-1.6,0.6c0.2,0.4,0.4,0.8,0.4,1.3c0,1.2-0.5,2.1-1.3,2.9c-0.8,0.7-2.1,1-3.9,1
		c-0.5,0-0.7,0-1-0.2c-0.2,0.2-0.2,0.4-0.2,0.5c0,0.2,0.2,0.4,0.5,0.5c0.4,0.2,0.7,0.2,1.2,0.2h1.9c2.5,0,3.9,1.1,3.9,3.3
		c0,1.5-0.6,2.5-1.8,3.3c-1.2,0.7-2.9,1.2-5,1.2c-1.6,0-2.9-0.2-3.7-0.8c-0.8-0.5-1.3-1.3-1.3-2.3c0-1.3,0.8-2.3,2.5-2.6
		c-0.4-0.2-0.6-0.4-1-0.7c-0.2-0.4-0.4-0.6-0.4-1s0.2-0.7,0.2-1c0.2-0.2,0.6-0.6,1.2-1c-0.6-0.2-1.1-0.7-1.5-1.2
		c-0.4-0.6-0.5-1.2-0.5-2.1c0-1.2,0.5-2.1,1.3-2.9c0.8-0.7,2.1-1.1,3.5-1.1c0.2,0,0.6,0,1.1,0.2c0.5,0,0.8,0.2,1.1,0.2L184.1,146.7
		L184.1,146.7z M175.5,159.5c0,0.4,0.2,0.6,0.5,0.8c0.4,0.2,0.8,0.2,1.5,0.2c1,0,1.6-0.2,2.3-0.4c0.6-0.2,0.8-0.6,0.8-1
		s-0.2-0.5-0.5-0.6c-0.4-0.2-0.8-0.2-1.6-0.2H177c-0.5,0-0.7,0.2-1.1,0.2C175.7,158.9,175.5,159.2,175.5,159.5z M176.7,150.5
		c0,1.2,0.4,1.8,1.2,1.8c0.4,0,0.7-0.2,0.8-0.5c0.2-0.2,0.4-0.7,0.4-1.3c0-1.2-0.4-1.8-1.2-1.8C177.1,148.6,176.7,149.3,176.7,150.5
		z"/>
	<path class="st0" d="M193,158.1v-6.2c0-0.7-0.2-1.3-0.4-1.6c-0.2-0.4-0.6-0.6-1.1-0.6c-0.7,0-1.2,0.2-1.5,0.8
		c-0.2,0.5-0.5,1.5-0.5,2.7v5h-3.9v-11.3h3l0.5,1.5h0.2c0.4-0.5,0.8-1,1.5-1.2c0.6-0.2,1.3-0.4,2.1-0.4c1.3,0,2.3,0.4,3,1.1
		c0.7,0.7,1.1,1.8,1.1,3.1v7.4h-3.9L193,158.1L193,158.1z"/>
	<path class="st0" d="M209.5,158.1l-1.8-4.7h-5.9l-1.8,4.7h-1.6l5.8-14.7h1.5l5.7,14.7H209.5z M207.1,151.8l-1.6-4.5
		c-0.2-0.6-0.5-1.3-0.7-2.1c-0.2,0.6-0.4,1.3-0.6,2.1l-1.6,4.5H207.1z"/>
	<path class="st0" d="M222.1,158.1l-2.1-6.4c-0.2-0.4-0.4-1.3-0.7-2.6h-0.2c-0.2,1.2-0.5,2.1-0.7,2.7l-2.1,6.4h-2l-3-11h1.8
		c0.7,2.7,1.2,4.9,1.6,6.4c0.4,1.5,0.6,2.5,0.6,2.9h0.2c0.2-0.4,0.2-0.8,0.4-1.5c0.2-0.6,0.4-1.1,0.5-1.5l2.1-6.4h1.8l1.9,6.4
		c0.4,1.2,0.6,2.1,0.7,2.9h0.2c0-0.2,0.2-0.6,0.2-1.1c0.2-0.5,0.8-3.3,2.1-8.1h1.6l-3,11L222.1,158.1L222.1,158.1L222.1,158.1z"/>
	<path class="st0" d="M235.8,158.1l-0.4-1.6h-0.2c-0.6,0.7-1.1,1.2-1.6,1.5c-0.6,0.2-1.2,0.4-2.1,0.4c-1.1,0-1.9-0.2-2.5-0.8
		s-1-1.3-1-2.5c0-2.3,1.8-3.4,5.4-3.4l1.9-0.2v-0.7c0-0.8-0.2-1.6-0.6-1.9c-0.4-0.4-1-0.6-1.8-0.6c-1,0-1.9,0.2-3.1,0.8l-0.5-1.3
		c0.6-0.2,1.1-0.5,1.8-0.7c0.6-0.2,1.3-0.2,1.9-0.2c1.3,0,2.3,0.2,2.9,0.8s1,1.6,1,2.7v7.5L235.8,158.1L235.8,158.1L235.8,158.1z
		 M232,156.9c1.1,0,1.8-0.2,2.5-0.8c0.6-0.6,0.8-1.3,0.8-2.5v-1l-1.6,0.2c-1.3,0-2.3,0.2-2.9,0.6c-0.6,0.4-0.8,1-0.8,1.6
		s0.2,1.1,0.6,1.3C230.9,156.7,231.4,156.9,232,156.9z"/>
	<path class="st0" d="M245.5,146.8c0.5,0,1,0,1.3,0.2l-0.2,1.6c-0.5-0.2-0.8-0.2-1.2-0.2c-0.8,0-1.6,0.4-2.3,1.1
		c-0.6,0.7-1,1.6-1,2.7v5.8h-1.6v-11h1.3l0.2,2.1h0.2c0.4-0.7,1-1.3,1.5-1.6C244.2,147,244.8,146.8,245.5,146.8z"/>
	<path class="st0" d="M256.4,156.6c-0.8,1.1-2.1,1.6-3.5,1.6c-1.5,0-2.5-0.5-3.4-1.5c-0.8-1-1.2-2.5-1.2-4.2c0-1.8,0.4-3.3,1.2-4.2
		c0.8-1,1.9-1.6,3.4-1.6s2.6,0.6,3.4,1.6h0.2l-0.2-0.8V147v-4.7h1.6V158h-1.3L256.4,156.6z M253,156.9c1.2,0,1.9-0.4,2.5-1
		c0.5-0.6,0.7-1.6,0.7-3v-0.4c0-1.6-0.2-2.6-0.8-3.4c-0.5-0.7-1.3-1-2.5-1c-1,0-1.6,0.4-2.3,1.2c-0.5,0.7-0.8,1.8-0.8,3.3
		s0.2,2.5,0.7,3.3C251.2,156.5,251.9,156.9,253,156.9z"/>
	<path class="st0" d="M268.5,155.1c0,1.1-0.4,1.8-1.2,2.5c-0.7,0.6-1.8,0.8-3.3,0.8s-2.6-0.2-3.4-0.7v-1.6c0.5,0.2,1.1,0.5,1.6,0.6
		c0.6,0.1,1.2,0.2,1.8,0.2c0.8,0,1.6-0.2,2.1-0.4s0.7-0.7,0.7-1.3c0-0.5-0.2-0.8-0.6-1.1c-0.4-0.4-1.1-0.7-2.1-1.1
		c-1.1-0.4-1.8-0.7-2.1-1c-0.5-0.2-0.7-0.6-1-1c-0.2-0.4-0.4-0.8-0.4-1.3c0-0.8,0.4-1.6,1.1-2.1c0.7-0.6,1.6-0.8,3-0.8
		c1.2,0,2.5,0.2,3.4,0.7l-0.6,1.3c-1.1-0.5-2.1-0.7-3-0.7s-1.5,0.2-1.8,0.4c-0.4,0.2-0.6,0.6-0.6,1.1c0,0.2,0.2,0.6,0.2,0.7
		c0.2,0.2,0.4,0.4,0.7,0.6c0.4,0.2,1,0.5,1.9,0.8c1.3,0.5,2.1,1,2.6,1.5C268.4,153.8,268.5,154.4,268.5,155.1z"/>
</g>
</svg>
