<?xml version="1.0" encoding="utf-8"?>
<!-- Generator: Adobe Illustrator 28.0.0, SVG Export Plug-In . SVG Version: 6.00 Build 0)  -->
<svg version="1.1" id="Capa_1" xmlns:v="https://vecta.io/nano"
	 xmlns="http://www.w3.org/2000/svg" xmlns:xlink="http://www.w3.org/1999/xlink" x="0px" y="0px" viewBox="0 0 300 300"
	 style="enable-background:new 0 0 300 300;" xml:space="preserve">
<style type="text/css">
	.st0{opacity:0.2;}
	.st1{opacity:0.3;enable-background:new    ;}
</style>
<g class="st0">
	<path class="st1" d="M105.6,152.6c0.3-1.3,0.6-2.4,1.4-3.3c0.9-1,2-1.5,3.4-1.5c1.4,0,2.5,0.5,3.4,1.5c0.8,0.9,1.3,1.9,1.4,3.3
		H105.6 M110.6,143.1c-3.5,0-6.3,1-8.3,3c-2,2-3,4.7-3,8.1c0,7.9,3.9,11.9,11.7,11.9c2.5,0,4.7-0.6,6.4-1.8c1.8-1.3,3.2-2.9,3.8-5.2
		h-6.3c-0.3,0.8-0.8,1.4-1.6,1.9c-0.8,0.4-1.6,0.6-2.5,0.6c-1.6,0-2.9-0.5-3.8-1.6c-0.9-1-1.4-2.1-1.4-3.8h16.2
		C121.5,147.5,117.9,143.1,110.6,143.1"/>
	<path class="st1" d="M137.3,149.1c-0.6,0-1.1-0.1-1.8-0.1c-3.8,0-5.7,1.8-5.7,5.3v11.4h-6.2v-21.8h5.9v1.6c0,0.6,0,0.9,0,0.9h0.1
		c1.1-1.1,1.9-1.5,2.6-1.9c1-0.5,3.3-0.9,4.9-0.9h0.9L137.3,149.1"/>
	<path class="st1" d="M159.5,151.6h-6.2c-0.1-1-0.6-1.9-1.4-2.6c-0.8-0.8-1.6-1-2.8-1c-1.6,0-2.9,0.8-3.8,2.1
		c-0.8,1.1-1.1,2.5-1.1,4.3c0,4.8,1.5,7.1,4.7,7.1c1.1,0,2.1-0.3,2.9-1c0.8-0.8,1.3-1.6,1.4-2.8h6.3c-0.4,2.5-1.5,4.7-3.5,6.3
		c-2,1.6-4.4,2.4-7.3,2.4c-3.5,0-6.2-1-8.1-3.2c-1.8-2-2.6-4.7-2.6-7.9c0-3.5,0.9-6.3,2.5-8.5c1.9-2.4,4.7-3.5,8.5-3.5
		c2.9,0,5.3,0.8,7.3,2.1S159.4,148.9,159.5,151.6"/>
	<path class="st1" d="M175.2,156c0,0.5,0,0.8,0,1c0,1.4-0.3,2.5-0.9,3.2c-0.5,0.5-1.3,1-2.1,1.4c-0.9,0.4-1.8,0.5-2.5,0.5
		c-1.9,0-2.8-0.9-2.8-2.4c0-1.3,0.5-2.1,1.6-2.8c0.5-0.3,1.6-0.6,3.4-0.9c1.5-0.3,2.6-0.6,3.3-1.1
		C175.2,155.1,175.2,155.5,175.2,156 M181.7,152.1c0-5.9-3.3-8.8-10-9c-1.9,0-3.7,0.3-5.3,0.9c-3,1.1-4.7,3.4-5,6.9h5.9
		c0.1-1,0.5-1.8,1.3-2.4c0.8-0.6,1.6-0.9,2.8-0.9c1,0,1.9,0.3,2.6,0.8s1.1,1.1,1.1,2c0,1-1.3,1.5-3.8,1.9c-3.5,0.4-5.9,0.9-7.1,1.4
		c-2.5,1.1-3.8,3.2-3.8,6.2c0,2,0.8,3.5,2.4,4.7c1.4,1,3.3,1.5,5.6,1.5c3.2,0,5.4-0.8,6.9-2.3c0.3,0.9,0.4,1.5,0.6,1.8h5.8
		L181.7,152.1"/>
	<path d="M205.6,165.7H183c0-3.5,1.3-6.6,3.4-9.1c1-1.1,3.3-2.9,6.7-5.2c4-2.8,6.1-5.4,6.1-7.9c0-1.3-0.5-2.4-1.5-3.3
		c-1-0.9-2.1-1.3-3.5-1.3c-1.9,0-3.3,0.9-3.9,2.5c-0.3,0.6-0.4,1.9-0.5,3.5h-6.3c0-3.4,1-6.1,2.8-8.2c2-2.3,4.7-3.4,8.1-3.4
		c3.2,0,5.8,1,7.9,2.9c2.1,1.9,3.3,4.4,3.3,7.4c0,2.8-1,5.2-3.2,7.4c-1.1,1.1-3.3,2.8-6.4,4.8c-2.6,1.6-4.2,3-4.7,4.2h14.4
		L205.6,165.7"/>
	<path d="M207.6,165.1c-0.6-0.6-0.9-1.4-0.9-2.3s0.3-1.6,1-2.3c0.6-0.6,1.4-1,2.3-1c0.9,0,1.6,0.3,2.3,1c0.6,0.8,0.9,1.4,0.9,2.3
		s-0.3,1.6-0.9,2.3c-0.6,0.6-1.4,1-2.3,1C209,166.1,208.2,165.8,207.6,165.1"/>
	<path d="M228,151.8c0,6.6-1.6,9.8-4.8,9.8c-3.2,0-4.8-3.2-4.8-9.6v-3.7c0-6.3,1.6-9.5,4.8-9.5c3.2,0,4.8,3.2,4.8,9.6V151.8
		 M223.1,133.8c-4.2,0-7.2,1.6-9.1,4.9c-1.5,2.6-2.3,6.2-2.3,10.5c0,0.9,0,1.9,0,3c0.4,4.4,1.1,7.7,2.5,9.8c1.8,3,4.8,4.5,8.8,4.5
		c4.8,0,8.1-2,9.8-5.8c1.1-2.5,1.8-6.4,1.8-11.7C234.7,138.8,230.8,133.8,223.1,133.8"/>
	<path class="st1" d="M68,135.3h8.2l4,15.1c0.6,2.1,0.8,3,1.1,4.5c0.3-1.5,0.6-2.9,1.1-4.7l4.3-15H95l2.8,30.2h-6.2l-1.1-16.2
		c-0.1-1.9-0.3-3.2-0.3-4.8c-0.4,1.8-0.6,2.6-1.1,4.4l-4.9,16.5h-5.6l-4.4-15.8c-0.4-1.5-1.3-5.3-1.3-5.3c0,1.8-0.1,3.5-0.3,5.3
		l-1.1,15.8h-6.3L68,135.3"/>
	<g>
		<path d="M101.1,137.3h0.5v0.4c0.1-0.1,0.3-0.3,0.3-0.3c0.1-0.1,0.4-0.1,0.5-0.1c0.3,0,0.4,0,0.5,0.1c0.1,0,0.1,0.1,0.3,0.3
			c0.1-0.1,0.3-0.3,0.4-0.4c0.1-0.1,0.3-0.1,0.5-0.1c0.4,0,0.6,0.1,0.8,0.4c0.1,0.1,0.1,0.4,0.1,0.6v1.9h-0.5v-2
			c0-0.3,0-0.4-0.1-0.4c-0.1-0.1-0.3-0.1-0.4-0.1c-0.1,0-0.4,0-0.5,0.3c-0.1,0.1-0.3,0.4-0.3,0.6v1.6h-0.4v-1.9c0-0.3,0-0.4,0-0.4
			c-0.1-0.1-0.3-0.3-0.4-0.3c-0.1,0-0.4,0.1-0.5,0.3c-0.1,0.1-0.3,0.4-0.3,0.8v1.5h-0.5L101.1,137.3"/>
		<path d="M107.5,137.3c0.1,0.1,0.4,0.3,0.4,0.4c0.1,0.1,0.1,0.3,0.1,0.5c0,0.1,0,0.4,0,0.6h-2.1c0,0.3,0.1,0.5,0.3,0.8
			c0.1,0.1,0.4,0.3,0.6,0.3s0.5-0.1,0.6-0.3c0.1-0.1,0.1-0.3,0.1-0.4h0.5c0,0.1,0,0.3-0.1,0.4c-0.1,0.1-0.1,0.3-0.3,0.3
			c-0.1,0.1-0.4,0.3-0.5,0.3c-0.1,0-0.3,0-0.4,0c-0.4,0-0.6-0.1-0.9-0.4c-0.3-0.3-0.4-0.6-0.4-1.1s0.1-0.9,0.4-1.1
			c0.3-0.3,0.6-0.4,1-0.4C107.2,137.2,107.3,137.3,107.5,137.3 M107.7,138.5c0-0.3,0-0.4-0.1-0.5c-0.1-0.3-0.4-0.4-0.6-0.4
			s-0.4,0.1-0.5,0.3c-0.1,0.1-0.3,0.4-0.3,0.6H107.7"/>
		<path d="M108.8,137.3h0.5v0.5c0-0.1,0.1-0.3,0.3-0.4c0.1-0.1,0.3-0.3,0.5-0.3l0,0c0,0,0,0,0.1,0v0.5c0,0,0,0-0.1,0c0,0,0,0-0.1,0
			c-0.3,0-0.5,0.1-0.6,0.3c-0.1,0.1-0.3,0.4-0.3,0.5v1.6h-0.5L108.8,137.3"/>
		<path d="M112.6,137.4c0.3,0.1,0.4,0.4,0.4,0.8h-0.5c0-0.1-0.1-0.3-0.3-0.4c-0.1-0.1-0.3-0.1-0.5-0.1c-0.3,0-0.5,0.1-0.6,0.5
			c-0.1,0.3-0.1,0.4-0.1,0.8c0,0.3,0,0.5,0.1,0.8c0.1,0.3,0.3,0.3,0.6,0.3c0.3,0,0.4,0,0.5-0.3c0.1-0.1,0.3-0.3,0.3-0.5h0.5
			c0,0.4-0.1,0.6-0.4,0.9s-0.5,0.3-0.8,0.3c-0.4,0-0.6-0.1-0.9-0.4c-0.3-0.3-0.4-0.6-0.4-1c0-0.5,0.1-0.9,0.4-1.1
			c0.3-0.3,0.5-0.4,0.9-0.4C112.2,137.2,112.5,137.3,112.6,137.4"/>
		<path d="M115.1,138.5c0.1,0,0.1,0,0.3-0.1v-0.1c0-0.1,0-0.3-0.1-0.4c-0.1-0.1-0.3-0.1-0.5-0.1c-0.3,0-0.4,0-0.5,0.3
			c0,0.1-0.1,0.3-0.1,0.4h-0.5c0-0.4,0.1-0.6,0.4-0.8c0.3-0.1,0.5-0.3,0.8-0.3c0.4,0,0.6,0,0.8,0.3c0.3,0.1,0.3,0.4,0.3,0.6v1.6v0.1
			c0,0,0,0,0.1,0c0,0,0,0,0.1,0c0.1,0,0,0,0.1,0v0.4c-0.1,0-0.1,0-0.1,0h-0.1c-0.1,0-0.3,0-0.4-0.1c0,0,0-0.1-0.1-0.3
			c-0.1,0.1-0.3,0.3-0.4,0.4c-0.1,0.1-0.4,0.1-0.6,0.1s-0.5-0.1-0.6-0.3c-0.1-0.1-0.3-0.4-0.3-0.6c0-0.3,0.1-0.5,0.3-0.6
			c0.1-0.1,0.4-0.3,0.6-0.3L115.1,138.5 M114,139.7c0.1,0.1,0.3,0.1,0.4,0.1c0.1,0,0.4,0,0.5-0.1c0.3-0.1,0.4-0.4,0.4-0.6v-0.4
			c0,0-0.1,0-0.3,0.1c-0.1,0.1-0.1,0-0.3,0h-0.3c-0.1,0-0.3,0-0.4,0.1c-0.1,0.1-0.3,0.3-0.3,0.4C113.8,139.6,114,139.6,114,139.7"/>
		<path d="M118.3,137.3c0.1,0,0.1,0.1,0.3,0.3v-1.4h0.5v3.9h-0.5v-0.4c-0.1,0.1-0.3,0.3-0.4,0.4c-0.1,0.1-0.4,0.1-0.5,0.1
			c-0.3,0-0.6-0.1-0.8-0.4c-0.1-0.3-0.4-0.6-0.4-1c0-0.4,0.1-0.8,0.3-1.1c0.3-0.3,0.5-0.5,0.9-0.5
			C117.9,137.2,118,137.3,118.3,137.3 M117.1,139.6c0.1,0.3,0.4,0.3,0.6,0.3s0.4-0.1,0.5-0.3c0.1-0.3,0.3-0.5,0.3-0.9
			c0-0.4-0.1-0.6-0.3-0.9c-0.1-0.1-0.4-0.3-0.5-0.3c-0.3,0-0.4,0.1-0.6,0.3c-0.1,0.3-0.3,0.5-0.3,0.9
			C117,139.1,117,139.3,117.1,139.6"/>
		<path d="M121.8,137.6c0.3,0.3,0.4,0.6,0.4,1.1c0,0.5-0.1,0.9-0.4,1.1s-0.6,0.5-1,0.5c-0.4,0-0.8-0.1-0.9-0.4
			c-0.1-0.3-0.4-0.6-0.4-1c0-0.5,0.1-0.9,0.4-1.1c0.3-0.3,0.6-0.4,1-0.4C121.3,137.2,121.5,137.3,121.8,137.6 M121.5,139.5
			c0.1-0.3,0.1-0.5,0.1-0.9c0-0.3,0-0.5-0.1-0.6c-0.1-0.3-0.4-0.4-0.8-0.4c-0.3,0-0.5,0.1-0.6,0.4c-0.1,0.3-0.3,0.5-0.3,0.9
			c0,0.3,0,0.6,0.3,0.8c0.1,0.3,0.4,0.3,0.6,0.3C121.2,139.8,121.4,139.7,121.5,139.5"/>
		<path d="M122.9,136.6h0.5v0.8h0.5v0.4h-0.5v1.9c0,0.1,0,0.1,0.1,0.3h0.1c0,0,0,0,0.1,0c0.1,0,0,0,0.1,0v0.4h-0.1h-0.1
			c-0.3,0-0.4,0-0.5-0.1c-0.1-0.1-0.1-0.3-0.1-0.5v-1.9h-0.4v-0.4h0.4v-0.8"/>
		<path d="M126.2,137.3c0.1,0.1,0.4,0.3,0.5,0.4c0.1,0.1,0.1,0.3,0.1,0.5c0,0.1,0,0.4,0,0.6h-2.1c0,0.3,0.1,0.5,0.3,0.8
			c0.1,0.1,0.4,0.3,0.6,0.3s0.5-0.1,0.6-0.3c0.1-0.1,0.1-0.3,0.1-0.4h0.5c0,0.1,0,0.3-0.1,0.4c-0.1,0.1-0.1,0.3-0.3,0.3
			c-0.1,0.1-0.4,0.3-0.5,0.3c-0.1,0-0.3,0-0.4,0c-0.4,0-0.6-0.1-0.9-0.4c-0.3-0.3-0.4-0.6-0.4-1.1s0.1-0.9,0.4-1.1
			c0.3-0.3,0.6-0.4,1-0.4C125.8,137.2,126.1,137.3,126.2,137.3 M126.5,138.5c0-0.3,0-0.4-0.1-0.5c-0.1-0.3-0.4-0.4-0.6-0.4
			s-0.4,0.1-0.5,0.3c-0.1,0.1-0.3,0.4-0.3,0.6H126.5"/>
		<path d="M129.5,137.4c0.3,0.1,0.4,0.4,0.4,0.8h-0.5c0-0.1-0.1-0.3-0.3-0.4c-0.1-0.1-0.3-0.1-0.5-0.1c-0.3,0-0.5,0.1-0.6,0.5
			c-0.1,0.3-0.1,0.4-0.1,0.8c0,0.3,0,0.5,0.1,0.8c0.1,0.3,0.3,0.3,0.6,0.3c0.3,0,0.4,0,0.5-0.3c0.1-0.1,0.3-0.3,0.3-0.5h0.5
			c0,0.4-0.1,0.6-0.4,0.9s-0.5,0.3-0.8,0.3c-0.4,0-0.6-0.1-0.9-0.4c-0.3-0.3-0.4-0.6-0.4-1c0-0.5,0.1-0.9,0.4-1.1
			c0.3-0.3,0.5-0.4,0.9-0.4C129,137.2,129.2,137.3,129.5,137.4"/>
		<path d="M130.4,137.3h0.5v0.4c0.1-0.1,0.3-0.3,0.4-0.4s0.3-0.1,0.5-0.1c0.4,0,0.6,0.1,0.9,0.4c0.1,0.1,0.1,0.4,0.1,0.6v1.9h-0.5
			v-1.8c0-0.1,0-0.3-0.1-0.4c-0.1-0.1-0.3-0.3-0.5-0.3c-0.1,0-0.3,0-0.3,0c-0.1,0-0.3,0.1-0.4,0.3c-0.1,0.1-0.1,0.3-0.1,0.3
			c0,0.1,0,0.3,0,0.4v1.5h-0.5V137.3"/>
		<path d="M133.5,136.2h0.5v0.6h-0.5V136.2 M133.5,137.3h0.5v2.9h-0.5V137.3"/>
		<path d="M136.3,138.5c0.1,0,0.1,0,0.3-0.1v-0.1c0-0.1,0-0.3-0.1-0.4c-0.1-0.1-0.3-0.1-0.5-0.1c-0.3,0-0.4,0-0.5,0.3
			c0,0.1-0.1,0.3-0.1,0.4h-0.5c0-0.4,0.1-0.6,0.4-0.8c0.3-0.1,0.5-0.3,0.8-0.3c0.4,0,0.6,0,0.8,0.3c0.3,0.1,0.3,0.4,0.3,0.6v1.6v0.1
			c0,0,0,0,0.1,0c0,0,0,0,0.1,0s0,0,0.1,0v0.4c-0.1,0-0.1,0-0.1,0h-0.1c-0.1,0-0.3,0-0.4-0.1c0,0,0-0.1-0.1-0.3
			c-0.1,0.1-0.3,0.3-0.4,0.4c-0.1,0.1-0.4,0.1-0.6,0.1c-0.3,0-0.5-0.1-0.6-0.3c-0.1-0.1-0.3-0.4-0.3-0.6c0-0.3,0.1-0.5,0.3-0.6
			c0.1-0.1,0.4-0.3,0.6-0.3L136.3,138.5 M135.3,139.7c0.1,0.1,0.3,0.1,0.4,0.1c0.1,0,0.4,0,0.5-0.1c0.3-0.1,0.4-0.4,0.4-0.6v-0.4
			c0,0-0.1,0-0.3,0.1s-0.1,0-0.3,0h-0.3c-0.1,0-0.3,0-0.4,0.1c-0.1,0.1-0.3,0.3-0.3,0.4C135.2,139.6,135.2,139.6,135.3,139.7"/>
		<path class="st1" d="M137.8,137.3h0.5v0.4c0.1-0.1,0.3-0.3,0.3-0.3c0.1-0.1,0.4-0.1,0.6-0.1c0.4,0,0.6,0.1,0.9,0.4
			c0.3,0.3,0.4,0.6,0.4,1c0,0.6-0.1,1.1-0.5,1.4c-0.3,0.1-0.5,0.3-0.8,0.3c-0.3,0-0.4,0-0.5-0.1c-0.1,0-0.1-0.1-0.3-0.3v1.5h-0.5
			L137.8,137.3 M139.6,139.6c0.1-0.3,0.3-0.5,0.3-0.9c0-0.3,0-0.4-0.1-0.6c-0.1-0.4-0.4-0.5-0.6-0.5c-0.3,0-0.5,0.1-0.6,0.5
			c0,0.1-0.1,0.4-0.1,0.6c0,0.3,0,0.4,0.1,0.6c0.1,0.3,0.4,0.5,0.6,0.5C139.3,139.8,139.5,139.7,139.6,139.6"/>
		<path class="st1" d="M141.5,137.3v1.9c0,0.1,0,0.3,0,0.4c0.1,0.1,0.3,0.3,0.5,0.3c0.4,0,0.5-0.1,0.6-0.5c0-0.1,0.1-0.4,0.1-0.6
			v-1.4h0.5v2.9h-0.5v-0.4c0,0.1-0.1,0.3-0.3,0.3c-0.1,0.1-0.4,0.3-0.6,0.3c-0.4,0-0.6-0.1-0.8-0.4c-0.1-0.1-0.1-0.4-0.1-0.6v-1.9
			L141.5,137.3"/>
		<path class="st1" d="M144.1,136.2h0.5v1.4c0.1-0.1,0.3-0.3,0.4-0.3c0.1,0,0.3-0.1,0.5-0.1c0.4,0,0.6,0.1,0.9,0.4
			c0.3,0.3,0.4,0.6,0.4,1.1s-0.1,0.9-0.4,1.1c-0.3,0.3-0.5,0.5-0.9,0.5c-0.3,0-0.4,0-0.5-0.1c-0.1,0-0.1-0.1-0.3-0.3v0.4h-0.5
			L144.1,136.2 M145.9,139.6c0.1-0.3,0.3-0.5,0.3-0.9c0-0.3,0-0.5-0.3-0.8c-0.1-0.3-0.3-0.3-0.6-0.3c-0.3,0-0.4,0.1-0.6,0.3
			c-0.3,0.1-0.3,0.4-0.3,0.9c0,0.3,0,0.5,0.1,0.6c0.1,0.4,0.4,0.5,0.8,0.5C145.6,139.8,145.8,139.7,145.9,139.6"/>
		<polyline class="st1" points="147.2,136.2 147.7,136.2 147.7,140.2 147.2,140.2 147.2,136.2 		"/>
		<path class="st1" d="M148.5,136.2h0.5v0.6h-0.5V136.2 M148.5,137.3h0.5v2.9h-0.5V137.3"/>
		<path class="st1" d="M151.7,137.4c0.3,0.1,0.4,0.4,0.4,0.8h-0.5c0-0.1-0.1-0.3-0.1-0.4c-0.1-0.1-0.3-0.1-0.5-0.1
			c-0.3,0-0.5,0.1-0.6,0.5c-0.1,0.3-0.1,0.4-0.1,0.8c0,0.3,0,0.5,0.1,0.8c0.1,0.3,0.3,0.3,0.6,0.3c0.3,0,0.4,0,0.5-0.3
			c0.1-0.1,0.3-0.3,0.3-0.5h0.5c0,0.4-0.1,0.6-0.4,0.9s-0.5,0.3-0.8,0.3c-0.4,0-0.6-0.1-0.9-0.4c-0.3-0.3-0.4-0.6-0.4-1
			c0-0.5,0.1-0.9,0.4-1.1c0.3-0.3,0.5-0.4,0.9-0.4C151.2,137.2,151.5,137.3,151.7,137.4"/>
		<path class="st1" d="M152.6,136.2h0.5v0.6h-0.5V136.2 M152.6,137.3h0.5v2.9h-0.5V137.3"/>
		<path class="st1" d="M155.5,137.3c0.1,0,0.1,0.1,0.3,0.3v-1.4h0.5v3.9h-0.5v-0.4c-0.1,0.1-0.3,0.3-0.4,0.4
			c-0.1,0.1-0.4,0.1-0.5,0.1c-0.3,0-0.6-0.1-0.8-0.4c-0.1-0.3-0.4-0.6-0.4-1c0-0.4,0.1-0.8,0.3-1.1c0.3-0.3,0.5-0.5,0.9-0.5
			C155.1,137.2,155.2,137.3,155.5,137.3 M154.4,139.6c0.1,0.3,0.4,0.3,0.6,0.3c0.3,0,0.4-0.1,0.5-0.3c0.1-0.3,0.3-0.5,0.3-0.9
			c0-0.4-0.1-0.6-0.3-0.9c-0.1-0.1-0.4-0.3-0.5-0.3c-0.3,0-0.4,0.1-0.6,0.3c-0.1,0.3-0.3,0.5-0.3,0.9
			C154.2,139.1,154.2,139.3,154.4,139.6"/>
		<path class="st1" d="M158.5,138.5c0.1,0,0.1,0,0.3-0.1v-0.1c0-0.1,0-0.3-0.1-0.4c-0.1-0.1-0.3-0.1-0.5-0.1c-0.3,0-0.4,0-0.5,0.3
			c0,0.1-0.1,0.3-0.1,0.4H157c0-0.4,0.1-0.6,0.4-0.8c0.3-0.1,0.5-0.3,0.8-0.3c0.4,0,0.6,0,0.8,0.3c0.3,0.1,0.3,0.4,0.3,0.6v1.6v0.1
			c0,0,0,0,0.1,0c0,0,0,0,0.1,0c0.1,0,0,0,0.1,0v0.4c-0.1,0-0.1,0-0.1,0h-0.1c-0.1,0-0.3,0-0.4-0.1c0,0,0-0.1-0.1-0.3
			c-0.1,0.1-0.3,0.3-0.4,0.4s-0.4,0.1-0.6,0.1c-0.3,0-0.5-0.1-0.6-0.3c-0.1-0.1-0.3-0.4-0.3-0.6c0-0.3,0.1-0.5,0.3-0.6
			c0.1-0.1,0.4-0.3,0.6-0.3L158.5,138.5 M157.5,139.7c0.1,0.1,0.3,0.1,0.4,0.1c0.1,0,0.4,0,0.5-0.1c0.3-0.1,0.4-0.4,0.4-0.6v-0.4
			c0,0-0.1,0-0.3,0.1s-0.1,0-0.3,0H158c-0.1,0-0.3,0-0.4,0.1c-0.1,0.1-0.3,0.3-0.3,0.4C157.4,139.6,157.4,139.6,157.5,139.7"/>
		<path class="st1" d="M161.7,137.3c0.1,0,0.1,0.1,0.3,0.3v-1.4h0.5v3.9h-0.4v-0.4c-0.1,0.1-0.3,0.3-0.4,0.4
			c-0.1,0.1-0.4,0.1-0.5,0.1c-0.3,0-0.6-0.1-0.9-0.4c-0.3-0.3-0.4-0.6-0.4-1c0-0.4,0.1-0.8,0.3-1.1c0.3-0.3,0.5-0.5,0.9-0.5
			C161.3,137.2,161.5,137.3,161.7,137.3 M160.7,139.6c0.1,0.3,0.4,0.3,0.6,0.3c0.3,0,0.4-0.1,0.5-0.3c0.1-0.3,0.3-0.5,0.3-0.9
			c0-0.4-0.1-0.6-0.3-0.9c-0.1-0.1-0.4-0.3-0.5-0.3c-0.3,0-0.4,0.1-0.6,0.3c-0.1,0.3-0.3,0.5-0.3,0.9
			C160.4,139.1,160.5,139.3,160.7,139.6"/>
		<path d="M163.2,137.3h0.5v0.4c0.1-0.1,0.3-0.3,0.3-0.3c0.1-0.1,0.4-0.1,0.5-0.1c0.3,0,0.4,0,0.5,0.1c0.1,0,0.1,0.1,0.3,0.3
			c0.1-0.1,0.3-0.3,0.4-0.4s0.3-0.1,0.5-0.1c0.4,0,0.6,0.1,0.8,0.4c0.1,0.1,0.1,0.4,0.1,0.6v1.9h-0.5v-2c0-0.3,0-0.4-0.1-0.4
			c-0.1-0.1-0.3-0.1-0.4-0.1c-0.1,0-0.4,0-0.5,0.3c-0.1,0.1-0.3,0.4-0.3,0.6v1.6h-0.5v-1.9c0-0.3,0-0.4-0.1-0.4
			c-0.1-0.1-0.3-0.3-0.4-0.3c-0.1,0-0.4,0.1-0.5,0.3s-0.3,0.4-0.3,0.8v1.5h-0.5L163.2,137.3"/>
		<path d="M169.6,137.3c0.1,0.1,0.4,0.3,0.5,0.4s0.1,0.3,0.1,0.5c0,0.1,0,0.4,0,0.6h-2.1c0,0.3,0.1,0.5,0.3,0.8
			c0.1,0.1,0.4,0.3,0.6,0.3c0.3,0,0.5-0.1,0.6-0.3c0.1-0.1,0.1-0.3,0.1-0.4h0.5c0,0.1,0,0.3-0.1,0.4s-0.1,0.3-0.3,0.3
			c-0.1,0.1-0.4,0.3-0.5,0.3s-0.3,0-0.4,0c-0.4,0-0.6-0.1-0.9-0.4c-0.3-0.3-0.4-0.6-0.4-1.1s0.1-0.9,0.4-1.1c0.3-0.3,0.6-0.4,1-0.4
			C169.2,137.2,169.5,137.3,169.6,137.3 M169.7,138.5c0-0.3,0-0.4-0.1-0.5c-0.1-0.3-0.4-0.4-0.6-0.4c-0.3,0-0.4,0.1-0.5,0.3
			c-0.1,0.1-0.3,0.4-0.3,0.6H169.7"/>
		<path d="M172.5,137.3c0.1,0,0.1,0.1,0.3,0.3v-1.4h0.5v3.9h-0.5v-0.4c-0.1,0.1-0.3,0.3-0.4,0.4c-0.1,0.1-0.4,0.1-0.5,0.1
			c-0.3,0-0.6-0.1-0.8-0.4c-0.1-0.3-0.4-0.6-0.4-1c0-0.4,0.1-0.8,0.3-1.1c0.3-0.3,0.5-0.5,0.9-0.5
			C172.1,137.2,172.4,137.3,172.5,137.3 M171.5,139.6c0.1,0.3,0.4,0.3,0.6,0.3c0.3,0,0.4-0.1,0.5-0.3c0.1-0.3,0.3-0.5,0.3-0.9
			c0-0.4-0.1-0.6-0.3-0.9c-0.1-0.1-0.4-0.3-0.5-0.3c-0.3,0-0.4,0.1-0.6,0.3c-0.1,0.3-0.3,0.5-0.3,0.9
			C171.3,139.1,171.4,139.3,171.5,139.6"/>
		<path d="M174,136.2h0.5v0.6H174V136.2 M174,137.3h0.5v2.9H174V137.3"/>
		<path d="M177.4,137.6c0.3,0.3,0.4,0.6,0.4,1.1c0,0.5-0.1,0.9-0.4,1.1s-0.6,0.5-1,0.5s-0.8-0.1-0.9-0.4c-0.1-0.3-0.4-0.6-0.4-1
			c0-0.5,0.1-0.9,0.4-1.1c0.3-0.3,0.6-0.4,1-0.4C176.9,137.2,177.2,137.3,177.4,137.6 M177.2,139.5c0.1-0.3,0.1-0.5,0.1-0.9
			c0-0.3,0-0.5-0.1-0.6c-0.1-0.3-0.4-0.4-0.8-0.4c-0.3,0-0.5,0.1-0.6,0.4c-0.1,0.3-0.3,0.5-0.3,0.9c0,0.3,0,0.6,0.3,0.8
			c0.1,0.3,0.4,0.3,0.6,0.3C176.8,139.8,177.1,139.7,177.2,139.5"/>
		<path d="M178.7,139.2c0,0.1,0,0.3,0.1,0.4c0.1,0.1,0.4,0.3,0.6,0.3c0.1,0,0.4,0,0.5-0.1c0.1-0.1,0.3-0.3,0.3-0.4s0-0.3-0.1-0.3
			s-0.3-0.1-0.4-0.1l-0.4-0.1c-0.3,0-0.4-0.1-0.5-0.3c-0.3-0.1-0.3-0.3-0.3-0.5c0-0.3,0.1-0.5,0.3-0.6c0.3-0.1,0.5-0.3,0.8-0.3
			c0.4,0,0.8,0.1,0.9,0.4c0.1,0.1,0.1,0.4,0.1,0.5h-0.5c0-0.1,0-0.3-0.1-0.3c-0.1-0.1-0.3-0.3-0.6-0.3c-0.1,0-0.3,0-0.4,0.1
			c-0.1,0.1-0.1,0.1-0.1,0.3c0,0.1,0,0.3,0.1,0.3c0.1,0,0.1,0.1,0.3,0.1l0.3,0.1c0.4,0.1,0.6,0.1,0.6,0.3c0.1,0.1,0.3,0.3,0.3,0.6
			c0,0.3-0.1,0.5-0.3,0.6c-0.1,0.3-0.5,0.3-0.9,0.3c-0.4,0-0.8-0.1-0.9-0.3c-0.1-0.3-0.3-0.4-0.3-0.8H178.7"/>
	</g>
</g>
</svg>
