<?xml version="1.0" encoding="utf-8"?>
<!-- Generator: Adobe Illustrator 28.0.0, SVG Export Plug-In . SVG Version: 6.00 Build 0)  -->
<svg version="1.1" id="Capa_1" xmlns="http://www.w3.org/2000/svg" xmlns:xlink="http://www.w3.org/1999/xlink" x="0px" y="0px"
	 viewBox="0 0 300 300" style="enable-background:new 0 0 300 300;" xml:space="preserve">
<style type="text/css">
	.st0{opacity:0.2;}
</style>
<path class="st0" d="M101.7,109.9c0.4-0.9,0.9-1.9,1.9-3.4c0.1,0,0.6-0.3,1,0.4h9.1c0.3,0,0.7-0.2,0.9-0.4c0.1-0.1,0.6-0.2,0.7,0.2
	s-1.3,3-1.4,3.5c-0.7,1.2-0.9-0.2-1.3-1.1s-2.2-0.7-2.3,0.1c-0.1,0.9,0,7.6,0.1,8.6c0,0.3,0.1,0.9,0.8,1.1c0.8,0.3,0.8,1.2-0.1,1.2
	h-4.7c-0.5,0-0.8-0.9-0.1-1.2c0.4-0.2,0.7-0.6,0.7-1.1c0.1-3,0-7.1-0.2-8.8c-0.2-0.9-1.4-0.7-2.3-0.1c-0.8,0.5-1.4,1.3-1.6,1.5
	C102.3,110.9,101,111.3,101.7,109.9z M116,110c0.1,1,0,7.7,0,8.4c0,0.6-0.7,0.7-0.8,1c-0.1,0.4,0,0.8,0.6,0.8h3.6
	c0.8,0,0.5-0.8-0.2-1.2c-0.2-0.1-0.4-0.5-0.4-0.9v-4c0.5-0.9,1.2-1,1.8-0.4c0.9,1,1.9,3.4,1.9,5.6c0,1.3,0.1,2.2-0.7,3.4
	c-0.3,0.3-1.2,1.3,0.4,0.8c2-1.1,2.1-2.7,2.3-4.4c0.3-2,0-3.9-0.9-5.6c-0.7-1.3-1.1-2-2.3-2.2c-0.9-0.1-1.5,0.6-2.5,1.1v-5
	c0-0.8-0.3-0.8-0.8-0.4c-0.4,0.3-1.4,0.8-2.7,1.7C114.7,109.7,115.9,109.5,116,110z M124.9,116.4c-0.2-2.6,1.6-5.4,5.5-4.9
	c2.6,0.3,3.3,3.1,3.4,3.4c-3,1.3-5.3,1.9-5.6,2c0,0.3,0.6,1.8,1.9,2.3c0.7,0.2,2,0.2,3.3-0.9c0.5-0.4,1.2-0.3,0.5,0.7
	c0,0-1.4,1.5-3.6,1.5C126.8,120.6,125.1,118.6,124.9,116.4L124.9,116.4z M127.9,115.6c1.2,0,2-0.6,3.1-1c-0.5-1.6-1.3-2.2-2.4-2
	S127.2,115.2,127.9,115.6z M204.4,116.7c0.6,0.3,1.9,0.3,2,1.3v20.3c0,1.4-2.1,1.4-2.1,2.3c0,0.8,0.1,1.4,1.1,1.4h7.3
	c0.6,0,1.3-0.7,1.1-1.3c-0.1-0.5-1.1-1-1.4-1.1c-0.6-0.2-0.8-1.2-0.9-1.7v-2.6c0-0.6,1.4-2.1,2.2-2.1c0.1,0,0.6,0.4,0.9,0.9
	c1.2,2.1,3.5,8,4.1,8h5.2c1.1,0,1.9-1.3,0.5-2.2c-0.3-0.2-1-0.5-1.5-1c-0.6-0.5-1-1.3-1.6-2.7l-2.9-5.7c-0.3-0.6-0.5-1.1-0.5-1.4
	c0.1-0.7,1.9-2.1,3.1-2.2c2-0.3,1.4-2.2,0-2.2h-5.8c-2.1,0-1.3,1.6-1.3,1.4c0.1,0.2,1.4,0.5,1.4,1.1c0,0.7-0.7,1.6-1.1,2
	c-0.5,0.5-0.8,1.1-1.6,1.7c-0.3,0.3-0.6,0-0.6-0.2c-0.1-8,0.1-16.2,0.1-18.3c0-1.6-1.3-0.8-2-0.4l-5.5,3
	C203.7,115.4,203.9,116.4,204.4,116.7z M133,124.5c-1.4,0-4,0.3-5.1,3c-0.6,1.5-0.1,3.1,0,3.6c1.1,2.8,5.3,3.4,7.4,4.2
	c2.8,1,3.9,1.3,3.7,2.6c-0.1,1.1-1.5,2.3-5.7,1.4c-1.7-0.3-3.8-1.8-5.1-3.2c-0.5-0.5-1.4-0.1-1.1,1s2.9,5.3,3.1,5.7
	c0.3,0.5,1.1,0.7,1.3,0.1c0.3-0.5,0.4-1,1.1-1.1s2.1,0.1,3.9,0.4c2.4,0.2,4.7-0.1,6.2-1.2s2.1-3.1,1.9-4.8c-0.4-2.9-2.6-4.3-5.9-5.1
	c-2.2-0.6-4.5-1.1-5.3-1.7s-1-1.4-0.3-2.2c0.9-1,3.1-0.6,4.1-0.3c1.4,0.3,2.7,1,4.3,2.3c0.9,0.8,1.4,0.7,1.6,0.5
	c0.7-0.6-0.6-1.8-1.5-3.4c-1.1-2-1.4-2.6-2.1-2.4c-0.6,0.2-1.2,1.2-1.7,1.2C136.6,125,136,124.5,133,124.5z M173.3,142.6
	c6.4-0.3,7.8-3.7,8.4-4.8c0.4-0.7-0.9-1.7-1.7-0.6c-2,2.7-4.7,3.1-6.3,2.5c-2.7-0.8-3.7-3-4.1-6.3c-0.3-3,0.7-6.8,3.9-6.7
	c3.5,0.1,3.6,4.1,4.1,4.8c0.4,0.8,1.1,0.8,1.6-0.2c0.4-1,0.9-2.3,1.5-3.4c0.6-1,0-1.5-0.7-1.9c-1.6-0.9-3.3-1.5-6.3-1.5
	c-4,0-9.7,2.4-9.8,9.1C163.7,140.4,169.2,142.5,173.3,142.6L173.3,142.6z M97.2,135.8c0.4,1.2,1.9,3,3.6,3.5c2.5,0.7,5-0.6,6.6-1.8
	c0.8-0.7,1.7,0,1.1,1.2c-0.5,0.9-3.1,3.3-7.9,3.5c-7.1,0.3-10.4-5.3-9.8-10.2c0.5-3.5,3.5-7.2,7.7-7.6c4.2-0.3,5.7,0.8,6.9,1.8
	c1.4,1.2,3.1,4.3,2.5,5c-0.7,0.7-7.3,2.3-9.8,3.4C97.6,134.9,97,135.1,97.2,135.8L97.2,135.8z M102.2,131.1c0.4-0.7-0.9-4.8-4-4.4
	c-1.1,0.1-1.9,1.1-2.3,2.3c-0.4,1.7,0,3.9,0.6,4.2C97.1,133.4,101.9,131.7,102.2,131.1L102.2,131.1z M182.5,137.1c0.3-2.7,1.6-4,4-5
	c1.5-0.7,4.6-0.9,5.8-0.9c0.5,0,0.1-0.9,0.1-1.1c-0.7-3-3.1-3.2-5-2.5c-1.1,0.4-2.2,1.2-2.5,1.4c-0.9,0.4-1.6-0.6-0.9-1.5
	c2.5-3,4.6-3.1,7-3.1c1.4,0,4.6,0.3,6,3.9c1.4,3.5,2.9,8.7,3.5,9.8s1.6,1.6,2.2,1.1c0.5-0.5,0.9,0.2,0.9,0.9c0,0.8-0.6,1.8-2.3,2.2
	c-1.6,0.4-3.8-0.2-4.4-0.7c-0.5-0.4-0.8-1.1-1.2-1.1c-1.2,0.1-2.4,1.8-6.2,2C184.5,142.7,182.1,139.7,182.5,137.1L182.5,137.1z
	 M188,137.1c0.5,1.6,1.5,3.1,4.5,2.5s1.5-4.1,1.2-4.8s-0.6-1.1-1.3-1.2c-0.7,0-1.7-0.1-2.7,0.3C188.7,134.2,187.6,135.6,188,137.1z
	 M132.9,166.8c-0.4-1.2-0.9-2.8-1.1-3.8c-0.7-3.1-1.1-5-4-2.4c0,0-0.2,0.3-0.5,0.3s-6.4,0.1-6.8-0.2c-0.4-0.4-0.3-3.7-0.2-5.3
	s-0.9-4,4.6-4.3c3.7-0.2,8.4-0.6,12.3-0.2c3.6,0.3,6.5,0.9,8.4,1.8c2,0.9,3.3,0.1,3.9-0.2c0.2-0.1,1-0.9,0.7-2.1
	c-0.2-1.2-0.3-2.7-1.4-3.8c-0.9-0.9-3.3-1.1-4.9-1.3c-5.2-0.7-13.9,0.2-21,1.4c2.2-0.3-10,2.3-15,1.6c-2.5-0.3-4.1-0.7-5.2-1
	c-0.2-0.4-0.7-0.6-1.1-0.4c-0.5-0.3-0.8-0.5-0.9-0.7s-0.8-1.4-2.1-1.4c-2.1,0.1-4,1.7-3.3,4.8c0.2,0.8,0.6,1.5,1.2,2.1
	c-2.1,1.6-4.8,3.1-8.5,3.6c-6.5,1-12.8-2.2-16.1-6.2c-4.5-5.6-4.9-12.3-5.1-14.9c-0.1-13.9,6.6-22.9,14.7-23.1
	c3.4-0.1,6.4,1.2,8.9,3c5.8,4.2,6.2,9,8.4,9.9c1,0.4,3.2-0.1,3.2-1.4c0-3-1.9-5.4-3.8-9.7c-1.5-3.4-2.7-6.6-3.3-7.1
	c-0.2-0.1-1.3-0.1-1.5,0c-0.4,0.3-1,1.1-1.7,1.8c-0.7,0.6-0.6,1-1.1,1.1s-1.2-0.1-1.9-0.3c-2.3-0.7-4.8-1.2-7.4-1.2
	c-6.4,0-14.4,2.8-20.1,12.4c-2.4,4.1-3.4,7.1-3.9,12c-0.3,3.9,0,8.6,1.5,12.4c2.7,7.2,9.8,15.4,20.3,16.3c4.5,0.4,10.7-0.4,14.2-2.3
	c2.4-1.4,4.5-3.3,6-5c1.1,0.2,2.4,0.3,3.9,0.2c1.3-0.1,3.7,0,5.3-0.4c2.1-0.4,3.4-0.6,4-0.2c0.4,0.2,0.5,1.4,0.5,3.2
	c0.1,7.5,0,27.4-0.2,29.8c-0.1,1.3-1.5,4-2.8,6.6c-0.8,1.6,0.7,3.4,2.2,2.3c1.1-0.8,6.4-4.7,9.1-6.3c0.9-0.5,1.1-1.8,0.2-2.6
	s-1.3-1.7-1.3-3.7v-14.2c0-1.2,0-1.4,0.9-1.5c0.9,0,6.3-0.1,7,0c0.7,0.1,1.8,1.1,2.8,1.8C131.8,168.2,133.3,168,132.9,166.8
	L132.9,166.8z M182.2,175.6c-0.9,0.5-1.9,1.3-2.9,1.1c-0.9-0.2-1.2-1-1.3-2.1s-0.1-7.9-0.1-8.5s0-1,0.5-1.1h4.8c0.2,0,0.6-2,0.6-2.2
	s0-0.5-0.5-0.5c-0.4,0-4.2,0.1-5.3-0.2c-0.3-2.4-0.1-4.9-0.1-5.7c0-0.7-0.6-1.1-1.3-0.5c-0.8,0.8-2.7,3.8-6.2,7.3
	c-0.7,0.7-0.8,1.9,0.5,1.9h1.5c0.3,0,0.6,0.1,0.6,0.4c0,0.1,0.1,3.5,0.1,5.8c0,3.9-0.6,4.6-0.3,5.5c0.5,1.9,2.7,2.8,5,2.9
	c2.6,0,4.8-1.1,5.7-2C184.6,176.3,183.9,174.6,182.2,175.6L182.2,175.6z M239.6,164.1c0.4-0.2,0.7-1.7-0.3-1.9
	c-1.1-0.1-7.1-0.2-7.8,0.1c-0.8,0.3-0.5,1.5,0.3,1.9c0.4,0.2,1.1,0.4,1.2,0.9c0.2,0.4,0.1,1.3-0.2,2.1c-1,3.1-2.6,5.8-2.7,5.9
	c-0.1,0-1-1.7-1.9-3.6c-0.8-1.8-1.5-3.6-1.5-3.9c-0.1-0.7,0.4-1.3,1.1-1.4c0.8-0.1,0.8-1.8-0.4-1.9H224c-1.6,0.1-3.6-0.1-4.3,0
	c-0.9,0.1-1.2,1.7,0,2.2c1.3,0.6,1.6,1.4,1.8,1.9l5.3,11.8l0.1,0.3c-4.6,6.2-7.7,8.5-10.5,9.6c-1.7,0.7-3.3,0.5-4.4,0
	c-1.5-0.6-1.7-2.9-1.5-3.3c0.5-1.1-1.1-1.8-2.8-1.3c-1.7,0.4-3.3,2.3-2.2,4.7c1.2,2.9,5,4.3,9.8,3.3c4.2-1,8.5-3.4,12.5-7.9
	c3-3.2,4.5-5.7,6.4-9c2.1-3.7,3.5-8.2,3.7-8.7C238.3,165.1,239.2,164.3,239.6,164.1L239.6,164.1z M211.5,177.5
	c-1-0.5-1.6-0.9-1.7-1.7c-0.4-2.6-0.2-4.9,0.1-6.5c0.1-0.7,0.8-1.8,1.8-2.2c0.7-0.3,1.5-0.4,2.5,0.7c0,0,0.5,0.8,0.8,1.1
	s1.3,0.1,1.4-0.8c0.4-1.4,0.8-2.8,1.3-4.2c0.4-1.1,0.5-2.2-2.4-1.9c-3.1,0.3-4.3,2.3-5,3.2c-0.4,0.5-0.7,0.3-0.7,0.1v-2.2
	c-0.1-2-1.8-0.8-3.4,0.2c-1.4,0.8-3.4,2-3.6,2.3c-0.3,0.2-0.3,1.1,0.4,1.4c0.5,0.2,1,0,1.4,0.4c0.2,0.2,0.3,0.9,0.3,1.6
	c0,1.8,0.1,6-0.1,6.9s-1.3,0.8-2.1,1.5c-0.7,0.7-0.3,1.9,0.7,1.9h7.5C212,179.6,212.3,178,211.5,177.5z M198,179
	c-7.6,2-14.6-0.9-14.6-8.1c-0.1-4.8,3.1-8.8,8.3-9.2c3.9-0.3,7.2,1.4,9.2,3.8C204.6,170,204.5,177,198,179z M196.6,168.3
	c-1.1-2.6-3.3-5.1-5.9-4.5c-2.1,0.5-3.1,3.5-1.2,8.4c1.2,3.2,3.6,6.2,6.8,4.7C198.1,176,198.4,172.6,196.6,168.3L196.6,168.3z
	 M80.3,151.5c-0.9,0.6-0.1,1.4,0.6,1.2c1.9-0.6,3.3-1.8,4.5-3.1c0.6-0.7,2.8-2.9,4-6.6c1.2-3.6,0.9-6.1,0.9-7.6
	c0-4.1-2.7-10.5-6.5-10.7c-1.1,0-2.9,0.4-3.9,1.7c-0.2,0.3-0.8,0.3-0.8,0v-10.3c0-0.5-0.8-0.4-1.1-0.2l-5.7,3.7
	c-0.4,0.3-0.5,1.1,0,1.4c0.5,0.2,1.8,0.6,1.8,1.2c0-0.6,0.1,12.8-0.1,16c-0.1,1.5-1.4,1.8-1.9,2.2c-0.5,0.3-0.1,1.7,0.7,1.7l7.3,0.1
	c0.6,0,1.5-0.8,1-1.7c-0.4-0.6-1.4-0.6-1.8-1.9c-0.5-1.6-0.2-6.7,0-8.3c0.1-0.8,0.4-1.2,1.1-1.6c0.7-0.3,1.2-0.2,1.6,0.1
	c0.7,0.5,1.2,1.8,1.5,2.3c0.7,1.6,1.7,5.5,1.7,8.5C85.2,148.5,81.2,150.9,80.3,151.5L80.3,151.5z M145.6,132.3
	c0.5-3.5,3.5-7.2,7.7-7.6c4.2-0.3,5.7,0.8,6.9,1.8c1.4,1.2,3.1,4.3,2.5,5s-7.2,2.3-9.8,3.4c-0.5,0.2-1.1,0.3-0.9,1
	c0.4,1.2,1.9,3,3.6,3.5c2.5,0.7,5-0.6,6.6-1.9c0.8-0.7,1.7,0,1.1,1.2c-0.5,0.9-3.1,3.3-7.9,3.5C148.2,142.7,144.9,137.1,145.6,132.3
	L145.6,132.3z M151.3,133.4c0.5,0.2,5.4-1.5,5.7-2.1c0.4-0.7-0.9-4.8-4-4.5c-1.1,0.1-2,1.1-2.3,2.3
	C150.4,130.9,150.8,133.1,151.3,133.4z M222.6,132.3c0.5-3.5,3.5-7.2,7.7-7.6c4.1-0.3,5.7,0.8,6.9,1.8c1.4,1.2,3.1,4.3,2.5,5
	c-0.7,0.7-7.2,2.3-9.8,3.4c-0.5,0.2-1.1,0.3-0.9,1c0.4,1.2,1.9,3,3.6,3.5c2.5,0.7,5-0.6,6.6-1.9c0.8-0.7,2.1-0.3,1.3,1
	c-0.5,0.9-3.3,3.6-8.2,3.7C225.3,142.6,222,137.1,222.6,132.3L222.6,132.3z M228.5,133.4c0.5,0.2,5.4-1.5,5.7-2.1
	c0.4-0.7-0.9-4.8-4-4.5c-1.1,0.1-2,1.1-2.3,2.3C227.5,130.9,228,133.1,228.5,133.4z M153.1,177.3c0,0.8-0.6,1.9-2.3,2.3
	c-1.6,0.4-4-0.1-4.5-0.9c-0.4-0.5-0.7-1.1-1.1-1.1c-1.2,0.1-2.4,1.8-6.2,2c-4.8,0.3-7.2-2.7-6.8-5.3c0.3-2.7,1.6-4,4-5
	c1.5-0.7,4.6-0.9,5.8-0.9c0.5,0,0.1-0.9,0.1-1.1c-0.7-3-3.1-3.2-5-2.5c-1.1,0.4-2.2,1.2-2.5,1.4c-0.9,0.4-1.6-0.6-0.8-1.5
	c2.5-3,4.6-3.1,7-3.1c1.4,0,4.6,0.3,6,3.9c1.4,3.5,2.9,8.7,3.5,9.8s1.6,1.6,2.2,1.1C152.7,176,153.1,176.6,153.1,177.3L153.1,177.3z
	 M143.3,171.9c-0.3-0.7-0.6-1.1-1.3-1.2c-0.7,0-1.7-0.1-2.7,0.3s-2.1,1.8-1.7,3.3c0.5,1.6,1.5,3.1,4.5,2.5
	C145,176.2,143.6,172.6,143.3,171.9L143.3,171.9z M168.3,174.5c-2,2.7-4.6,3-6.3,2.5c-2.7-0.8-3.7-2.9-4.1-6.3
	c-0.3-3,0.7-6.8,3.9-6.8c3.5,0.1,3.6,4.1,4.1,4.9c0.4,0.8,1.1,0.7,1.6-0.2c0.4-1,0.9-2.3,1.5-3.4c0.6-1,0-1.5-0.7-1.9
	c-1.6-0.9-3.3-1.5-6.3-1.5c-4,0-9.7,2.4-9.8,9.2s5.3,8.9,9.5,9c6.4-0.3,7.8-3.7,8.4-4.8C170.4,174.4,169.2,173.3,168.3,174.5
	L168.3,174.5z M115.3,136c0.4,1.2,1.9,3,3.6,3.5c2.5,0.8,5-0.6,6.6-1.9c0.8-0.7,1.7,0,1.1,1.2c-0.5,0.9-3.1,3.3-7.9,3.5
	c-7.1,0.3-10.4-5.3-9.8-10.2c0.5-3.5,3.5-7.2,7.7-7.5s5.7,0.8,6.9,1.8c1.4,1.2,3.2,4.3,2.5,5s-7.3,2.3-9.8,3.4
	C115.7,135.1,115.1,135.3,115.3,136L115.3,136z M120.3,131.3c0.4-0.7-0.9-4.8-4-4.5c-1.1,0.1-1.9,1.1-2.3,2.3
	c-0.4,1.7,0,3.9,0.6,4.2S120,131.9,120.3,131.3z M242.7,176.8c0,1.3-1.1,2.3-2.3,2.3c-1.2,0-2.3-1-2.3-2.2c0,0,0-0.1,0-0.1
	c0-1.3,1.1-2.3,2.3-2.3S242.7,175.5,242.7,176.8z M242.2,176.8c0-1.1-0.8-1.9-1.9-1.9s-1.9,0.8-1.9,1.9s0.9,2,1.9,2
	C241.4,178.8,242.2,178,242.2,176.8z M240.7,177l0.8,1.2H241l-0.7-1.1h-0.5v1.1h-0.4v-2.7h1c0.6,0,1,0.2,1,0.8
	C241.4,176.7,241.1,176.9,240.7,177L240.7,177z M240.3,176.7c0.3,0,0.7,0,0.7-0.4c0-0.3-0.3-0.4-0.6-0.4h-0.6v0.8L240.3,176.7z"/>
</svg>
