<?xml version="1.0" encoding="utf-8"?>
<!-- Generator: Adobe Illustrator 28.0.0, SVG Export Plug-In . SVG Version: 6.00 Build 0)  -->
<svg version="1.1" id="Capa_1" xmlns:v="https://vecta.io/nano"
	 xmlns="http://www.w3.org/2000/svg" xmlns:xlink="http://www.w3.org/1999/xlink" x="0px" y="0px" viewBox="0 0 300 300"
	 style="enable-background:new 0 0 300 300;" xml:space="preserve">
<style type="text/css">
	.st0{opacity:0.2;}
	.st1{fill-rule:evenodd;clip-rule:evenodd;}
</style>
<g class="st0">
	<polygon class="st1" points="83,133.5 94.8,133.5 94.8,133.8 92,133.8 100.7,157.8 108.2,133.8 105.2,133.8 105.2,133.5 
		111.6,133.5 111.6,133.8 108.8,133.8 98.3,167.1 86.1,133.8 83,133.8 	"/>
	<path class="st1" d="M162.5,132.8v11.6h-0.2c-0.5-2.3-1.2-4.5-2.4-6.5c-1.5-2.3-3.8-5-6.8-5c-6.9,0-7.5,12.4-7.5,17.2
		c0,4.3,0.3,8.6,1.9,12.6c1.1,2.8,2.6,4.2,5.5,4.2c2.3,0,4.7-1.2,6-3.2c0.3-0.5,0.3-1.1,0.3-1.7V153h-3v-0.4h11.1v0.4h-2.6v13.4
		h-0.2c-0.6-1.1-1.7-1.8-3-1.8c-0.9,0-1.9,0.3-2.7,0.8l-0.8,0.4c-1.7,0.8-3.3,1.3-5.2,1.3c-8.6,0-13.2-9.2-13.2-16.8
		c0-5.6,2.1-11.5,6.6-15c2-1.6,4.5-2.7,7.1-2.7c1,0,2,0.3,3,0.7l0.7,0.2c0.8,0.3,1.6,0.5,2.5,0.5c1.1,0,2-0.7,2.8-1.3L162.5,132.8
		L162.5,132.8z"/>
	<path class="st1" d="M165.8,133.5h11.8v0.3h-3.1v25.7c0,4,4.1,6.4,7.8,6.4c3.9,0,7.2-2.7,7.2-6.7v-25.5h-3.8v-0.3h30.5v11.9H216
		c-0.4-3.2-0.9-6.4-3.1-8.9c-2.2-2.5-5.2-2.7-8.2-2.7h-3.3v15.3c0.7,0.1,1.4,0.2,2.1,0.2c4.2,0,5.2-2.9,5.4-6.4h0.3v13.4h-0.3
		c-0.5-3.2-1.9-6.7-5.7-6.7c-0.6,0-1.2,0-1.8,0.1V166h5c2.6,0,5.1-1.1,6.9-2.9c1.6-1.6,2.6-3.5,3-5.7c0.2-1.2,0.3-2.4,0.4-3.7h0.2
		v12.6H193v-0.3h2.8v-32.3h-5.9v25.6c0,5.3-5,7.6-9.7,7.6c-5.4,0-11.2-2.6-11.2-8.7v-24.5h-3.3L165.8,133.5L165.8,133.5L165.8,133.5
		z"/>
	<path class="st1" d="M132.5,137.9c-2.4-3-6.1-5.2-10-5.2c-4.2,0-8,2.3-10.6,5.6c-2.6,3.3-3.8,7.5-3.8,11.7c0,4.4,1.3,8.8,4.1,12.2
		c2.4,3,6.1,5.2,10.1,5.2c4.2,0,7.9-2.4,10.5-5.6c2.6-3.3,3.8-7.5,3.8-11.7C136.6,145.7,135.3,141.3,132.5,137.9z M122.4,166.9
		c-6.5,0-8.2-12-8.2-16.9s1.7-16.9,8.2-16.9s8.2,12,8.2,16.9S128.9,166.9,122.4,166.9z"/>
</g>
</svg>
