<?xml version="1.0" encoding="utf-8"?>
<!-- Generator: Adobe Illustrator 28.0.0, SVG Export Plug-In . SVG Version: 6.00 Build 0)  -->
<svg version="1.1" id="Capa_1" xmlns:v="https://vecta.io/nano"
	 xmlns="http://www.w3.org/2000/svg" xmlns:xlink="http://www.w3.org/1999/xlink" x="0px" y="0px" viewBox="0 0 300 300"
	 style="enable-background:new 0 0 300 300;" xml:space="preserve">
<style type="text/css">
	.st0{opacity:0.2;}
</style>
<g class="st0">
	<path d="M180.3,119.7c-7.2-7.2-17.6-8-30.3-8c-12.7,0-23.1,0.8-30.3,8.1c-7.2,7.2-7.9,17.6-7.9,30.3c0,12.7,0.8,23.1,7.9,30.3
		c7.2,7.2,17.6,7.9,30.3,7.9c12.7,0,23.1-0.8,30.3-7.9s7.9-17.6,7.9-30.3C188.3,137.3,187.5,127,180.3,119.7z M147.2,164.2
		c0,0.2-0.2,0.5-0.5,0.5h-6.5c-0.2,0-0.5-0.2-0.5-0.5v-17c0-0.2,0.2-0.5,0.5-0.5h6.5c0.2,0,0.5,0.2,0.5,0.5V164.2z M159.9,164.2
		c0,0.2-0.2,0.5-0.5,0.5h-6.2c-0.2,0-0.5-0.2-0.5-0.5v-0.1v-14.6c0-2.5-0.2-5.2-1.5-6.5c-1.2-1.2-3.3-1.4-5.5-1.5h-11.2
		c-0.2,0-0.5,0.2-0.5,0.5v20.7v1.5c0,0.2-0.2,0.5-0.5,0.5h-6.2c-0.2,0-0.5-0.2-0.5-0.5v-28.3c0-0.2,0.2-0.5,0.5-0.5h17.9
		c4.7,0,9.6,0.2,12,2.6s2.6,7.3,2.6,12L159.9,164.2L159.9,164.2z M172.8,164.2c0,0.2-0.2,0.5-0.5,0.5h-6.2c-0.2,0-0.5-0.2-0.5-0.5
		v-28.3c0-0.2,0.2-0.5,0.5-0.5h6.2c0.2,0,0.5,0.2,0.5,0.5V164.2z"/>
</g>
</svg>
