<svg width="32" height="32" xmlns="http://www.w3.org/2000/svg">

 <g>
  <title>background</title>
  <rect fill="none" id="canvas_background" height="402" width="582" y="-1" x="-1"/>
 </g>
 <g>
  <title>Layer 1</title>
  <path id="svg_1" fill-rule="evenodd" fill="#fff" d="m16,0c-8.837,0 -16,7.163 -16,16c0,8.836 7.163,16 16,16c8.836,0 16,-7.163 16,-16c0,-8.837 -7.164,-16 -16,-16zm0,30c-7.732,0 -14,-6.268 -14,-14c0,-7.732 6.268,-14 14,-14s14,6.268 14,14c0,7.732 -6.268,14 -14,14z" clip-rule="evenodd"/>
  <path id="svg_2" fill-rule="evenodd" fill="#fff" d="m22.729,21.271l-5.268,-5.268999l5.237999,-5.195001c0.395,-0.391 0.395,-1.024 0,-1.414001c-0.393999,-0.389999 -1.033998,-0.389999 -1.427999,0l-5.230999,5.188001l-5.309001,-5.31c-0.394,-0.396 -1.034,-0.396 -1.427999,0c-0.394,0.395 -0.394,1.037 0,1.432l5.301,5.301999l-5.331,5.287001c-0.394,0.391001 -0.394,1.024 0,1.414c0.394,0.391001 1.034,0.391001 1.429,0l5.323999,-5.279999l5.276001,5.275999c0.393999,0.396 1.034,0.396 1.427999,0c0.393,-0.393999 0.393,-1.035 -0.000999,-1.431z" clip-rule="evenodd"/>
 </g>
</svg>