<?xml version="1.0" encoding="UTF-8"?>
<svg id="Capa_1" xmlns="http://www.w3.org/2000/svg" version="1.1" viewBox="0 0 34.9 52.3">
  <!-- Generator: Adobe Illustrator 29.1.0, SVG Export Plug-In . SVG Version: 2.1.0 Build 142)  -->
  <defs>
    <style>
      .st0 {
        fill: #fff;
      }
    </style>
  </defs>
  <path class="st0" d="M10.7,36.2v-1h24.2v1H10.7Z"/>
  <g>
    <path class="st0" d="M22.8,3.2l-2.2,5.6h-.4l-2.4-7.5-.5-.6h0c0,0,2.3,0,2.3,0h0c0,0-.6.7-.6.7l1.7,5.6,1.7-4.5-.4-1.1-.5-.6h0c0,0,2.3,0,2.3,0h0c0,0-.6.7-.6.7l1.8,5.6,1.5-5.4-.9-.8h0c0,0,2,0,2,0h0c0,0-.5.9-.5.9l-2.2,7.3h-.5l-1.9-5.6Z"/>
    <path class="st0" d="M30.3,9c-.8,0-1.4-.3-2-.8-.5-.6-.8-1.3-.8-2.1s.3-1.7.8-2.3,1.2-.9,2-.9,1.1.2,1.6.7c.4.4.7,1.1.8,1.9h-4.3c0,.9.2,1.5.6,2,.4.5.9.7,1.6.7s1.5-.5,2-1.4h0c-.1.7-.4,1.3-.9,1.6-.4.4-1,.6-1.7.6ZM30.1,3.2c-.4,0-.8.2-1.1.5-.3.3-.5.8-.5,1.4h3.2c-.1-.6-.3-1.1-.6-1.4-.2-.3-.6-.4-1-.4Z"/>
    <path class="st0" d="M13.2,12.4l-2.8,5.3h0l-2.9-5v5.3l.9.8h0c0,0-2.1,0-2.1,0h0c0,0,.6-.9.6-.9v-6.2l-.6-1.1h0c0,0,1.4,0,1.4,0l3.1,5.3,2.8-5.3h1.5c0,0-.6.7-.6.7v6.9l.6.6h0c0,0-2.4,0-2.4,0h0c0,0,.6-.7.6-.7v-5.8Z"/>
    <path class="st0" d="M20.3,19c-.2,0-.4,0-.6-.3-.2-.2-.2-.4-.3-.7h0c-.6.6-1.2,1-1.9,1s-.7-.1-1-.4c-.3-.3-.4-.6-.4-1s.2-.8.5-1.1c.3-.3.8-.6,1.5-.8l1.3-.5v-.8c0-.3,0-.5-.3-.7-.2-.2-.5-.2-.8-.2s-.7.1-1,.3c-.3.2-.6.5-.7.8h0c0-.6.3-1,.7-1.4.4-.3.9-.5,1.5-.5s.9.1,1.3.4c.3.2.5.6.5,1v4l.7.2h0c0,.2-.2.4-.3.5s-.3.2-.5.2ZM17.1,17.3c0,.3,0,.5.3.7.2.2.5.3.8.3.5,0,.9-.2,1.2-.6v-2.1l-1,.4c-.8.3-1.2.7-1.2,1.3Z"/>
    <path class="st0" d="M23.9,18.8h0s-2.2,0-2.2,0h0s.6-.5.6-.5v-7.4l-.7-.5h0s1.7-.6,1.7-.6h.1v6l2.3-2.2-.6-.7h0c0,0,1.8,0,1.8,0h0c0,0-2.2,2.1-2.2,2.1l2.7,3.7h0c0,0-2.1,0-2.1,0h0c0,0,.4-.5.4-.5l-1.8-2.6-.6.6v2l.6.5Z"/>
    <path class="st0" d="M30.3,19c-.8,0-1.4-.3-2-.8-.5-.6-.8-1.3-.8-2.1s.3-1.7.8-2.3,1.2-.9,2-.9,1.1.2,1.6.7c.4.4.7,1.1.8,1.9h-4.3c0,.9.2,1.5.6,2,.4.5.9.7,1.6.7s1.5-.5,2-1.4h0c-.1.7-.4,1.3-.9,1.6-.4.4-1,.6-1.7.6ZM30.1,13.2c-.4,0-.8.2-1.1.5-.3.3-.5.8-.5,1.4h3.2c-.1-.6-.3-1.1-.6-1.4-.2-.3-.6-.4-1-.4Z"/>
    <path class="st0" d="M10.1,29.3c-1.1,0-2.1-.4-2.8-1.1-.7-.7-1.1-1.7-1.1-2.9s.4-2.4,1.3-3.3c.9-.9,2-1.3,3.3-1.3s1.5.1,2.1.4v1.3h0l-1.7-1.2c-.1,0-.4,0-.7,0-.9,0-1.6.3-2.2,1s-.9,1.6-.9,2.6.3,2,.9,2.8c.6.8,1.4,1.1,2.3,1.1s.8,0,1.2-.3v-3.6l-.5-.5h0c0,0,2.2,0,2.2,0h0c0,0-.5.6-.5.6v4.3h0l-.9-.5c-.6.3-1.3.5-2.1.5Z"/>
    <path class="st0" d="M17.2,29.3c-.8,0-1.4-.3-1.9-.8-.5-.6-.7-1.3-.7-2.2s.3-1.7.8-2.3,1.2-.9,2-.9,1.4.3,1.9.8c.5.6.8,1.3.8,2.2s-.3,1.7-.8,2.3c-.5.6-1.2.9-2,.9ZM17.4,28.9c.5,0,.8-.2,1.1-.6.3-.4.4-1,.4-1.8s-.2-1.6-.5-2.2c-.3-.6-.7-.8-1.3-.8s-.8.2-1.1.6c-.3.4-.4,1-.4,1.8s.2,1.6.5,2.2c.3.5.7.8,1.3.8Z"/>
    <path class="st0" d="M23.4,29.3c-.8,0-1.4-.3-1.9-.8-.5-.6-.7-1.3-.7-2.2s.3-1.7.8-2.3,1.2-.9,2-.9,1.4.3,1.9.8c.5.6.8,1.3.8,2.2s-.3,1.7-.8,2.3c-.5.6-1.2.9-2,.9ZM23.6,28.9c.5,0,.8-.2,1.1-.6.3-.4.4-1,.4-1.8s-.2-1.6-.5-2.2c-.3-.6-.7-.8-1.3-.8s-.8.2-1.1.6c-.3.4-.4,1-.4,1.8s.2,1.6.5,2.2c.3.5.7.8,1.3.8Z"/>
    <path class="st0" d="M26.9,26.5c0-1,.3-1.8.9-2.4.6-.7,1.3-1,2.2-1s.8,0,1.1.2v-2.1l-.7-.5h0s1.7-.6,1.7-.6h.1v8.1l.6.5h0c0,0-1.6.5-1.6.5v-.9h-.2c-.3.4-.6.6-.8.7-.2.1-.5.2-.8.2-.7,0-1.3-.3-1.7-.8-.5-.5-.7-1.2-.7-2ZM27.9,25.9c0,.8.2,1.4.6,1.9.4.5.8.7,1.4.7s.9-.2,1.1-.6v-4.1c-.3-.2-.7-.3-1.1-.3s-1.1.2-1.4.6c-.4.4-.5,1-.5,1.8Z"/>
    <path class="st0" d="M13.1,36.6h.3c0,.2,0,.3,0,.3,0,.7.2,1.3.6,1.7.4.4.9.6,1.4.6s1-.2,1.3-.6c.3-.4.5-.8.5-1.3s0-.4,0-.5c0-.3-.2-.6-.4-.8l-.9-.9c-.7-.7-1.1-1.3-1.3-1.6-.2-.3-.3-.7-.3-1,0-.6.2-1.1.6-1.6.4-.5,1-.7,1.9-.7s.7,0,1.1.2c.4.1.6.2.7.2.1,0,.3,0,.4-.1,0,0,.2-.2.2-.3h.3l-.6,2.8h-.2c0-.7-.1-1.2-.2-1.5-.3-.5-.8-.8-1.5-.8s-.8.1-1.1.4c-.3.3-.4.6-.4,1s0,.6.2.8c.1.2.4.5.7.9l1.3,1.3c.2.2.4.5.6.8s.2.7.2,1.1c0,.7-.3,1.4-.8,1.9-.5.6-1.2.8-2,.8s-.9,0-1.3-.3-.7-.3-.8-.3c-.2,0-.3,0-.4.1s-.1.2-.2.3h-.2l.5-3.1Z"/>
    <path class="st0" d="M20.7,30.4c.3,0,.5,0,.7,0,.2,0,.3,0,.5,0,.5-.1.8-.2.9-.2,0,0,0,0,0,0,0,0,0,0,0,.1l-1.7,6c.6-.8,1-1.5,1.4-1.8.6-.7,1.2-1,1.7-1s.4,0,.6.2c.2.1.3.4.3.7s0,.2,0,.3c0,.1,0,.3,0,.4l-.9,3.2c0,0,0,.2,0,.3,0,0,0,.2,0,.2s0,.1,0,.2c0,0,0,0,.2,0,.1,0,.3,0,.5-.3.1-.1.3-.4.7-.8l.2.2c-.3.5-.6.8-.8,1-.4.4-.8.6-1.2.6s-.3,0-.5-.2c-.1-.1-.2-.3-.2-.5s0-.1,0-.2c0,0,0-.1,0-.2l1-4s0,0,0-.1,0,0,0-.1c0-.1,0-.2-.1-.3,0,0-.2,0-.3,0-.3,0-.7.2-1.1.7-.5.5-.8,1-1.2,1.5-.2.4-.4.7-.5,1-.1.3-.3,1-.6,2.2h-1.1l2.3-8.2c0,0,0-.1,0-.1,0,0,0,0,0-.1,0-.2,0-.3-.2-.3-.1,0-.4,0-.7,0v-.2Z"/>
    <path class="st0" d="M28.8,33.3s0,0,0,0l-1.4,4.8c0,.3,0,.4,0,.5s0,.1,0,.2c0,0,0,0,.2,0,.2,0,.4-.1.6-.4.1-.2.3-.4.5-.7h.2c0,.1,0,.2,0,.2-.3.5-.6.8-.8,1-.3.3-.7.5-1,.5s-.4,0-.5-.2c-.1-.2-.2-.4-.2-.6s0-.2,0-.3c0,0,0-.2.1-.4l1-3.5c0,0,0-.1,0-.1,0,0,0,0,0-.1,0-.2,0-.3-.2-.3s-.4,0-.7,0v-.2c.4,0,.6,0,.8-.1.2,0,.3,0,.5,0,.2,0,.4,0,.6-.1.2,0,.3,0,.3,0ZM28.2,31.6c-.1-.1-.2-.3-.2-.5s0-.4.2-.5.3-.2.5-.2.3,0,.5.2c.1.1.2.3.2.5s0,.4-.2.5c-.1.1-.3.2-.5.2s-.3,0-.5-.2Z"/>
    <path class="st0" d="M29.8,38.9s0,0,0-.1l1.3-4.7h-1c0-.1,0-.2,0-.2,0,0,0,0,.1,0,.5-.2.8-.4,1.1-.6.3-.2.6-.5,1-1h.1c0-.1,0-.2,0-.2,0,0,0,0,0,0,0,0,0,0,0,0,0,0,0,0,0,0,0,0,0,0,0,0l-.4,1.5h1.1v.5h-1.2l-1.2,4.5c0,0,0,.2,0,.2,0,0,0,.1.2.1s.3-.1.5-.4c.1-.1.3-.4.6-.8h.2c0,.1,0,.2,0,.2-.4.6-.7,1-1,1.2-.3.2-.6.3-.8.3s-.4,0-.5-.2c-.1-.1-.2-.3-.2-.4s0,0,0-.1Z"/>
    <path class="st0" d="M4.6,49.4h0c0,0-2.4,0-2.4,0h0c0,0,.6-.7.6-.7v-7.1h-1l-1.6,1h0v-1.4h6.9l1-.8h.1v4h0c.6-.7,1.3-1,2-1s.9.1,1.2.4c.3.3.4.6.4,1.1v4l.6.5h0c0,0-2.2,0-2.2,0h0c0,0,.6-.5.6-.5v-3.7c0-.3,0-.6-.3-.8s-.5-.3-.8-.3-1,.2-1.5.7v4.1l.6.5h0c0,0-2.2,0-2.2,0h0c0,0,.6-.5.6-.5v-7.2h-3v7.1l.6.6Z"/>
    <path class="st0" d="M15.2,49.4h0s-2.2,0-2.2,0h0s.6-.5.6-.5v-4.4l-.7-.5h0s1.7-.6,1.7-.6h.1v5.5l.6.5ZM14.6,41.6c-.1.1-.3.2-.5.2s-.4,0-.5-.2c-.1-.1-.2-.3-.2-.5s0-.4.2-.5c.1-.1.3-.2.5-.2s.4,0,.5.2.2.3.2.5,0,.4-.2.5Z"/>
    <path class="st0" d="M17.7,44.8v4.1l.6.5h0c0,0-2.2,0-2.2,0h0c0,0,.6-.5.6-.5v-4.4l-.7-.5h0c0,0,1.6-.6,1.6-.6h.1v1h.1c.7-.7,1.3-1,2-1s.9.1,1.2.4.4.6.4,1.1v4l.6.5h0c0,0-2.2,0-2.2,0h0c0,0,.6-.5.6-.5v-3.7c0-.3,0-.6-.3-.8s-.5-.3-.8-.3c-.5,0-1,.2-1.5.7Z"/>
    <path class="st0" d="M25.1,51.8c-.7,0-1.3-.2-1.8-.5-.5-.3-.7-.7-.7-1.2s0-.5.2-.6l.6-.3h0c-.4-.3-.6-.6-.6-1s0-.5.3-.8c.2-.2.4-.4.8-.5h0c-.3-.2-.6-.4-.7-.7s-.3-.6-.3-.9c0-.6.2-1,.7-1.4.4-.4,1-.6,1.6-.6s.8.1,1.2.3l1.6-.3h0v.8h0l-1.4-.3h0c.2.2.4.3.6.6s.2.5.2.8c0,.5-.2,1-.7,1.4s-1,.6-1.6.6-.6,0-.9-.2c-.4.1-.5.3-.5.6s0,.4.2.5.3.2.6.2h2.9c.2,0,.4.2.6.4.1.2.2.5.2.8,0,.6-.3,1.1-.9,1.5-.6.4-1.3.6-2.2.6ZM23.3,50c0,.4.2.8.6,1s.9.4,1.5.4,1-.1,1.4-.4.6-.6.6-1-.3-.7-.8-.7h-2.3c-.2,0-.4,0-.6,0-.2.2-.3.4-.3.7ZM25.2,47c.3,0,.6-.1.8-.4.2-.3.3-.6.3-1.1s-.1-1-.3-1.3c-.2-.3-.5-.5-.9-.5s-.6.1-.8.4c-.2.3-.3.6-.3,1.1s.1,1,.3,1.3c.2.3.5.5.9.5Z"/>
    <path class="st0" d="M30.4,49.6c-.3,0-.7,0-1-.1s-.7-.2-.9-.3v-1.1h0l1.3,1.1c.2,0,.4.1.6.1.4,0,.7-.1.9-.3s.4-.5.4-.8-.1-.5-.3-.7-.5-.3-.8-.4-.6-.2-.9-.3-.6-.3-.8-.5-.3-.5-.3-.9c0-.5.2-1,.6-1.3.4-.3.9-.5,1.6-.5s1.1.1,1.5.3v1h0l-1.1-.9c-.1,0-.3,0-.4,0-.3,0-.6,0-.8.3s-.3.4-.3.7.1.5.3.7c.2.2.5.3.8.4s.6.2.9.3c.3.1.5.3.8.5s.3.5.3.9c0,.6-.2,1-.6,1.4-.4.4-1,.5-1.6.5Z"/>
  </g>
</svg>