<?xml version="1.0" encoding="UTF-8"?>
<svg id="Capa_1" xmlns="http://www.w3.org/2000/svg" version="1.1" viewBox="0 0 186 49.8">
  <!-- Generator: Adobe Illustrator 29.1.0, SVG Export Plug-In . SVG Version: 2.1.0 Build 142)  -->
  <defs>
    <style>
      .st0 {
        fill: #f2f2f2;
      }
    </style>
  </defs>
  <g>
    <path class="st0" d="M73.5,11.3c1.6,0,2.4-.8,2.4-2.2s-.7-2.1-2.1-2.1c-1.6.1-2.5.8-2.6,2.1,0,1.5.8,2.2,2.3,2.2Z"/>
    <path class="st0" d="M79.9,11.3c1.6,0,2.4-.8,2.4-2.2s-.7-2.1-2-2.1c-1.6.1-2.5.8-2.7,2.1,0,1.5.8,2.2,2.3,2.2Z"/>
    <path class="st0" d="M106.4,13.6c0,0,0-.1-.1-.1h-.5c-2.5.8-4.7,1.1-6.5,1.1s-1.5,0-2-.2c1.1-1.3,2.8-3.3,5.1-5.8.7-.7,1.1-1.4,1.4-2,.3-.8.2-1.6-.2-2.4-.8-1.7-1.9-2.9-3.4-3.6-.1,0-.2,0-.3,0s0,0,0,.1c0,.8-.2,1.5-.5,2.1-1.4,2.8-3.7,6.5-7.1,11.2-1.8-.2-2.8-.3-3.1-.3h0c-.2,0-.3,0-.3.1,0,0,.1.3.5.9.4.5.6.8.6.9l-6,7.6s0,0,0,0c-2.4,2.7-3.8,4.3-4.3,4.9-2.1,2.3-3.6,3.7-4.4,4.3-.1,0-.1,0,0-.2.5-1.7,2.1-4.3,4.7-7.9.9-1.2,1.3-2,1.3-2.3,0-.4-.2-.8-.7-1.2l-2-1.6c-.4-.3-.8-.3-1.1,0l-11.9,12.9c0,0-.1,0-.2,0,.2-4,1.9-7.5,5.2-10.5,2.4-2.2,4.8-3.7,7.1-4.5.2,0,.3,0,.4,0,.2,0,.2.2.3.2l.6.8c.1.2.3.3.4.2,0,0,.1-.2.1-.3,0-.3,0-.6-.1-.9-1-2.2-2.2-3.7-3.5-4.3-.2,0-.3,0-.3,0-.5.2-.6.3-.5.3-3.6,1.7-6.3,3.8-8.4,6.3-2,2.5-3.3,4.8-3.9,6.9-.2.2-.3.3-.5.5-3.5,3.7-5.6,5.7-6.4,6,0-1.3,1.3-3.7,3.9-7.2,2.6-3.5,4.2-5.6,4.8-6.4.3-.4.5-.7.5-1,.1-1.2-.9-2.4-3.1-3.6-.6-.2-1.1-.3-1.5-.2l-2,.5v-.2c.2-.5.5-.9.6-1.2l.2-.2c.4-.7.5-1.1.4-1.3-.2-.8-.7-1.5-1.6-2-.3-.2-.7-.3-1-.3s-.2,0-.4,0c-.1-.2-.3-.4-.6-.6-.4-.3-2-.5-2.9-.6,1.1-1.2,2.2-2.3,3.3-3.3.4-.3.6-.6.7-.8.1-.2,0-.5-.2-.8l-.3-.5c-3.3,0-7.2,1.7-7.2,1.7-.8.9-1.7,2.1-2.6,3.3-5.7,0-14,.4-19.9,1.8-.6.1-1.7.6-2,1.3-.1.3-.3.8-.5,1.3l-1,2.2s0,1.4.8,1,1.4-.6,1.4-.6c.9-.4,8.3-3.4,19.1-4.3-3.3,4.9-6.6,10.6-8.4,13.6-2,3.5-3.1,6.1-3.1,7.8s.2,1.8.7,2.7c.1.4.3,1,.8,1.8.8,1.6,7.7-2.7,12.1-7,5.1-4.9,10-10.7,10.9-11.8.8-.3,1.8-.7,2.8-1.1h0c0,0,0,.2,0,.2-1.7,1.8-4,4.7-6.8,8.9-.9,1.3-1.3,2.6-1.3,4,0,2.3,1.4,4,4.2,5.2.6.1,1.3-.3,2.1-1.4,1-1.2,2.1-2.8,3.4-4.6,0,.2,0,.4,0,.6.1,1.5,1.3,3,3.6,4.7.4.2.7.3,1,.2.3-.1.6-.4.9-1l.7-1.2c1-1.8,2.2-3.5,3.5-5.3.9-1.2,1.9-2.5,2.8-3.6h.1c-2,3.2-2.9,5.8-2.8,7.7,0,1.3.6,2.4,1.5,3.3.3.3.5.5.7.5.2.2.6.3,1,.3.7,0,1.2-.2,1.6-.8,3.3-4.8,5.5-8,6.7-9.7,0,0,0,0,.1-.1l4.4-5.7h0c-3.7,5.8-5.9,9.1-6.5,10.2-3.4,5.7-5.1,10.1-5,13.4,0,3.3,1.3,5.3,3.5,6,1.1.7,2,1,2.8.9,3.7-.5,7.2-4.1,10.5-10.9,2-4.1,3-8.3,3-12.6s-.7-5.8-2.1-7.8l.8-1.3c1.8.9,3.6,1.3,5.6,1.3,2,0,3.6-1.3,5-3.8.2-.4.3-.6.2-.6ZM39.6,32.8c-1.4.8-2.6,1.3-3.3,1.4.5-1.7,1.3-3.7,2.4-5.7,2.3-4.1,7.3-11.7,12.6-17.9,1.3,0,2.7,0,4.1.2-1.1,1.4-1.8,2.7-1.9,4-.2,1.5.2,2.6,1,3.3,0,0,.7.6,1.2.5-1.1,1.2-2.6,2.6-4,4.2-2.6,2.8-5.2,5.8-12.1,10ZM90.2,37c-4.2,7.1-7.2,10.6-9.1,10.6s-.3,0-.5-.1c-.4-.6-.6-1.4-.6-2.5,0-1.8.5-3.8,1.5-6,1.8-4,5.9-10.6,12.3-19.7.5,1.2.7,2.6.7,4.3,0,4.2-1.4,8.7-4.3,13.5Z"/>
  </g>
  <g>
    <path class="st0" d="M109.7,12.4c.1,0,.2.1.3.1s.2,0,.2,0l.6-.5c1.5-1.2,3.7-3.2,6.5-6,.3-.3.4-.7.5-.9,0-.3,0-.6-.2-.8-.9-.7-1.7-1.2-2.3-1.6-.2-.1-.4-.2-.5-.2s-.2,0-.2,0c-.2,0-.4.3-.6.6-1,1.7-2.4,4.4-4.2,8-.3.7-.4,1.1-.2,1.2Z"/>
    <path class="st0" d="M172.5,20.4c-5.2,0-10.7,1.8-14.7,3.4-3.4,1.4-11.6,5.5-12.8,6.3-1.6,1-2,1-3.4,1.8-.8.5-.5-.2-.5-.2.6-2,2.8-5,6-9.4.2-.2.3-.4.3-.7s-.2-.7-.7-1l-2-1.6c-.4-.3-.8-.3-1.1,0l-11.8,12.9c0,0-.1,0-.2,0,.2-4,1.9-7.5,5.2-10.5,2.4-2.2,4.8-3.7,7.1-4.5.2,0,.3,0,.4,0,.2,0,.2.2.3.2l.6.8c.1.2.3.3.4.2,0,0,.1-.2.1-.3,0-.3,0-.6-.1-.9-1-2.2-2.2-3.7-3.5-4.3-.2,0-.3,0-.3,0-.5.2-.6.3-.5.3-3.6,1.7-6.3,3.8-8.4,6.3-3.1,3.9-4.6,7.4-4.3,10.4,0,0,0,.2,0,.3-.7.7-1.3,1.2-1.9,1.5-.2,0-.4.1-.6.1-1.2,0-2.3-.6-3.5-1.8-1.4-1.1-2.6-2.3-3.6-3.6h.3c.4.1.8.2,1.3.2,1.8,0,3.8-.7,5.8-2.2,3.2-2.3,4.8-4.4,4.9-6.4.2-1,0-2-.7-2.8-.6-.8-1.5-1.4-2.5-1.7-.7,0-1.6.4-2.8,1.3-1.4,1-2.6,2-3.6,2.8h0c.9-1.1,2.8-3.9,5.6-8.3,1-1.5,1.4-2.7,1.2-3.6-.2-1.2-.9-2.3-2.1-3.2-.7-.5-1.2-.9-1.4-1-.3-.2-.4-.2-.5,0,0,.1-.1.2-.1.3s0,.2,0,.2c0,.4,0,1.1-.3,2-.7,2.2-2.5,5.6-5.4,10l-5.1,7.9c-4.1,4.8-7.6,8.5-10.7,10.9-.2,0-.3.1-.4.1s-.2,0-.3-.1c0-1.4,1-3.9,3.2-7.6,1.5-2.7,3.5-5.4,5.9-8.2.3-.3.4-.6.4-.8-.1-.5-1-1.4-2.6-2.7-.3-.2-.5-.3-.6-.2-.2,0-.3,0-.5.1-3.6,4.5-6.1,8.4-7.6,12-1,2.2-1.4,3.7-1.3,4.6.1,1.6.8,2.9,2.1,3.9.9,1,1.9,1.5,2.9,1.6.7,0,1.2-.4,1.7-1,.5-.7,1.1-1.4,1.6-2.2,0,.6.2,1.1.5,1.3l1.3,1.4c.3.3.7.4.9.4.4-.8.8-1.6,1-2.3,1.2-2.1,2.7-4.3,4.5-6.6,1.9,3.2,3.2,5.2,3.9,5.9,1.5,1.8,2.8,2.7,3.9,2.8.8,0,1.5-.3,2.2-.7,1.3-.9,2.6-2,3.7-3.2.6,1,1.6,2.1,3.1,3.2.4.2.7.3,1,.2.3-.1.6-.4.9-1l.7-1.2c1-1.8,2.2-3.5,3.5-5.3.9-1.2,1.9-2.5,2.8-3.6h.1c-2,3.2-2.9,5.8-2.8,7.7,0,.9.3,1.7.8,2.4.1.2.3.4.5.6.2.2.7.2,1.2,0,.5-.2.9-.4,1.3-.6.4-.2.8-.4,1.2-.6,1.9-1,8.4-3.9,10-4.5,1.3-.5,2.4-.9,3.4-1.2,1.2-.4,2.2-.7,2.6-.9,3.8-1.3,10.7-2.1,13-2.1,5.5,0,9.9.7,11.7,1.2.5.1,1.7-1,1.7-1,0,0-4.1-4.2-13.5-4.2ZM117.4,24c1.6-1.8,2.7-3,3.3-3.7,3.1-3.4,5.7-5.2,7.8-5.6-.7,2.6-2.2,4.9-4.7,6.9-2.1,1.7-3.9,2.5-5.4,2.5s-.7,0-1-.1Z"/>
  </g>
</svg>