<?xml version="1.0" encoding="utf-8"?>
<!-- Generator: Adobe Illustrator 24.0.3, SVG Export Plug-In . SVG Version: 6.00 Build 0)  -->
<svg version="1.1" id="Capa_1" xmlns="http://www.w3.org/2000/svg" xmlns:xlink="http://www.w3.org/1999/xlink" x="0px" y="0px"
	 viewBox="0 0 1361.73 332.36" style="enable-background:new 0 0 1361.73 332.36;" xml:space="preserve">
<g>
	<g>
		<path d="M145.88,107.05h0.32l25.33-78.06h25.01l23.72,78.06h0.32l22.76-78.06h32.7l-38.63,120.86h-32.06L184.19,79.8h-0.32
			l-23.72,70.05h-31.9L92.18,28.98h32.7L145.88,107.05z"/>
		<path d="M310.83,55.59v20.2h35.42v26.61h-35.42v20.84h37.35v26.61h-68.77V28.98h68.77v26.61H310.83z"/>
		<path d="M499.97,69.54c-6.41-8.66-16.83-13.3-27.57-13.3c-19.23,0-32.22,14.75-32.22,33.5c0,19.08,13.14,32.86,32.7,32.86
			c10.26,0,20.52-4.97,27.09-12.82v37.67c-10.42,3.21-17.95,5.61-27.73,5.61c-16.83,0-32.86-6.41-45.36-17.79
			c-13.3-12.02-19.4-27.73-19.4-45.68c0-16.51,6.25-32.38,17.79-44.24c11.86-12.18,29.01-19.56,46-19.56
			c10.1,0,19.4,2.24,28.69,6.09V69.54z"/>
		<path d="M642.47,87.17c0,39.11-28.05,66.68-66.84,66.68s-66.84-27.57-66.84-66.68c0-36.55,32.06-62.19,66.84-62.19
			C610.42,24.98,642.47,50.62,642.47,87.17z M541.49,87.33c0,20.84,15.39,36.07,34.14,36.07c18.75,0,34.14-15.23,34.14-36.07
			c0-16.67-15.39-31.9-34.14-31.9C556.88,55.43,541.49,70.66,541.49,87.33z"/>
		<path d="M652.57,28.98h31.42l57.55,73.9h0.32v-73.9h31.42v120.86h-31.42l-57.55-74.06h-0.32v74.06h-31.42V28.98z"/>
		<path d="M789.31,28.98h31.42l57.54,73.9h0.32v-73.9h31.42v120.86h-31.42l-57.55-74.06h-0.32v74.06h-31.42V28.98z"/>
		<path d="M957.46,55.59v20.2h35.43v26.61h-35.43v20.84h37.35v26.61h-68.77V28.98h68.77v26.61H957.46z"/>
		<path d="M1096.11,69.54c-6.41-8.66-16.83-13.3-27.57-13.3c-19.24,0-32.22,14.75-32.22,33.5c0,19.08,13.14,32.86,32.7,32.86
			c10.26,0,20.52-4.97,27.09-12.82v37.67c-10.42,3.21-17.95,5.61-27.73,5.61c-16.83,0-32.86-6.41-45.36-17.79
			c-13.3-12.02-19.4-27.73-19.4-45.68c0-16.51,6.25-32.38,17.79-44.24c11.86-12.18,29.01-19.56,46-19.56
			c10.1,0,19.4,2.24,28.69,6.09V69.54z"/>
		<path d="M1159.11,149.85h-31.42V55.59h-25.97V28.98h83.35v26.61h-25.97V149.85z"/>
		<path d="M1218.74,119.23l-29.49,53.22h-18.75l20.84-53.22H1218.74z"/>
		<path d="M64.61,278.85l-8.33,21H22.93l46.48-120.86h34.3l45.52,120.86h-33.5l-7.85-21H64.61z M86.57,216.33h-0.32L73.27,254.8
			h26.13L86.57,216.33z"/>
		<path d="M220.9,210.08c-5.77-4.81-13.14-8.02-20.84-8.02c-5.77,0-13.46,3.37-13.46,10.1c0,7.05,8.5,9.78,13.95,11.54l8.01,2.4
			c16.83,4.97,29.81,13.46,29.81,33.02c0,12.02-2.89,24.37-12.5,32.54c-9.46,8.01-22.12,11.38-34.3,11.38
			c-15.23,0-30.14-5.13-42.48-13.79l13.46-25.33c7.85,6.89,17.15,12.5,27.89,12.5c7.37,0,15.23-3.69,15.23-12.18
			c0-8.82-12.34-11.86-19.07-13.79c-19.72-5.61-32.7-10.74-32.7-34.14c0-24.53,17.47-40.56,41.68-40.56
			c12.18,0,27.09,3.85,37.83,9.94L220.9,210.08z"/>
		<path d="M318.52,178.98h38.95l-48.09,57.22l52.42,63.64h-40.71l-40.55-52.42h-0.32v52.42h-31.42V178.98h31.42v49.85h0.32
			L318.52,178.98z"/>
		<path d="M519.85,307.38L510.23,296c-9.3,5.61-20.2,7.85-33.18,7.85c-38.79,0-66.84-27.57-66.84-66.68
			c0-36.55,32.06-62.19,66.84-62.19c37.67,0,66.84,25.49,66.84,64.76c0,16.03-5.45,29.97-15.55,42.48l20.36,20.68L519.85,307.38z
			 M505.58,257.69c3.69-5.13,5.61-11.7,5.61-17.79c0-18.11-15.07-34.46-33.98-34.46c-18.75,0-34.3,15.23-34.3,31.9
			c0,20.84,15.55,36.07,34.3,36.07c3.21,0,6.41-0.48,9.62-1.6l-19.4-19.23l29.65-3.69L505.58,257.69z"/>
		<path d="M658.82,178.98v67.96c0,15.55-0.64,30.94-12.66,42.64c-10.1,9.94-25.97,13.46-40.07,13.46
			c-14.11,0-29.98-3.53-40.07-13.46c-12.02-11.7-12.66-27.09-12.66-42.64v-67.96h31.42v63.64c0,15.71,1.12,32.86,21.32,32.86
			c20.2,0,21.32-17.15,21.32-32.86v-63.64H658.82z"/>
		<path d="M705.63,205.59v20.2h35.42v26.61h-35.42v20.84h37.35v26.61h-68.77V178.98h68.77v26.61H705.63z"/>
		<path d="M824.25,210.08c-5.77-4.81-13.14-8.02-20.84-8.02c-5.77,0-13.46,3.37-13.46,10.1c0,7.05,8.5,9.78,13.95,11.54l8.01,2.4
			c16.83,4.97,29.81,13.46,29.81,33.02c0,12.02-2.88,24.37-12.5,32.54c-9.46,8.01-22.12,11.38-34.3,11.38
			c-15.23,0-30.13-5.13-42.48-13.79l13.46-25.33c7.85,6.89,17.15,12.5,27.89,12.5c7.37,0,15.23-3.69,15.23-12.18
			c0-8.82-12.34-11.86-19.08-13.79c-19.72-5.61-32.7-10.74-32.7-34.14c0-24.53,17.47-40.56,41.68-40.56
			c12.18,0,27.09,3.85,37.83,9.94L824.25,210.08z"/>
		<path d="M900.23,299.85h-31.42v-94.25h-25.97v-26.61h83.35v26.61h-25.97V299.85z"/>
		<path d="M964.51,299.85h-31.42V178.98h31.42V299.85z"/>
		<path d="M1108.13,237.17c0,39.11-28.05,66.68-66.84,66.68s-66.84-27.57-66.84-66.68c0-36.55,32.06-62.19,66.84-62.19
			S1108.13,200.63,1108.13,237.17z M1007.15,237.33c0,20.84,15.39,36.07,34.14,36.07c18.75,0,34.14-15.23,34.14-36.07
			c0-16.67-15.39-31.9-34.14-31.9C1022.54,205.43,1007.15,220.66,1007.15,237.33z"/>
		<path d="M1118.23,178.98h31.42l57.55,73.9h0.32v-73.9h31.42v120.86h-31.42l-57.54-74.05h-0.32v74.05h-31.42V178.98z"/>
		<path d="M1321.33,210.08c-5.77-4.81-13.14-8.02-20.84-8.02c-5.77,0-13.46,3.37-13.46,10.1c0,7.05,8.5,9.78,13.95,11.54l8.01,2.4
			c16.83,4.97,29.81,13.46,29.81,33.02c0,12.02-2.89,24.37-12.5,32.54c-9.46,8.01-22.12,11.38-34.3,11.38
			c-15.23,0-30.13-5.13-42.48-13.79l13.46-25.33c7.86,6.89,17.15,12.5,27.89,12.5c7.37,0,15.23-3.69,15.23-12.18
			c0-8.82-12.34-11.86-19.07-13.79c-19.72-5.61-32.7-10.74-32.7-34.14c0-24.53,17.47-40.56,41.68-40.56
			c12.18,0,27.09,3.85,37.83,9.94L1321.33,210.08z"/>
	</g>
</g>
</svg>
