<?xml version="1.0" encoding="utf-8"?>
<!-- Generator: Adobe Illustrator 28.0.0, SVG Export Plug-In . SVG Version: 6.00 Build 0)  -->
<svg version="1.1" id="Capa_1" xmlns:v="https://vecta.io/nano"
	 xmlns="http://www.w3.org/2000/svg" xmlns:xlink="http://www.w3.org/1999/xlink" x="0px" y="0px" viewBox="0 0 300 300"
	 style="enable-background:new 0 0 300 300;" xml:space="preserve">
<style type="text/css">
	.st0{fill:#CCCCCC;}
</style>
<g>
	<path class="st0" d="M55.3,149.3c0.5-2.6,2.9-4.5,6.1-4.5c3.7,0,6.7,1.6,6.7,6.7v9.4h-3.2l-0.4-2c-1.1,1.4-2.6,2.3-4.8,2.3
		c-2.8,0-4.8-1.7-4.8-4.8s2.9-5.2,6.8-5.2h2.6v-0.7c0-1.8-1.3-2.3-2.9-2.3c-1.1,0-2.2,0.4-2.8,1.8L55.3,149.3z M60.5,157.9
		c1.8,0,3.7-1.2,3.7-3.2v-0.3h-2.5c-1.7-0.1-2.8,0.6-2.8,2.1C58.9,157,59.5,157.9,60.5,157.9z"/>
	<path class="st0" d="M131.5,149.3c0.5-2.6,2.9-4.5,6.1-4.5c3.7,0,6.7,1.6,6.7,6.7v9.4h-3.2l-0.4-2.1c-1.1,1.4-2.6,2.3-4.8,2.3
		c-2.8,0-4.8-1.7-4.8-4.8s2.9-5.2,6.8-5.2h2.6v-0.7c0-1.8-1.3-2.3-2.9-2.3c-1.1,0-2.2,0.4-2.8,1.8L131.5,149.3z M136.7,157.9
		c1.8,0,3.7-1.2,3.7-3.2v-0.3h-2.6c-1.7,0-2.8,0.6-2.8,2.1C135.1,157,135.7,157.9,136.7,157.9z"/>
	<path class="st0" d="M147.9,161v-16h3.9v2.6c1.1-2,2.9-2.9,4.6-2.9c0.7,0,1.3,0.1,2,0.3l-0.7,3.7c-0.5-0.3-1-0.5-1.6-0.5
		c-2.3,0-4.3,2-4.3,7v5.6L147.9,161z"/>
	<path class="st0" d="M166.8,144.8c1.6,0,3.1,0.8,3.8,1.7v-7.9h3.9V161h-3.9v-1.6c-0.5,0.8-2,2-3.8,2c-4.7,0-7.1-3.3-7.1-8.2
		C159.5,148.3,162,144.8,166.8,144.8z M167.3,157.9c2.1,0,3.7-1.7,3.7-4.8s-1.6-4.8-3.7-4.8c-2.1,0-3.7,1.7-3.7,4.8
		C163.7,156.2,165.3,157.9,167.3,157.9z"/>
	<path class="st0" d="M188.6,147.4l-2.3,2.1c-0.7-1-1.8-1.4-2.6-1.4s-1.5,0.5-1.5,1.3c0,0.7,0.6,1.2,1.5,1.5
		c2.2,0.8,5.8,1.5,5.8,4.8c0,2.9-2.2,5.3-5.6,5.3c-3.3,0-5.5-2.3-6.2-4.3l3.1-1.7c0.6,1.5,1.6,2.6,3.2,2.6c1.2,0,2.1-0.6,2.1-1.7
		c0-1.3-2.1-1.6-3.9-2.4c-1.7-0.7-3.2-1.8-3.2-4.3c0-2.4,2.1-4.6,5.1-4.6C185.9,144.7,187.7,145.9,188.6,147.4z"/>
	<path class="st0" d="M107.2,145l-2.9,11l-2.8-11h-3.7l-2.6,11l-2.2-6.3l-0.3,0.7l-1.2,4.1l2.1,6.5h3.5l2.8-10.3l2.8,10.3h3.6
		l5.1-16H107.2L107.2,145z"/>
	<path class="st0" d="M126.1,145l-2.9,11l-2.8-11h-3.7l-2.6,11l-2.2-6.3l-0.3,0.7l-1.3,4.1l2.1,6.5h3.5l2.8-10.3l2.8,10.3h3.5
		l5.2-16H126.1L126.1,145z"/>
	<path class="st0" d="M92.3,145l-5.1,15.9h-3.5l-2.8-10.2L78.1,161h-3.5l-4.9-15.9h3.9l2.9,10.9l2.8-10.9H83l2.8,10.9l2.9-10.9
		L92.3,145z"/>
	<path class="st0" d="M194.6,155.9c1.5,0,2.6,1.1,2.6,2.6s-1.1,2.6-2.6,2.6s-2.6-1.1-2.6-2.6S193.1,155.9,194.6,155.9z"/>
</g>
</svg>
