<?xml version="1.0" encoding="utf-8"?>
<!-- Generator: Adobe Illustrator 28.0.0, SVG Export Plug-In . SVG Version: 6.00 Build 0)  -->
<svg version="1.1" id="Capa_1" xmlns="http://www.w3.org/2000/svg" xmlns:xlink="http://www.w3.org/1999/xlink" x="0px" y="0px"
	 viewBox="0 0 441.3 103.1" style="enable-background:new 0 0 441.3 103.1;" xml:space="preserve">
<style type="text/css">
	.st0{fill-rule:evenodd;clip-rule:evenodd;fill:#FFFFFF;}
	.st1{fill:#FFFFFF;}
	.st2{opacity:0.3;fill:#FFFFFF;enable-background:new    ;}
</style>
<g>
	<g>
		<path class="st0" d="M234.8,38c4.6-3,10.4-1.6,12.4-0.5c2,1,2.8,2.9,2.8,4.3c0,1.4,0.1,16.5,0.1,16.5s1.2,3.3,3.7,0l0.9,1.2
			c0,0-2.4,3.9-5.5,3.9s-3.5-3.5-3.5-3.5h-0.5c0,0-3.5,4.4-9.2,3.5c-6.2-0.9-5.2-7.6-4.6-9s2.8-5.2,13.9-7.4v-5.3
			c0,0-0.3-3.5-3.6-3.5s-4,3.2-4,3.2s-0.4,3.8-3.5,3.3C230.3,44.2,232.3,39.6,234.8,38L234.8,38z M245.3,48.7v8.9
			c0,0-2.4,2.9-5.6,2.9c-2.3,0-3.9-2.2-3.8-4.2C236.2,52.2,242,49.3,245.3,48.7L245.3,48.7z M260.7,58.7c1.1,0.6,1.5,2.2,0.7,3.4
			c-0.8,1.3-2.3,1.8-3.4,1.2s-1.5-2.2-0.7-3.4C258,58.6,259.6,58,260.7,58.7L260.7,58.7z M260.4,37.3c0,0,0.5-2.3,2.9-2.3
			c2.4,0.1,1.8,2.8,1.8,2.8s-2.1,6.8-2.5,8.6c-0.4,1.8-1.8,9.1-1.8,9.1l-1.3,0.1c0,0,0.8-7.2,0.8-8.6
			C260.5,43.8,260.4,38.1,260.4,37.3L260.4,37.3z"/>
		<g>
			<path class="st0" d="M262.4,69.8c1.9,0,3.4,1.7,3.4,3.8c0,2.1-1.5,3.8-3.4,3.8s-3.4-1.7-3.4-3.8S260.5,69.8,262.4,69.8
				L262.4,69.8z M262.4,71.1c1.1,0,1.9,1.1,1.9,2.5s-0.9,2.6-1.9,2.6s-2-1.1-2-2.6C260.4,72.2,261.3,71.1,262.4,71.1L262.4,71.1z"/>
			<polygon class="st0" points="256.3,70.1 257.7,70.1 257.7,77.1 256.3,77.1 256.3,77.1 256.1,77.1 253.8,72.6 253.6,72.6 
				253.6,77.1 252.2,77.1 252.2,70.1 253.8,70.1 256.3,74.9 			"/>
			<polygon class="st0" points="253.9,69 256.6,69 256.6,69.7 253.9,69.7 			"/>
			<polygon class="st0" points="237.6,70.1 239.1,70.1 239.1,77.1 237.6,77.1 			"/>
			<polygon class="st0" points="246.5,70.1 246.8,70.1 246.8,70.1 250.5,70.1 250.5,71.2 247.9,71.2 247.9,72.9 250.2,72.9 
				250.2,73.9 247.9,73.9 247.9,76.1 250.5,76.1 250.5,77.2 246.8,77.2 246.8,77.1 246.5,77.1 			"/>
			<path class="st0" d="M233.3,70.1c1.7,0.3,3,1.8,3,3.5c0,1.8-1.3,3.3-3,3.5h-2.6V70L233.3,70.1L233.3,70.1z M232.8,71.4
				c1.2,0,2.1,1.2,2.1,2.3s-0.8,2.2-2.1,2.3h-1v-4.5h1V71.4z"/>
			<path class="st0" d="M243.2,69.8c0.5,0,1.1,0.2,1.5,0.4v1.1h-0.9c-0.2-0.2-0.5-0.2-0.7-0.2c-0.6,0-1.1,0.5-1.1,0.9
				c0,0.5,0.3,0.8,0.8,0.9c1.1,0.4,2.3,1,2.3,2.2s-1.2,2.2-2.7,2.2c-0.6,0-1.1-0.2-1.6-0.4v-1.2h0.7c0.1,0.3,0.5,0.4,1,0.4
				s1.1-0.3,1.1-0.8c0-0.7-1.1-0.9-1.2-1c-0.5-0.2-0.9-0.4-1.2-0.8c-0.1-0.1-0.1-0.2-0.2-0.3l0,0c-0.2-0.3-0.3-0.7-0.3-1.1
				C240.5,70.8,241.7,69.8,243.2,69.8L243.2,69.8z"/>
		</g>
		<path class="st1" d="M270.4,81h-45.2V22.1h45.2V81z M226.2,80h43.3V23h-43.3V80z"/>
		<g>
			<path class="st1" d="M271.7,27.3c0-1.2,0.9-2.1,2.1-2.1s2.1,0.9,2.1,2.1s-0.9,2.1-2.1,2.1S271.7,28.5,271.7,27.3z M275.4,27.3
				c0-0.9-0.7-1.6-1.6-1.6s-1.6,0.7-1.6,1.6s0.7,1.6,1.6,1.6S275.4,28.3,275.4,27.3z M274.8,28.4h-0.5l-0.5-0.9h-0.3v0.9H273v-2.2h1
				c0.5,0,0.8,0.1,0.8,0.7c0,0.4-0.2,0.6-0.6,0.6L274.8,28.4z M274,27.2c0.2,0,0.4,0,0.4-0.3c0-0.2-0.3-0.2-0.5-0.2h-0.5v0.5
				C273.5,27.2,274,27.2,274,27.2z"/>
		</g>
	</g>
	<g>
		<path class="st2" d="M336.2,53.6c0.2-1,0.5-1.9,1.1-2.6c0.7-0.8,1.6-1.2,2.7-1.2s2,0.4,2.7,1.2c0.6,0.7,1,1.5,1.1,2.6H336.2
			 M340.1,46.1c-2.8,0-5,0.8-6.6,2.4c-1.6,1.6-2.4,3.7-2.4,6.4c0,6.3,3.1,9.4,9.3,9.4c2,0,3.7-0.5,5.1-1.4c1.4-1,2.5-2.3,3-4.1h-5
			c-0.2,0.6-0.6,1.1-1.3,1.5c-0.6,0.3-1.3,0.5-2,0.5c-1.3,0-2.3-0.4-3-1.3c-0.7-0.8-1.1-1.7-1.1-3h12.8
			C348.8,49.6,345.9,46.1,340.1,46.1"/>
		<path class="st2" d="M361.3,50.8c-0.5,0-0.9-0.1-1.4-0.1c-3,0-4.5,1.4-4.5,4.2v9h-4.9V46.6h4.7v1.3c0,0.5,0,0.7,0,0.7h0.1
			c0.9-0.9,1.5-1.2,2.1-1.5c0.8-0.4,2.6-0.7,3.9-0.7h0.7L361.3,50.8"/>
		<path class="st2" d="M378.9,52.8H374c-0.1-0.8-0.5-1.5-1.1-2.1s-1.3-0.8-2.2-0.8c-1.3,0-2.3,0.6-3,1.7c-0.6,0.9-0.9,2-0.9,3.4
			c0,3.8,1.2,5.6,3.7,5.6c0.9,0,1.7-0.2,2.3-0.8c0.6-0.6,1-1.3,1.1-2.2h5c-0.3,2-1.2,3.7-2.8,5c-1.6,1.3-3.5,1.9-5.8,1.9
			c-2.8,0-4.9-0.8-6.4-2.5c-1.4-1.6-2.1-3.7-2.1-6.3c0-2.8,0.7-5,2-6.7c1.5-1.9,3.7-2.8,6.7-2.8c2.3,0,4.2,0.6,5.8,1.7
			C377.9,49,378.8,50.7,378.9,52.8"/>
		<path class="st2" d="M391.3,56.3c0,0.4,0,0.6,0,0.8c0,1.1-0.2,2-0.7,2.5c-0.4,0.4-1,0.8-1.7,1.1s-1.4,0.4-2,0.4
			c-1.5,0-2.2-0.7-2.2-1.9c0-1,0.4-1.7,1.3-2.2c0.4-0.2,1.3-0.5,2.7-0.7c1.2-0.2,2.1-0.5,2.6-0.9C391.3,55.6,391.3,55.9,391.3,56.3
			 M396.5,53.2c0-4.7-2.6-7-7.9-7.1c-1.5,0-2.9,0.2-4.2,0.7c-2.4,0.9-3.7,2.7-4,5.5h4.7c0.1-0.8,0.4-1.4,1-1.9s1.3-0.7,2.2-0.7
			c0.8,0,1.5,0.2,2.1,0.6c0.6,0.4,0.9,0.9,0.9,1.6c0,0.8-1,1.2-3,1.5c-2.8,0.3-4.7,0.7-5.6,1.1c-2,0.9-3,2.5-3,4.9
			c0,1.6,0.6,2.8,1.9,3.7c1.1,0.8,2.6,1.2,4.4,1.2c2.5,0,4.3-0.6,5.5-1.8c0.2,0.7,0.3,1.2,0.5,1.4h4.6L396.5,53.2"/>
		<path class="st1" d="M415.4,64h-17.9c0-2.8,1-5.2,2.7-7.2c0.8-0.9,2.6-2.3,5.3-4.1c3.2-2.2,4.8-4.3,4.8-6.3c0-1-0.4-1.9-1.2-2.6
			c-0.8-0.7-1.7-1-2.8-1c-1.5,0-2.6,0.7-3.1,2c-0.2,0.5-0.3,1.5-0.4,2.8h-5c0-2.7,0.8-4.8,2.2-6.5c1.6-1.8,3.7-2.7,6.4-2.7
			c2.5,0,4.6,0.8,6.3,2.3s2.6,3.5,2.6,5.9c0,2.2-0.8,4.1-2.5,5.9c-0.9,0.9-2.6,2.2-5.1,3.8c-2.1,1.3-3.3,2.4-3.7,3.3h11.4L415.4,64"
			/>
		<path class="st1" d="M417,63.5c-0.5-0.5-0.7-1.1-0.7-1.8s0.2-1.3,0.8-1.8c0.5-0.5,1.1-0.8,1.8-0.8s1.3,0.2,1.8,0.8
			s0.7,1.1,0.7,1.8s-0.2,1.3-0.7,1.8s-1.1,0.8-1.8,0.8C418.1,64.3,417.5,64.1,417,63.5"/>
		<path class="st1" d="M433.2,53c0,5.2-1.3,7.8-3.8,7.8s-3.8-2.5-3.8-7.6v-2.9c0-5,1.3-7.5,3.8-7.5s3.8,2.5,3.8,7.6V53 M429.3,38.7
			c-3.3,0-5.7,1.3-7.2,3.9c-1.2,2.1-1.8,4.9-1.8,8.3c0,0.7,0,1.5,0,2.4c0.3,3.5,0.9,6.1,2,7.8c1.4,2.4,3.8,3.6,7,3.6
			c3.8,0,6.4-1.6,7.8-4.6c0.9-2,1.4-5.1,1.4-9.3C438.5,42.7,435.4,38.7,429.3,38.7"/>
		<path class="st2" d="M306.4,39.9h6.5l3.2,12c0.5,1.7,0.6,2.4,0.9,3.6c0.2-1.2,0.5-2.3,0.9-3.7l3.4-11.9h6.5l2.2,23.9h-4.9
			L324.2,51c-0.1-1.5-0.2-2.5-0.2-3.8c-0.3,1.4-0.5,2.1-0.9,3.5l-3.9,13.1h-4.4l-3.5-12.5c-0.3-1.2-1-4.2-1-4.2
			c0,1.4-0.1,2.8-0.2,4.2l-0.9,12.5h-5L306.4,39.9"/>
		<g>
			<path class="st1" d="M332.6,41.5h0.4v0.3c0.1-0.1,0.2-0.2,0.2-0.2c0.1-0.1,0.3-0.1,0.4-0.1c0.2,0,0.3,0,0.4,0.1
				c0.1,0,0.1,0.1,0.2,0.2c0.1-0.1,0.2-0.2,0.3-0.3c0.1-0.1,0.2-0.1,0.4-0.1c0.3,0,0.5,0.1,0.6,0.3c0.1,0.1,0.1,0.3,0.1,0.5v1.5
				h-0.4v-1.6c0-0.2,0-0.3-0.1-0.3c-0.1-0.1-0.2-0.1-0.3-0.1c-0.1,0-0.3,0-0.4,0.2c-0.1,0.1-0.2,0.3-0.2,0.5v1.3h-0.3v-1.5
				c0-0.2,0-0.3,0-0.3c-0.1-0.1-0.2-0.2-0.3-0.2c-0.1,0-0.3,0.1-0.4,0.2c-0.1,0.1-0.2,0.3-0.2,0.6v1.2h-0.4L332.6,41.5"/>
			<path class="st1" d="M337.7,41.5c0.1,0.1,0.3,0.2,0.3,0.3c0.1,0.1,0.1,0.2,0.1,0.4c0,0.1,0,0.3,0,0.5h-1.7c0,0.2,0.1,0.4,0.2,0.6
				c0.1,0.1,0.3,0.2,0.5,0.2s0.4-0.1,0.5-0.2c0.1-0.1,0.1-0.2,0.1-0.3h0.4c0,0.1,0,0.2-0.1,0.3s-0.1,0.2-0.2,0.2
				c-0.1,0.1-0.3,0.2-0.4,0.2s-0.2,0-0.3,0c-0.3,0-0.5-0.1-0.7-0.3s-0.3-0.5-0.3-0.9s0.1-0.7,0.3-0.9c0.2-0.2,0.5-0.3,0.8-0.3
				C337.4,41.4,337.5,41.5,337.7,41.5 M337.8,42.4c0-0.2,0-0.3-0.1-0.4c-0.1-0.2-0.3-0.3-0.5-0.3s-0.3,0.1-0.4,0.2
				c-0.1,0.1-0.2,0.3-0.2,0.5H337.8"/>
			<path class="st1" d="M338.7,41.5h0.4v0.4c0-0.1,0.1-0.2,0.2-0.3s0.2-0.2,0.4-0.2l0,0c0,0,0,0,0.1,0v0.4c0,0,0,0-0.1,0
				c0,0,0,0-0.1,0c-0.2,0-0.4,0.1-0.5,0.2c-0.1,0.1-0.2,0.3-0.2,0.4v1.3h-0.4L338.7,41.5"/>
			<path class="st1" d="M341.7,41.6c0.2,0.1,0.3,0.3,0.3,0.6h-0.4c0-0.1-0.1-0.2-0.2-0.3s-0.2-0.1-0.4-0.1c-0.2,0-0.4,0.1-0.5,0.4
				c-0.1,0.2-0.1,0.3-0.1,0.6c0,0.2,0,0.4,0.1,0.6c0.1,0.2,0.2,0.2,0.5,0.2c0.2,0,0.3,0,0.4-0.2c0.1-0.1,0.2-0.2,0.2-0.4h0.4
				c0,0.3-0.1,0.5-0.3,0.7s-0.4,0.2-0.6,0.2c-0.3,0-0.5-0.1-0.7-0.3s-0.3-0.5-0.3-0.8c0-0.4,0.1-0.7,0.3-0.9s0.4-0.3,0.7-0.3
				C341.4,41.4,341.6,41.5,341.7,41.6"/>
			<path class="st1" d="M343.7,42.4c0.1,0,0.1,0,0.2-0.1v-0.1c0-0.1,0-0.2-0.1-0.3s-0.2-0.1-0.4-0.1c-0.2,0-0.3,0-0.4,0.2
				c0,0.1-0.1,0.2-0.1,0.3h-0.4c0-0.3,0.1-0.5,0.3-0.6c0.2-0.1,0.4-0.2,0.6-0.2c0.3,0,0.5,0,0.6,0.2c0.2,0.1,0.2,0.3,0.2,0.5v1.3
				v0.1c0,0,0,0,0.1,0c0,0,0,0,0.1,0s0,0,0.1,0v0.3c-0.1,0-0.1,0-0.1,0h-0.1c-0.1,0-0.2,0-0.3-0.1c0,0,0-0.1-0.1-0.2
				c-0.1,0.1-0.2,0.2-0.3,0.3s-0.3,0.1-0.5,0.1s-0.4-0.1-0.5-0.2c-0.1-0.1-0.2-0.3-0.2-0.5s0.1-0.4,0.2-0.5s0.3-0.2,0.5-0.2
				L343.7,42.4 M342.8,43.4c0.1,0.1,0.2,0.1,0.3,0.1c0.1,0,0.3,0,0.4-0.1c0.2-0.1,0.3-0.3,0.3-0.5v-0.3c0,0-0.1,0-0.2,0.1
				s-0.1,0-0.2,0h-0.2c-0.1,0-0.2,0-0.3,0.1c-0.1,0.1-0.2,0.2-0.2,0.3C342.7,43.3,342.8,43.3,342.8,43.4"/>
			<path class="st1" d="M346.2,41.5c0.1,0,0.1,0.1,0.2,0.2v-1.1h0.4v3.1h-0.4v-0.3c-0.1,0.1-0.2,0.2-0.3,0.3
				c-0.1,0.1-0.3,0.1-0.4,0.1c-0.2,0-0.5-0.1-0.6-0.3s-0.3-0.5-0.3-0.8s0.1-0.6,0.2-0.9c0.2-0.2,0.4-0.4,0.7-0.4
				C345.9,41.4,346,41.5,346.2,41.5 M345.3,43.3c0.1,0.2,0.3,0.2,0.5,0.2s0.3-0.1,0.4-0.2c0.1-0.2,0.2-0.4,0.2-0.7s-0.1-0.5-0.2-0.7
				c-0.1-0.1-0.3-0.2-0.4-0.2c-0.2,0-0.3,0.1-0.5,0.2c-0.1,0.2-0.2,0.4-0.2,0.7C345.2,42.9,345.2,43.1,345.3,43.3"/>
			<path class="st1" d="M349,41.7c0.2,0.2,0.3,0.5,0.3,0.9s-0.1,0.7-0.3,0.9s-0.5,0.4-0.8,0.4s-0.6-0.1-0.7-0.3s-0.3-0.5-0.3-0.8
				c0-0.4,0.1-0.7,0.3-0.9c0.2-0.2,0.5-0.3,0.8-0.3C348.6,41.4,348.8,41.5,349,41.7 M348.8,43.2c0.1-0.2,0.1-0.4,0.1-0.7
				c0-0.2,0-0.4-0.1-0.5c-0.1-0.2-0.3-0.3-0.6-0.3c-0.2,0-0.4,0.1-0.5,0.3s-0.2,0.4-0.2,0.7c0,0.2,0,0.5,0.2,0.6
				c0.1,0.2,0.3,0.2,0.5,0.2C348.5,43.5,348.7,43.4,348.8,43.2"/>
			<path class="st1" d="M349.9,40.9h0.4v0.6h0.4v0.3h-0.4v1.5c0,0.1,0,0.1,0.1,0.2h0.1c0,0,0,0,0.1,0s0,0,0.1,0v0.3h-0.1h-0.1
				c-0.2,0-0.3,0-0.4-0.1s-0.1-0.2-0.1-0.4v-1.5h-0.3v-0.3h0.3v-0.6"/>
			<path class="st1" d="M352.5,41.5c0.1,0.1,0.3,0.2,0.4,0.3s0.1,0.2,0.1,0.4c0,0.1,0,0.3,0,0.5h-1.7c0,0.2,0.1,0.4,0.2,0.6
				c0.1,0.1,0.3,0.2,0.5,0.2s0.4-0.1,0.5-0.2c0.1-0.1,0.1-0.2,0.1-0.3h0.4c0,0.1,0,0.2-0.1,0.3s-0.1,0.2-0.2,0.2
				c-0.1,0.1-0.3,0.2-0.4,0.2s-0.2,0-0.3,0c-0.3,0-0.5-0.1-0.7-0.3s-0.3-0.5-0.3-0.9s0.1-0.7,0.3-0.9c0.2-0.2,0.5-0.3,0.8-0.3
				C352.2,41.4,352.4,41.5,352.5,41.5 M352.7,42.4c0-0.2,0-0.3-0.1-0.4c-0.1-0.2-0.3-0.3-0.5-0.3s-0.3,0.1-0.4,0.2
				c-0.1,0.1-0.2,0.3-0.2,0.5H352.7"/>
			<path class="st1" d="M355.1,41.6c0.2,0.1,0.3,0.3,0.3,0.6H355c0-0.1-0.1-0.2-0.2-0.3s-0.2-0.1-0.4-0.1c-0.2,0-0.4,0.1-0.5,0.4
				c-0.1,0.2-0.1,0.3-0.1,0.6c0,0.2,0,0.4,0.1,0.6c0.1,0.2,0.2,0.2,0.5,0.2c0.2,0,0.3,0,0.4-0.2c0.1-0.1,0.2-0.2,0.2-0.4h0.4
				c0,0.3-0.1,0.5-0.3,0.7s-0.4,0.2-0.6,0.2c-0.3,0-0.5-0.1-0.7-0.3s-0.3-0.5-0.3-0.8c0-0.4,0.1-0.7,0.3-0.9s0.4-0.3,0.7-0.3
				C354.7,41.4,354.9,41.5,355.1,41.6"/>
			<path class="st1" d="M355.8,41.5h0.4v0.3c0.1-0.1,0.2-0.2,0.3-0.3s0.2-0.1,0.4-0.1c0.3,0,0.5,0.1,0.7,0.3
				c0.1,0.1,0.1,0.3,0.1,0.5v1.5h-0.4v-1.4c0-0.1,0-0.2-0.1-0.3s-0.2-0.2-0.4-0.2c-0.1,0-0.2,0-0.2,0c-0.1,0-0.2,0.1-0.3,0.2
				c-0.1,0.1-0.1,0.2-0.1,0.2c0,0.1,0,0.2,0,0.3v1.2h-0.4V41.5"/>
			<path class="st1" d="M358.3,40.6h0.4v0.5h-0.4V40.6 M358.3,41.5h0.4v2.3h-0.4V41.5"/>
			<path class="st1" d="M360.5,42.4c0.1,0,0.1,0,0.2-0.1v-0.1c0-0.1,0-0.2-0.1-0.3s-0.2-0.1-0.4-0.1c-0.2,0-0.3,0-0.4,0.2
				c0,0.1-0.1,0.2-0.1,0.3h-0.4c0-0.3,0.1-0.5,0.3-0.6c0.2-0.1,0.4-0.2,0.6-0.2c0.3,0,0.5,0,0.6,0.2c0.2,0.1,0.2,0.3,0.2,0.5v1.3
				v0.1c0,0,0,0,0.1,0c0,0,0,0,0.1,0s0,0,0.1,0v0.3c-0.1,0-0.1,0-0.1,0h-0.1c-0.1,0-0.2,0-0.3-0.1c0,0,0-0.1-0.1-0.2
				c-0.1,0.1-0.2,0.2-0.3,0.3c-0.1,0.1-0.3,0.1-0.5,0.1s-0.4-0.1-0.5-0.2c-0.1-0.1-0.2-0.3-0.2-0.5s0.1-0.4,0.2-0.5s0.3-0.2,0.5-0.2
				L360.5,42.4 M359.7,43.4c0.1,0.1,0.2,0.1,0.3,0.1c0.1,0,0.3,0,0.4-0.1c0.2-0.1,0.3-0.3,0.3-0.5v-0.3c0,0-0.1,0-0.2,0.1
				s-0.1,0-0.2,0h-0.2c-0.1,0-0.2,0-0.3,0.1c-0.1,0.1-0.2,0.2-0.2,0.3C359.6,43.3,359.6,43.3,359.7,43.4"/>
			<path class="st2" d="M361.7,41.5h0.4v0.3c0.1-0.1,0.2-0.2,0.2-0.2c0.1-0.1,0.3-0.1,0.5-0.1c0.3,0,0.5,0.1,0.7,0.3
				s0.3,0.5,0.3,0.8c0,0.5-0.1,0.9-0.4,1.1c-0.2,0.1-0.4,0.2-0.6,0.2s-0.3,0-0.4-0.1c-0.1,0-0.1-0.1-0.2-0.2v1.2h-0.4L361.7,41.5
				 M363.1,43.3c0.1-0.2,0.2-0.4,0.2-0.7c0-0.2,0-0.3-0.1-0.5c-0.1-0.3-0.3-0.4-0.5-0.4s-0.4,0.1-0.5,0.4c0,0.1-0.1,0.3-0.1,0.5
				s0,0.3,0.1,0.5s0.3,0.4,0.5,0.4C362.9,43.5,363,43.4,363.1,43.3"/>
			<path class="st2" d="M364.6,41.5V43c0,0.1,0,0.2,0,0.3c0.1,0.1,0.2,0.2,0.4,0.2c0.3,0,0.4-0.1,0.5-0.4c0-0.1,0.1-0.3,0.1-0.5
				v-1.1h0.4v2.3h-0.4v-0.3c0,0.1-0.1,0.2-0.2,0.2c-0.1,0.1-0.3,0.2-0.5,0.2c-0.3,0-0.5-0.1-0.6-0.3c-0.1-0.1-0.1-0.3-0.1-0.5v-1.5
				L364.6,41.5"/>
			<path class="st2" d="M366.7,40.6h0.4v1.1c0.1-0.1,0.2-0.2,0.3-0.2s0.2-0.1,0.4-0.1c0.3,0,0.5,0.1,0.7,0.3s0.3,0.5,0.3,0.9
				s-0.1,0.7-0.3,0.9c-0.2,0.2-0.4,0.4-0.7,0.4c-0.2,0-0.3,0-0.4-0.1c-0.1,0-0.1-0.1-0.2-0.2v0.3h-0.4L366.7,40.6 M368.1,43.3
				c0.1-0.2,0.2-0.4,0.2-0.7c0-0.2,0-0.4-0.2-0.6c-0.1-0.2-0.2-0.2-0.5-0.2c-0.2,0-0.3,0.1-0.5,0.2s-0.2,0.3-0.2,0.7
				c0,0.2,0,0.4,0.1,0.5c0.1,0.3,0.3,0.4,0.6,0.4C367.9,43.5,368,43.4,368.1,43.3"/>
			<polyline class="st2" points="369.1,40.6 369.5,40.6 369.5,43.8 369.1,43.8 369.1,40.6 			"/>
			<path class="st2" d="M370.2,40.6h0.4v0.5h-0.4V40.6 M370.2,41.5h0.4v2.3h-0.4V41.5"/>
			<path class="st2" d="M372.7,41.6c0.2,0.1,0.3,0.3,0.3,0.6h-0.4c0-0.1-0.1-0.2-0.1-0.3c-0.1-0.1-0.2-0.1-0.4-0.1
				c-0.2,0-0.4,0.1-0.5,0.4c-0.1,0.2-0.1,0.3-0.1,0.6c0,0.2,0,0.4,0.1,0.6c0.1,0.2,0.2,0.2,0.5,0.2c0.2,0,0.3,0,0.4-0.2
				c0.1-0.1,0.2-0.2,0.2-0.4h0.4c0,0.3-0.1,0.5-0.3,0.7s-0.4,0.2-0.6,0.2c-0.3,0-0.5-0.1-0.7-0.3s-0.3-0.5-0.3-0.8
				c0-0.4,0.1-0.7,0.3-0.9c0.2-0.2,0.4-0.3,0.7-0.3C372.3,41.4,372.5,41.5,372.7,41.6"/>
			<path class="st2" d="M373.4,40.6h0.4v0.5h-0.4V40.6 M373.4,41.5h0.4v2.3h-0.4V41.5"/>
			<path class="st2" d="M375.7,41.5c0.1,0,0.1,0.1,0.2,0.2v-1.1h0.4v3.1h-0.4v-0.3c-0.1,0.1-0.2,0.2-0.3,0.3
				c-0.1,0.1-0.3,0.1-0.4,0.1c-0.2,0-0.5-0.1-0.6-0.3s-0.3-0.5-0.3-0.8s0.1-0.6,0.2-0.9c0.2-0.2,0.4-0.4,0.7-0.4
				C375.4,41.4,375.5,41.5,375.7,41.5 M374.8,43.3c0.1,0.2,0.3,0.2,0.5,0.2s0.3-0.1,0.4-0.2c0.1-0.2,0.2-0.4,0.2-0.7
				s-0.1-0.5-0.2-0.7c-0.1-0.1-0.3-0.2-0.4-0.2c-0.2,0-0.3,0.1-0.5,0.2c-0.1,0.2-0.2,0.4-0.2,0.7C374.7,42.9,374.7,43.1,374.8,43.3"
				/>
			<path class="st2" d="M378.1,42.4c0.1,0,0.1,0,0.2-0.1v-0.1c0-0.1,0-0.2-0.1-0.3s-0.2-0.1-0.4-0.1c-0.2,0-0.3,0-0.4,0.2
				c0,0.1-0.1,0.2-0.1,0.3h-0.4c0-0.3,0.1-0.5,0.3-0.6c0.2-0.1,0.4-0.2,0.6-0.2c0.3,0,0.5,0,0.6,0.2c0.2,0.1,0.2,0.3,0.2,0.5v1.3
				v0.1c0,0,0,0,0.1,0c0,0,0,0,0.1,0s0,0,0.1,0v0.3c-0.1,0-0.1,0-0.1,0h-0.1c-0.1,0-0.2,0-0.3-0.1c0,0,0-0.1-0.1-0.2
				c-0.1,0.1-0.2,0.2-0.3,0.3s-0.3,0.1-0.5,0.1s-0.4-0.1-0.5-0.2c-0.1-0.1-0.2-0.3-0.2-0.5s0.1-0.4,0.2-0.5s0.3-0.2,0.5-0.2
				L378.1,42.4 M377.3,43.4c0.1,0.1,0.2,0.1,0.3,0.1c0.1,0,0.3,0,0.4-0.1c0.2-0.1,0.3-0.3,0.3-0.5v-0.3c0,0-0.1,0-0.2,0.1
				s-0.1,0-0.2,0h-0.2c-0.1,0-0.2,0-0.3,0.1c-0.1,0.1-0.2,0.2-0.2,0.3C377.2,43.3,377.2,43.3,377.3,43.4"/>
			<path class="st2" d="M380.6,41.5c0.1,0,0.1,0.1,0.2,0.2v-1.1h0.4v3.1h-0.3v-0.3c-0.1,0.1-0.2,0.2-0.3,0.3
				c-0.1,0.1-0.3,0.1-0.4,0.1c-0.2,0-0.5-0.1-0.7-0.3s-0.3-0.5-0.3-0.8s0.1-0.6,0.2-0.9c0.2-0.2,0.4-0.4,0.7-0.4
				C380.3,41.4,380.5,41.5,380.6,41.5 M379.8,43.3c0.1,0.2,0.3,0.2,0.5,0.2s0.3-0.1,0.4-0.2c0.1-0.2,0.2-0.4,0.2-0.7
				s-0.1-0.5-0.2-0.7c-0.1-0.1-0.3-0.2-0.4-0.2c-0.2,0-0.3,0.1-0.5,0.2c-0.1,0.2-0.2,0.4-0.2,0.7C379.6,42.9,379.7,43.1,379.8,43.3"
				/>
			<path class="st1" d="M381.8,41.5h0.4v0.3c0.1-0.1,0.2-0.2,0.2-0.2c0.1-0.1,0.3-0.1,0.4-0.1c0.2,0,0.3,0,0.4,0.1
				c0.1,0,0.1,0.1,0.2,0.2c0.1-0.1,0.2-0.2,0.3-0.3s0.2-0.1,0.4-0.1c0.3,0,0.5,0.1,0.6,0.3c0.1,0.1,0.1,0.3,0.1,0.5v1.5h-0.4v-1.6
				c0-0.2,0-0.3-0.1-0.3c-0.1-0.1-0.2-0.1-0.3-0.1c-0.1,0-0.3,0-0.4,0.2c-0.1,0.1-0.2,0.3-0.2,0.5v1.3H383v-1.5c0-0.2,0-0.3-0.1-0.3
				c-0.1-0.1-0.2-0.2-0.3-0.2c-0.1,0-0.3,0.1-0.4,0.2c-0.1,0.1-0.2,0.3-0.2,0.6v1.2h-0.4L381.8,41.5"/>
			<path class="st1" d="M386.9,41.5c0.1,0.1,0.3,0.2,0.4,0.3s0.1,0.2,0.1,0.4c0,0.1,0,0.3,0,0.5h-1.7c0,0.2,0.1,0.4,0.2,0.6
				c0.1,0.1,0.3,0.2,0.5,0.2s0.4-0.1,0.5-0.2c0.1-0.1,0.1-0.2,0.1-0.3h0.4c0,0.1,0,0.2-0.1,0.3s-0.1,0.2-0.2,0.2
				c-0.1,0.1-0.3,0.2-0.4,0.2s-0.2,0-0.3,0c-0.3,0-0.5-0.1-0.7-0.3s-0.3-0.5-0.3-0.9s0.1-0.7,0.3-0.9c0.2-0.2,0.5-0.3,0.8-0.3
				C386.6,41.4,386.8,41.5,386.9,41.5 M387,42.4c0-0.2,0-0.3-0.1-0.4c-0.1-0.2-0.3-0.3-0.5-0.3s-0.3,0.1-0.4,0.2
				c-0.1,0.1-0.2,0.3-0.2,0.5H387"/>
			<path class="st1" d="M389.2,41.5c0.1,0,0.1,0.1,0.2,0.2v-1.1h0.4v3.1h-0.4v-0.3c-0.1,0.1-0.2,0.2-0.3,0.3
				c-0.1,0.1-0.3,0.1-0.4,0.1c-0.2,0-0.5-0.1-0.6-0.3s-0.3-0.5-0.3-0.8s0.1-0.6,0.2-0.9c0.2-0.2,0.4-0.4,0.7-0.4
				C388.9,41.4,389.1,41.5,389.2,41.5 M388.4,43.3c0.1,0.2,0.3,0.2,0.5,0.2s0.3-0.1,0.4-0.2c0.1-0.2,0.2-0.4,0.2-0.7
				s-0.1-0.5-0.2-0.7c-0.1-0.1-0.3-0.2-0.4-0.2c-0.2,0-0.3,0.1-0.5,0.2c-0.1,0.2-0.2,0.4-0.2,0.7S388.3,43.1,388.4,43.3"/>
			<path class="st1" d="M390.4,40.6h0.4v0.5h-0.4V40.6 M390.4,41.5h0.4v2.3h-0.4V41.5"/>
			<path class="st1" d="M393.1,41.7c0.2,0.2,0.3,0.5,0.3,0.9s-0.1,0.7-0.3,0.9s-0.5,0.4-0.8,0.4s-0.6-0.1-0.7-0.3s-0.3-0.5-0.3-0.8
				c0-0.4,0.1-0.7,0.3-0.9c0.2-0.2,0.5-0.3,0.8-0.3C392.7,41.4,392.9,41.5,393.1,41.7 M392.9,43.2c0.1-0.2,0.1-0.4,0.1-0.7
				c0-0.2,0-0.4-0.1-0.5c-0.1-0.2-0.3-0.3-0.6-0.3c-0.2,0-0.4,0.1-0.5,0.3s-0.2,0.4-0.2,0.7c0,0.2,0,0.5,0.2,0.6
				c0.1,0.2,0.3,0.2,0.5,0.2C392.6,43.5,392.8,43.4,392.9,43.2"/>
			<path class="st1" d="M394.1,43c0,0.1,0,0.2,0.1,0.3s0.3,0.2,0.5,0.2c0.1,0,0.3,0,0.4-0.1s0.2-0.2,0.2-0.3s0-0.2-0.1-0.2
				s-0.2-0.1-0.3-0.1l-0.3-0.1c-0.2,0-0.3-0.1-0.4-0.2c-0.2-0.1-0.2-0.2-0.2-0.4s0.1-0.4,0.2-0.5c0.2-0.1,0.4-0.2,0.6-0.2
				c0.3,0,0.6,0.1,0.7,0.3c0.1,0.1,0.1,0.3,0.1,0.4h-0.4c0-0.1,0-0.2-0.1-0.2c-0.1-0.1-0.2-0.2-0.5-0.2c-0.1,0-0.2,0-0.3,0.1
				c-0.1,0.1-0.1,0.1-0.1,0.2c0,0.1,0,0.2,0.1,0.2s0.1,0.1,0.2,0.1l0.2,0.1c0.3,0.1,0.5,0.1,0.5,0.2c0.1,0.1,0.2,0.2,0.2,0.5
				c0,0.2-0.1,0.4-0.2,0.5c-0.1,0.2-0.4,0.2-0.7,0.2c-0.3,0-0.6-0.1-0.7-0.2c-0.1-0.2-0.2-0.3-0.2-0.6H394.1"/>
		</g>
	</g>
	<g id="Page-1_00000115489943111704869400000010814209765558575769_">
		<path id="Cannes-Lions-Logo_00000085228771564535881990000003137843420304176314_" class="st1" d="M158.9,48.3
			c-0.4-0.3-1.4-1.4-2.1-3.7s-1.6-3.9-0.1-6.2s1.6-4.4,1.8-5.2s0.1-1.9,2-2.8c1.8-0.9,3.2-1.1,4.6-1.6s2.7-1.6,3.4-2
			c0.7-0.5,3-0.5,3.9,0.7c1,1.4,6.3,1.8,7,2.8c0.9,1.1,0.2,2.4-0.2,2.9c-0.9,1-4.9,4.4-5.3,4.4s-0.1-1,0.2-1.9
			c0.4-0.9,0.9-1.5,0.7-2.5c-0.1-0.8-0.7-1.5-1.8-2.2c-1.6-1-4.6-1.6-5.6-1.1c-1.9,0.8-2.5,2.5-2.7,3.8s-0.3,2.9-1.5,4.9
			s-1.9,3.1-1.6,4.3s1.2,3.1,1.3,4.2c0.1,1.1,0,2-0.3,3.2s-0.4,2,0,2.7c0.4,0.8,0.5,0.9,0.6,1s0.1,0.3-0.1,0.1
			c-0.3-0.2-1.7-1.6-2.3-3.2c-0.5-1.5,0-3.8-0.2-4.5c-0.2-0.8-1.7-2.9-1.5-4.6c0.1-1.8,1.5-3.7,2.1-4.6c0.6-1,1.9-2.8,2.2-3.7
			c0.3-0.8,0.9-2.4,1.1-2.8c0,0-0.2,0.2-1.5,1.7c-1.2,1.5-2.3,2.6-2.7,4c-0.3,1.4-1.1,2.7-2.2,3.5c-1,0.9-0.4,2.1-0.1,3.5
			s0.6,2,1.4,3.4s0.4,2.6,0.5,2.8C160,49.8,159.3,48.5,158.9,48.3z M168.9,47.1c0-0.3,0.4-1.3,0.5-1.9c0-0.6,0.1-1.1-0.3-1
			s-0.9,0.1-1.1,0s-0.2-0.3,0-0.3s1-0.2,1.4-0.5s0.5-0.6,0.6-0.8s0.1-0.3-0.2-0.1s-1,0.6-1.2,0.8c-0.3,0.2-0.8,0.3-0.8,0.4
			s0.1,0.8,0.1,1.5s-0.1,1.8-0.3,1.7c-0.2-0.2-0.1-0.7-0.4-1s-0.7-0.9-0.7-1.4c0-0.6,0.1-0.7,0-1s-0.1-0.8,0.2-0.8s0.4,0.2,1,0.1
			c0.6-0.1,1.2-0.5,1.7-0.9s1.3-1.3,1.8-1.4c0.5-0.1,0.8,0,1.1-0.5c0.4-0.5,0.8-0.9,1-1c0.2-0.2,0.4-0.3,0.5-0.3s-0.7,2-2.1,4.3
			c-1.3,2.3-2.1,3.7-2.4,4C169.1,47.1,168.8,47.4,168.9,47.1z M177.9,28.2c-1.9-0.4-3.7,0.1-5.2-1c-0.1-0.1-0.2-0.4,0-0.4
			c1.7-0.1,3.8-0.5,5.5,0c0.1,0,3.5,1.7,4.9,3.3c0.7,0.8,2.2,2.4,2,3.4s-0.6,1.5-2.1,2.2c-0.9,0.5-7.5,1.9-7.6,1.9
			c-1.1,0.3-0.8-0.2-0.3-0.6c0.5-0.4,1.1-0.9,2.7-1.9s2.3-1.4,2.9-2.1C181.7,31.9,181,29.2,177.9,28.2z M179.6,63.4
			c4.7-6,12.1-3.6,12.5-2.5c-9.5-1.1-8.6,6.2-14,8.2c-2.6,0.9-10,0.4-17,6.6c-2.2,1.5-5.7,0.6-6.6,0.6s-2.2-0.1-2.8,0.1
			s-0.9,0.1-1.2-0.1s-0.7-0.3-1.4-0.6c-0.6-0.3-1.1-0.3-1.1-0.3s-0.7-1.4-0.4-2.3s0.9-1.6,1.4-1.8c0.4-0.2,0.5-0.3,0.5-0.3
			s0-0.1-0.2-0.1s-0.5,0.3-0.6,0.3s-0.1-0.2,0-0.4c0.1-0.2,1.2-1.2,2.6-1.2c1.5,0.1,2.7,0.7,3.7,0.5s3-1,5.5-2.9
			c2.6-1.9,5.2-4.7,8.4-7c3.1-2.3,5.5-3.7,6.2-4.1c0.7-0.3,0.8-0.4,0.9-0.5s0.1-0.2-0.5,0s-3,0.9-3.9,1.6c-1,0.7-1.4,1.3-1.4,1.3
			s0.1-1,0.9-1.9c0.8-0.8,0.9-0.9,1-1c0.2-0.1,0.1-0.2-0.2,0s-1.5,1.4-2,2.1c-0.5,0.7-0.7,1-2.2,1.3c-1.5,0.2-2.8,0.6-3.4,1.1
			s-0.8,1.1-0.8,1.1s-0.2,0.3-0.2-0.1s0.2-2,2-3.3s2.5-1.9,2.8-2.1c0.3-0.2,0.3-0.3,0-0.3c-0.2,0-2.2,0.4-3.1,1.1
			c-0.9,0.7-1.2,1-1.2,1s-0.2,0.1-0.2-0.4c0.1-0.4,0.5-1.8,1.7-2.5c1.1-0.8,2.4-1.1,2.4-1.1v-1.1c0,0-2.5-1.3-3-1.7
			s-1.1-0.9-0.7-3.4s0.5-3,0.5-3.3c0-0.2-1-1-0.8-2.4s0.8-2.2,0.8-2.2s-0.1,1.7,0,2.6c0,0.9,0,1.4,0.3,1.8s0.3,0.2,0.4,0.5
			s-0.5,2.8-0.6,3.8s-0.5,1.8,0.2,1.7s0.5-0.3,0.7-0.5s0.6-0.3,0.9-0.2s0.5,0.2,0.8,0.2c0.3-0.1,1.1,0,0.7,0.6c-0.5,0.6-1.2,0.4-1,1
			c0.2,0.5,2.9,2.2,3.8,1.6c1.2-0.7,1.8-0.9,1.8-1.4s-0.9-1.2-1.5-0.9s-1.7,0.7-2.4,0.6c-0.6-0.1-0.8-0.4-0.6-0.4s0.9,0.2,1.5-0.5
			s5.8-3.3,6.7-4.8s-0.5-5.2,0.2-5.9s5.9-1.8,6.9-2.2c2-0.7,3.3-2.4,2.9-4c-0.2-0.9-1.5-2.4-2.8-3.2c-0.3-0.2,6.5,0.8,6.6,7.5
			c0.1,2.9,4.3,5.5,3.8,8.7c-0.4,2.4-2.8,4.2-3.7,4.8c0.6,0,1.2,0,1.8,0.1c1,0.1,2,0.8,2,0.8s-6.9,0.8-9.2,2
			c-3.8,1.8-8.6,4.1-14,8.3c-5.1,3.9-7.6,6.2-13.3,9.2c-1.9,1-3.7,1.1-4.6,1.3s-1.7,0.7-1.9,1.2c-0.1,0.6-0.1,1.2,0.1,1.4
			s0.3,0.1,0.4-0.2c0.1-0.3,0-1.3,0.6-1.7c0.6-0.4,1.1-0.3,2.6-0.5s2.4-0.6,2.7-0.6c0.3-0.1,0.6,0,0.1,0.3c-0.4,0.3-1.3,0.9-2.4,1.1
			s-1.7,0.3-2,0.5s-0.3,0.6-0.3,0.6s0.8-0.1,1.2,0s1.2,0.5,2.1,0.6s2.5,0.4,3.8-0.9c0.8-0.7,3.6-3.7,7.8-5.3
			C171.3,67.2,176.5,67.3,179.6,63.4z M189,49.6c-0.5,0.5-0.8,0.9-1.4,1.2c0.7-0.1,1.5-0.2,2.2-0.2c0.9-1.3,2.1-4.2,1.7-6.2
			C191.4,45.3,191.1,47.5,189,49.6z M187.9,42.8c-0.9-1.9-4.1-4.2-4.6-4.3c0.2,0.2,2.8,4,2.9,4.3c0.7,1.6,1.2,2.9,0.9,4.3
			c-0.3,1.4-1.2,2.5-2.2,3.5c0.6-0.3,1.4-0.7,1.8-1.1C187.3,49,189.6,45.7,187.9,42.8z M180,39.7c1.6,4.1,0,9.6-0.2,10.2
			c-0.2,0.5-1.8,3.6-1.8,3.6s3.3-2.6,4.2-6.3C182.7,44.8,179.9,39.5,180,39.7z M173.9,50.3c0,0,3.8-1.4,4.2-2.7
			c0.3-0.9,0.2-2.3,0.1-2.5C178,44.9,174.9,49.7,173.9,50.3z M149.3,73.6c0.6-1.4,2.2-2,1.8-2.1c-1.6-0.3-2.3,1.2-2.3,1.4
			C148.5,73.3,149.1,74,149.3,73.6z M171.9,34.5c-0.6-0.8-2.8-1.2-3.6-0.4l-4.6,5.3c-0.1,0.2,2.1-4.8,2.3-5.4c0.3-1.5,1-3.4,3.3-3.3
			c0.6,0,4.1,1.2,4.6,2.2s-1,3.8-1.4,3.9C172,36.8,172.3,35,171.9,34.5z M91.6,67.2H80.3V48.6h4.8v14.7h6.5L91.6,67.2L91.6,67.2z
			 M94,48.6h4.8v18.7H94V48.6z M121.4,54.1c0.5,1.2,0.8,2.5,0.8,3.8s-0.3,2.6-0.8,3.8s-1.3,2.2-2.3,3.1c-1,0.9-2.2,1.6-3.4,2.1
			c-1.3,0.5-2.6,0.7-4,0.7c-1.2,0-2.4-0.2-3.5-0.6s-2.2-0.9-3.2-1.7c-1.2-0.9-2.2-2.1-2.9-3.3c-0.7-1.3-1-2.7-1-4.2
			c0-1.3,0.3-2.6,0.8-3.8s1.3-2.2,2.3-3.1c1-0.9,2.1-1.6,3.4-2.1c2.6-1,5.4-1,8,0c1.3,0.5,2.4,1.2,3.4,2.1
			C120.1,51.9,120.9,53,121.4,54.1z M115.7,62c1.1-1.1,1.6-2.4,1.6-4s-0.5-3-1.6-4.1s-2.4-1.6-4-1.6s-3,0.5-4,1.6
			c-1.1,1.1-1.6,2.5-1.6,4.1s0.5,3,1.6,4.1s2.4,1.6,4.1,1.6C113.3,63.6,114.7,63.1,115.7,62z M129.2,67.4h-4.6V48.7h4.7l9.4,11.9
			V48.7h4.6v18.7h-4.5l-9.6-12.1V67.4z M152.1,67.8c-1.5,0-2.8-0.2-3.9-0.7s-1.9-1.2-2.5-2.2l-0.1-0.2l2.8-3l0.2,0.5
			c0.3,0.6,0.7,1.1,1.2,1.4c0.6,0.3,1.2,0.5,2,0.5c0.9,0,1.6-0.2,2-0.6c0.5-0.4,0.7-0.8,0.7-1.4c0-0.7-0.9-1.5-2.6-2.2
			c-0.6-0.3-1.1-0.5-1.4-0.7c-1.7-0.8-2.9-1.7-3.6-2.5s-1-1.9-1-3c0-1.6,0.7-2.9,2-3.9s3-1.5,5-1.5c1.2,0,2.2,0.2,3.1,0.6
			c0.9,0.4,1.7,1,2.3,1.9l0.2,0.3l-3,2.7l-0.2-0.4c-0.2-0.5-0.6-0.8-1-1s-0.9-0.3-1.5-0.3c-0.7,0-1.3,0.2-1.7,0.5s-0.6,0.7-0.6,1.2
			c0,0.8,0.9,1.6,2.7,2.3c0.4,0.2,0.7,0.3,0.9,0.4c1.6,0.7,2.9,1.5,3.7,2.5c0.8,0.9,1.2,2,1.2,3.2c0,1.8-0.7,3.2-2,4.3
			C156,67.3,154.3,67.8,152.1,67.8z M85.5,46.9c-2.1,0-3.9-0.6-5.2-1.8c-1.4-1.2-2.1-2.8-2.1-4.8c0-1.9,0.7-3.5,2-4.8
			c1.4-1.2,3.1-1.9,5.2-1.9c0.7,0,1.4,0.1,2.1,0.2s1.3,0.4,2,0.7l0.2,0.1l-0.1,3.5L89,37.6c-0.5-0.4-1.1-0.8-1.6-1s-1.1-0.3-1.7-0.3
			c-1.2,0-2.3,0.4-3,1.1c-0.7,0.7-1.1,1.6-1.1,2.8s0.3,2.1,1,2.8s1.6,1,2.8,1c0.7,0,1.3-0.1,1.9-0.3s1.1-0.5,1.6-1l0.6-0.5v3.6
			l-0.2,0.1c-0.6,0.3-1.2,0.6-1.9,0.8C87,46.8,86.3,46.9,85.5,46.9z M99.5,33.9l5.2,12.7h-3.8l-1-2.5h-4.4l-0.9,2.5h-3.7l5-12.7
			H99.5z M96.3,41.4h2.5L97.6,38v-0.1c0,0.1,0,0.1-0.1,0.2L96.3,41.4z M109,38.9v7.7h-3.3V33.9h3.3l6.1,7.6v-7.6h3.3v12.7h-3.2
			L109,38.9z M123.7,46.6h-3.3V33.9h3.3l6.1,7.6v-7.6h3.3v12.7h-3.2l-6.2-7.7L123.7,46.6L123.7,46.6z M143.2,46.6h-8.1V33.9h8.1v2.8
			h-4.8v1.8h4.8v2.9h-4.8v2.3h4.8V46.6z M149.2,46.9c-1,0-1.9-0.2-2.6-0.5c-0.8-0.3-1.3-0.8-1.7-1.5l-0.1-0.2l2-2.2L147,43
			c0.2,0.4,0.4,0.7,0.8,0.9s0.8,0.3,1.2,0.3c0.5,0,1-0.1,1.3-0.4c0.3-0.2,0.4-0.5,0.4-0.9c0-0.2-0.2-0.7-1.6-1.4
			c-0.4-0.2-0.7-0.3-1-0.5c-1.2-0.6-2-1.1-2.4-1.7c-0.5-0.6-0.7-1.3-0.7-2.1c0-1.1,0.5-2,1.4-2.7s2-1,3.4-1c0.8,0,1.5,0.1,2.1,0.4
			s1.1,0.7,1.6,1.3l0.2,0.2l-2.2,2l-0.2-0.4c-0.2-0.3-0.4-0.5-0.6-0.7c-0.3-0.1-0.6-0.2-1-0.2c-0.5,0-0.8,0.1-1.1,0.3
			c-0.2,0.2-0.4,0.4-0.4,0.7c0,0.5,0.6,1,1.7,1.4c0.3,0.1,0.5,0.2,0.6,0.2c1.1,0.5,2,1,2.5,1.7c0.6,0.7,0.9,1.4,0.9,2.2
			c0,1.2-0.5,2.2-1.3,3C151.8,46.5,150.7,46.9,149.2,46.9z"/>
	</g>
	<g>
		<g>
			<path class="st1" d="M19.7,47.9l-4.1,15.4h-5.1L2.8,39.5h5.9l4.2,16.3l4-16.3h2.8"/>
		</g>
		<g>
			<path class="st1" d="M19.7,39.5h2.8l4,16.3l4.2-16.3h5.9L29,63.3h-5.1l-4.1-15.4"/>
		</g>
		<ellipse class="st1" cx="44.1" cy="59.6" rx="4" ry="4"/>
	</g>
</g>
</svg>
