<?xml version="1.0" encoding="utf-8"?>
<!-- Generator: Adobe Illustrator 28.0.0, SVG Export Plug-In . SVG Version: 6.00 Build 0)  -->
<svg version="1.1" id="Capa_1" xmlns="http://www.w3.org/2000/svg" xmlns:xlink="http://www.w3.org/1999/xlink" x="0px" y="0px"
	 viewBox="0 0 37.4 52.3" style="enable-background:new 0 0 37.4 52.3;" xml:space="preserve">
<g>
	<g>
		<path d="M20.2,8.6l-2.3-8h1.4l1.7,6l1.6-6H24l1.7,6l1.7-6h1.4l-2.3,8H25l-1.6-6l-1.6,6H20.2z"/>
		<path d="M28.7,5.6c0-2,1.3-3.3,3-3.3s2.9,1.2,2.9,3.2v0.3H30c0.1,1.1,0.8,1.8,1.8,1.8c0.7,0,1.2-0.3,1.4-1h1.3
			c-0.3,1.3-1.3,2.1-2.8,2.1C30,8.7,28.7,7.4,28.7,5.6z M33.2,4.9C33,4,32.5,3.5,31.7,3.5S30.3,4,30.1,4.9H33.2z"/>
		<path d="M6.8,18.8v-8h1.7l2.5,6.4l2.5-6.4h1.7v8h-1.4v-5.7l-2.2,5.7h-1.2l-2.2-5.7v5.7H6.8z"/>
		<path d="M16.2,17.1c0-1.4,1.4-1.7,2.6-1.9c0.9-0.1,1.6-0.1,1.6-0.6c0-0.6-0.5-1-1.3-1s-1.4,0.4-1.5,1.1h-1.4
			c0.1-1.3,1.3-2.2,2.8-2.2c1.6,0,2.6,0.9,2.6,2.2v2.8c0,0.2,0.1,0.3,0.3,0.3h0.3v1.1h-0.6c-0.6,0-1-0.3-1.1-0.7
			c0-0.1,0-0.1-0.1-0.2c-0.4,0.7-1,1-2.1,1C17.1,18.9,16.2,18.2,16.2,17.1z M20.4,16.5v-0.8c-0.2,0.4-0.8,0.4-1.5,0.5
			c-0.8,0.1-1.4,0.2-1.4,0.8c0,0.5,0.4,0.8,1.2,0.8C19.7,17.9,20.4,17.3,20.4,16.5z"/>
		<path d="M23,18.8v-8.6h1.4v5.2l2.6-2.6h1.7L26.5,15l2.5,3.9h-1.6l-1.9-3L24.4,17v1.9H23V18.8z"/>
		<path d="M28.7,15.8c0-2,1.3-3.3,3-3.3s2.9,1.2,2.9,3.2V16H30c0.1,1.1,0.8,1.8,1.8,1.8c0.7,0,1.2-0.3,1.4-1h1.3
			c-0.3,1.3-1.3,2.1-2.8,2.1C30,19,28.7,17.6,28.7,15.8z M33.2,15.1c-0.2-0.9-0.7-1.4-1.5-1.4s-1.4,0.5-1.6,1.4H33.2z"/>
		<path d="M5.9,25c0-2.4,1.5-4.2,4-4.2c2.1,0,3.5,1.2,3.9,3.3h-1.4c-0.3-1.3-1.2-2-2.5-2c-1.6,0-2.6,1.1-2.6,2.9s1,3,2.6,3
			c1.3,0,2.1-0.8,2.1-2H9.5v-1.2h2.7c1,0,1.6,0.5,1.6,1.5V29h-1.2v-2.5l0,0c-0.2,1.6-1.2,2.6-2.9,2.6C7.5,29.2,5.9,27.5,5.9,25z"/>
		<path d="M14.6,25.9c0-2,1.3-3.2,3.1-3.2c2,0,3.1,1.4,3.1,3.2c0,2.1-1.3,3.3-3.1,3.3C15.8,29.2,14.6,27.8,14.6,25.9z M19.5,25.9
			c0-1.2-0.7-2-1.7-2c-1.1,0-1.7,0.8-1.7,2c0,1.3,0.7,2.1,1.7,2.1C18.9,28,19.5,27.1,19.5,25.9z"/>
		<path d="M21.4,25.9c0-2,1.3-3.2,3.1-3.2c2,0,3.1,1.4,3.1,3.2c0,2.1-1.3,3.3-3.1,3.3C22.5,29.2,21.4,27.8,21.4,25.9z M26.2,25.9
			c0-1.2-0.7-2-1.7-2c-1.1,0-1.7,0.8-1.7,2c0,1.3,0.7,2.1,1.7,2.1C25.6,28,26.2,27.1,26.2,25.9z"/>
		<path d="M28.1,25.9c0-1.9,1.2-3.2,2.8-3.2c0.9,0,1.6,0.4,2,0.9v-3.3h1.4V29h-1.1L33,27.9c-0.3,0.8-1.1,1.3-2.1,1.3
			C29.3,29.2,28.1,27.9,28.1,25.9z M32.9,25.9c0-1.2-0.7-2-1.7-2s-1.7,0.8-1.7,2.1c0,1.2,0.7,2.1,1.7,2.1
			C32.2,28,32.9,27.2,32.9,25.9z"/>
		<path d="M14.6,36.8H16c0.1,0.9,0.9,1.4,2.2,1.4c1,0,1.6-0.4,1.6-1.1c0-0.6-0.5-0.9-1.3-1.1l-1.3-0.4c-0.9-0.3-2.4-0.7-2.4-2.3
			c0-1.3,1.1-2.3,2.9-2.3c1.9,0,3.2,1,3.3,2.7h-1.4c-0.1-0.9-0.7-1.5-1.9-1.5c-0.9,0-1.5,0.4-1.5,1c0,0.7,0.7,0.9,1.5,1.1l1.2,0.4
			c1.1,0.4,2.3,0.8,2.3,2.3s-1.2,2.4-3,2.4C16.1,39.4,14.7,38.3,14.6,36.8z"/>
		<path d="M22.1,39.2v-8.6h1.4v3.2c0.4-0.5,1.1-0.8,1.9-0.8c1.3,0,2.1,0.9,2.1,2.2v4h-1.4v-4c0-0.7-0.4-1.1-1.2-1.1
			c-0.9,0-1.5,0.6-1.5,1.4v3.7C23.4,39.2,22.1,39.2,22.1,39.2z"/>
		<path d="M28.4,31.4c0-0.5,0.4-0.9,0.9-0.9s0.9,0.4,0.9,0.9s-0.4,0.9-0.9,0.9C28.7,32.3,28.4,31.9,28.4,31.4z M28.6,39.2v-6.1H30
			v6.1H28.6z"/>
		<path d="M33.8,39.2c-1.3,0-2-0.7-2-1.9v-3.1h-1.1v-1.1h1.1V31h1.4v2.1h1.6v1.1h-1.6v3c0,0.5,0.3,0.8,0.8,0.8h0.7v1.1h-0.9V39.2z"
			/>
		<path d="M2.7,49.5v-6.8H0v-1.2h6.7v1.2H4.1v6.8H2.7z"/>
		<path d="M7.6,49.5v-8.6H9V44c0.4-0.5,1.1-0.8,1.9-0.8c1.3,0,2.1,0.9,2.1,2.2v4h-1.4v-4c0-0.7-0.4-1.1-1.2-1.1
			c-0.9,0-1.5,0.6-1.5,1.4v3.7L7.6,49.5L7.6,49.5z"/>
		<path d="M13.8,41.7c0-0.5,0.4-0.9,0.9-0.9s0.9,0.4,0.9,0.9s-0.4,0.9-0.9,0.9C14.2,42.5,13.8,42.2,13.8,41.7z M14,49.5v-6.1h1.4
			v6.1H14z"/>
		<path d="M16.5,49.5v-6.1h1.1l0.1,0.9c0.4-0.6,1.1-1.1,2.1-1.1c1.3,0,2.1,0.9,2.1,2.2v4h-1.4v-4c0-0.7-0.4-1.1-1.2-1.1
			c-0.9,0-1.5,0.6-1.5,1.4v3.7L16.5,49.5L16.5,49.5z"/>
		<path d="M22.9,49.8h1.4c0,0.6,0.6,1,1.5,1c1.1,0,1.6-0.6,1.6-1.6v-0.9c-0.4,0.6-1.1,1-1.9,1c-1.6,0-2.8-1.3-2.8-3.1
			s1.2-3.1,2.8-3.1c1,0,1.7,0.4,2.1,1.1l0.1-0.9h1.1v5.9c0,1.6-1.1,2.7-3,2.7C24.1,51.9,22.9,51.1,22.9,49.8z M27.4,46.3
			c0-1.1-0.7-1.9-1.7-1.9s-1.7,0.8-1.7,2c0,1.1,0.7,1.9,1.7,1.9S27.4,47.4,27.4,46.3z"/>
		<path d="M29.6,47.5h1.3c0,0.7,0.6,1,1.4,1c0.7,0,1.1-0.3,1.1-0.7c0-0.5-0.4-0.6-0.9-0.7l-0.8-0.3c-1-0.3-1.9-0.7-1.9-1.8
			s0.8-1.8,2.3-1.8c1.4,0,2.4,0.7,2.5,2.1h-1.3c-0.1-0.7-0.6-1-1.3-1c-0.6,0-0.9,0.3-0.9,0.7c0,0.5,0.5,0.6,1,0.7l0.7,0.2
			c1.2,0.4,1.9,0.8,1.9,1.9c0,1.1-0.8,1.8-2.3,1.8C30.7,49.6,29.7,48.8,29.6,47.5z"/>
	</g>
	<path d="M12.2,36.3v-1.4h25.3v1.4H12.2z"/>
</g>
</svg>
