<?xml version="1.0" encoding="utf-8"?>
<!-- Generator: Adobe Illustrator 28.0.0, SVG Export Plug-In . SVG Version: 6.00 Build 0)  -->
<svg version="1.1" id="Capa_1" xmlns="http://www.w3.org/2000/svg" xmlns:xlink="http://www.w3.org/1999/xlink" x="0px" y="0px"
	 viewBox="0 0 348.4 116.9" style="enable-background:new 0 0 348.4 116.9;" xml:space="preserve">
<g>
	<g>
		<path d="M107.4,29.4c3.4-0.2,5.2-1.7,5.2-4.6c0-2.9-1.5-4.4-4.5-4.5c-3.4,0.3-5.3,1.8-5.6,4.5C102.6,28,104.2,29.5,107.4,29.4z"/>
		<path d="M121.1,29.4c3.4-0.2,5.2-1.7,5.2-4.6c0-2.9-1.5-4.4-4.3-4.5c-3.5,0.3-5.4,1.8-5.7,4.5C116.3,28,118,29.5,121.1,29.4z"/>
		<path d="M177.8,34.3c0-0.2-0.1-0.3-0.2-0.3l-1,0.3c-5.3,1.4-10,2.1-14,2.1c-1.7,0-3.1-0.2-4.2-0.5c2.3-2.8,6-7,10.9-12.5
			c1.4-1.6,2.4-3,3.1-4.2c0.6-1.7,0.5-3.5-0.4-5.2c-1.7-3.6-4.1-6.2-7.3-7.8c-0.2-0.2-0.5-0.2-0.6,0c-0.1,0.1-0.1,0.2,0,0.2
			c-0.1,1.7-0.5,3.1-1.1,4.5c-3,6-8,14-15.1,23.9c-3.8-0.5-6-0.7-6.6-0.7h-0.1c-0.3,0-0.5,0.1-0.6,0.2c-0.1,0.1,0.3,0.7,1.1,1.9
			c0.8,1.2,1.2,1.8,1.3,2l-12.8,16.4c0,0,0,0,0,0c-5,5.8-8.1,9.3-9.2,10.4c-4.5,4.9-7.7,8-9.4,9.3c-0.2,0-0.3-0.2-0.1-0.5
			c1.1-3.6,4.4-9.3,10-17c1.9-2.6,2.9-4.3,2.9-4.8c0-0.8-0.5-1.7-1.5-2.5l-4.2-3.3c-0.9-0.7-1.7-0.7-2.4,0L90.7,73.6
			c-0.2,0.2-0.3,0.2-0.4,0c0.3-8.6,4.1-16.1,11.2-22.5c5.2-4.6,10.3-7.9,15.2-9.7c0.3-0.1,0.6-0.1,0.9-0.1c0.3,0.2,0.5,0.3,0.6,0.5
			l1.4,1.7c0.2,0.4,0.5,0.6,0.9,0.5c0.2-0.2,0.2-0.4,0.2-0.6c0.1-0.6,0-1.2-0.2-2c-2.2-4.8-4.6-7.9-7.4-9.3
			c-0.3-0.2-0.6-0.2-0.7-0.1c-1,0.5-1.3,0.7-1,0.7c-7.6,3.6-13.6,8.1-18,13.5c-4.2,5.3-7,10.2-8.4,14.8c-0.3,0.4-0.7,0.7-1,1.1
			c-7.4,8-12,12.3-13.8,12.8c0-2.8,2.7-7.9,8.2-15.3c5.5-7.4,8.9-12,10.4-13.7c0.7-0.8,1-1.5,1.1-2.1c0.2-2.5-2-5-6.7-7.7
			c-1.3-0.5-2.4-0.7-3.2-0.5l-4.3,1l-0.2-0.5c0.7-1.2,1.3-2,1.6-2.5l0.4-0.5c0.8-1.4,1.1-2.4,0.9-2.9c-0.3-1.8-1.5-3.3-3.5-4.3
			c-0.7-0.5-1.4-0.7-2.1-0.7c-0.3,0-0.5,0.1-0.8,0.1c-0.3-0.4-0.7-0.8-1.3-1.2c-0.9-0.6-4.3-1-6.2-1.2c2.3-2.5,4.7-4.9,7-7
			c0.8-0.7,1.3-1.3,1.5-1.6c0.2-0.5,0.1-1-0.5-1.6l-0.7-1.1c-7.2,0.1-15.5,3.6-15.5,3.6c-1.7,2-3.6,4.4-5.5,7c-12.1,0-30,0.8-42.7,4
			c-1.2,0.3-3.7,1.3-4.2,2.8c-0.2,0.7-0.6,1.6-1,2.9l-2.1,4.8c0,0-0.2,3,1.8,2c2-1,3.1-1.2,3.1-1.2c2-0.9,17.7-7.4,41-9.2
			C39.3,38.8,32.2,51,28.5,57.3c-4.4,7.5-6.6,13.1-6.6,16.7c0,1.9,0.5,3.8,1.6,5.9c0.3,0.9,0.7,2.1,1.6,3.8
			c1.7,3.4,16.4-5.9,25.8-15c11-10.6,21.5-22.9,23.4-25.2c1.8-0.6,3.8-1.4,6-2.4l0.1,0.1l-0.1,0.4c-3.7,3.8-8.6,10.1-14.5,19
			c-1.9,2.8-2.9,5.7-2.9,8.6c0,4.9,3,8.6,9.1,11c1.3,0.2,2.9-0.7,4.6-3c2-2.7,4.5-6,7.4-9.9c0,0.4,0,0.8,0,1.2
			c0.2,3.1,2.8,6.5,7.7,10.2c0.8,0.5,1.6,0.7,2.2,0.5c0.6-0.2,1.2-0.9,1.9-2.1l1.5-2.6c2.1-3.8,4.6-7.6,7.4-11.3c2-2.6,4-5.3,6-7.8
			h0.2c-4.2,6.9-6.2,12.4-6,16.5c0.2,2.7,1.2,5.1,3.2,7c0.7,0.7,1.2,1,1.5,1.1c0.5,0.4,1.2,0.6,2.2,0.6c1.4,0.1,2.5-0.5,3.3-1.7
			c7-10.3,11.8-17.2,14.4-20.8c0.1-0.1,0.2-0.1,0.3-0.2l9.5-12.1l0.2,0.2c-7.9,12.1-12.6,19.3-13.9,21.6
			c-7.4,12.1-11,21.7-10.8,28.8c0.2,7.1,2.7,11.4,7.6,12.8c2.3,1.5,4.3,2.1,6,1.9c7.9-1.1,15.3-8.9,22.5-23.4
			c4.3-8.8,6.4-17.8,6.4-26.9c0-6.9-1.5-12.4-4.5-16.7l1.7-2.9c3.8,1.9,7.8,2.8,12,2.7c4.2-0.1,7.8-2.8,10.7-8
			C177.7,34.9,177.9,34.4,177.8,34.3z M34.8,75.4c-3,1.8-5.6,2.7-7.1,3.1c1-3.7,2.7-7.8,5.2-12.2c5-8.8,15.6-25,27-38.4
			c2.9,0,5.8,0.1,8.9,0.4c-2.4,3-3.8,5.8-4.2,8.7c-0.3,3.1,0.4,5.5,2.1,7.1c0,0,1.4,1.2,2.5,1c-2.4,2.5-5.5,5.7-8.6,9
			C55.2,60.1,49.7,66.5,34.8,75.4z M143.2,84.5c-9,15.1-15.5,22.7-19.6,22.7c-0.3,0-0.7-0.1-1-0.2c-0.9-1.2-1.4-3.1-1.4-5.5
			c0-3.9,1.1-8.2,3.2-12.9c3.9-8.5,12.7-22.6,26.4-42.3c1,2.5,1.5,5.6,1.5,9.3C152.4,64.5,149.3,74.2,143.2,84.5z"/>
	</g>
	<g>
		<path d="M185,31.7c0.2,0.2,0.5,0.2,0.7,0.2c0.2,0,0.3,0,0.5-0.1l1.2-1c3.3-2.6,8-6.9,14-12.8c0.6-0.7,0.9-1.4,1.1-2
			c0.1-0.7,0-1.2-0.4-1.7c-2-1.5-3.6-2.6-5-3.5c-0.5-0.2-0.9-0.4-1.1-0.4c-0.2,0-0.4,0-0.5,0.1c-0.4,0.2-0.8,0.6-1.2,1.2
			c-2.2,3.6-5.2,9.4-9.1,17.2C184.6,30.6,184.5,31.5,185,31.7z"/>
		<path d="M319.5,48.9c-11.2,0-23,3.8-31.5,7.3c-7.4,3.1-24.8,11.9-27.4,13.4c-3.5,2.1-4.4,2.2-7.2,3.9c-1.7,1-1.1-0.3-1.1-0.3
			c1.2-4.3,6.1-10.7,13-20.1c0.4-0.4,0.6-0.9,0.6-1.5c0-0.7-0.5-1.4-1.5-2.2l-4.2-3.3c-0.9-0.7-1.7-0.7-2.3,0l-25.3,27.5
			c-0.2,0.2-0.3,0.2-0.4,0c0.3-8.6,4.1-16.1,11.2-22.5c5.2-4.6,10.3-7.9,15.2-9.7c0.3-0.1,0.6-0.1,0.9-0.1c0.3,0.2,0.5,0.3,0.6,0.5
			l1.4,1.7c0.2,0.4,0.5,0.6,0.9,0.5c0.2-0.2,0.2-0.4,0.2-0.6c0.1-0.6,0-1.2-0.2-2c-2.2-4.8-4.6-7.9-7.4-9.3
			c-0.3-0.2-0.6-0.2-0.7-0.1c-1,0.5-1.3,0.7-1,0.7c-7.6,3.6-13.6,8.1-18,13.5c-6.7,8.4-9.8,15.8-9.3,22.3c0,0.2,0,0.4,0.1,0.6
			c-1.5,1.6-2.9,2.7-4,3.2c-0.3,0.2-0.8,0.2-1.4,0.2c-2.5,0-5-1.3-7.6-3.8c-3.1-2.3-5.7-4.9-7.8-7.8l0.6,0.1
			c0.8,0.2,1.7,0.2,2.7,0.2c3.9,0,8.1-1.6,12.5-4.7c6.9-4.9,10.3-9.4,10.4-13.6c0.3-2.2-0.2-4.2-1.6-6c-1.4-1.8-3.2-3-5.4-3.7
			c-1.5,0-3.5,0.9-6,2.7c-3.1,2.2-5.7,4.3-7.8,6.1v-0.1c2-2.3,6-8.2,12-17.7c2.1-3.2,2.9-5.8,2.6-7.7c-0.4-2.6-1.9-4.9-4.5-6.8
			c-1.6-1.2-2.6-1.9-3-2.1c-0.6-0.3-1-0.3-1.1,0c-0.2,0.2-0.2,0.5-0.2,0.6c0,0.2,0,0.3,0.1,0.5c0.2,0.8-0.1,2.3-0.7,4.3
			c-1.6,4.8-5.4,11.9-11.5,21.3l-10.9,16.9c-8.7,10.4-16.3,18.2-23,23.4c-0.3,0.2-0.6,0.2-0.9,0.2c-0.2,0-0.4-0.1-0.6-0.2
			c-0.1-2.9,2.2-8.3,6.8-16.2c3.3-5.7,7.5-11.6,12.7-17.6c0.7-0.7,0.9-1.3,0.9-1.6c-0.2-1.2-2.1-3.1-5.6-5.8
			c-0.7-0.4-1.1-0.6-1.4-0.5c-0.4-0.1-0.7,0-1,0.2c-7.7,9.5-13.1,18.1-16.4,25.6c-2.1,4.7-3,8-2.9,9.8c0.2,3.4,1.8,6.2,4.6,8.5
			c1.9,2.2,4,3.3,6.2,3.5c1.4-0.1,2.6-0.8,3.6-2.1c1.1-1.4,2.3-3,3.5-4.7c0,1.3,0.4,2.3,1,2.9l2.7,3.1c0.7,0.7,1.4,0.9,2,0.9
			c0.9-1.7,1.6-3.4,2.1-5c2.6-4.5,5.8-9.3,9.7-14.1c4.1,6.9,6.9,11.2,8.4,12.7c3.1,3.8,5.9,5.8,8.3,6.1c1.7-0.1,3.3-0.6,4.7-1.5
			c2.9-1.9,5.5-4.2,7.8-6.9c1.2,2.2,3.4,4.5,6.7,6.9c0.8,0.5,1.6,0.7,2.2,0.5c0.6-0.2,1.2-0.9,1.9-2.1l1.5-2.6
			c2.1-3.8,4.6-7.6,7.4-11.3c2-2.6,4-5.3,6-7.8h0.2c-4.2,6.9-6.2,12.4-6,16.5c0.1,1.9,0.7,3.7,1.7,5.2c0.3,0.5,0.7,0.9,1.1,1.4
			c0.4,0.5,1.6,0.4,2.6,0c1.1-0.5,1.9-0.8,2.8-1.2c0.9-0.5,1.8-0.9,2.5-1.3c4-2.2,18-8.3,21.4-9.6c2.8-1,5.2-1.9,7.2-2.6
			c2.6-0.9,4.8-1.6,5.6-1.9c8.2-2.9,22.9-4.6,27.8-4.6c11.9,0,21.2,1.5,25.2,2.6c1.2,0.3,3.7-2.1,3.7-2.1S339.7,48.9,319.5,48.9z
			 M201.5,56.6c3.5-3.9,5.8-6.5,7.1-7.9c6.6-7.2,12.2-11.2,16.6-12c-1.4,5.5-4.8,10.5-10,14.8c-4.5,3.6-8.4,5.5-11.5,5.5
			C202.9,56.8,202.2,56.8,201.5,56.6z"/>
	</g>
</g>
</svg>
