<?xml version="1.0" encoding="utf-8"?>
<!-- Generator: Adobe Illustrator 19.0.0, SVG Export Plug-In . SVG Version: 6.00 Build 0)  -->
<svg version="1.1" id="Capa_1" xmlns="http://www.w3.org/2000/svg" xmlns:xlink="http://www.w3.org/1999/xlink" x="0px" y="0px"
	 viewBox="0 0 180.6 54.5" style="enable-background:new 0 0 180.6 54.5;" xml:space="preserve">
<style type="text/css">
	.st0{fill:#FFFFFF;}
</style>
<g>
	<g>
		<path class="st0" d="M55.5,12.1c1.8-0.1,2.7-0.9,2.7-2.4c0-1.5-0.8-2.3-2.3-2.3c-1.8,0.1-2.8,0.9-2.9,2.3
			C53,11.4,53.8,12.2,55.5,12.1z"/>
		<path class="st0" d="M62.6,12.1c1.8-0.1,2.7-0.9,2.7-2.4c0-1.5-0.8-2.3-2.3-2.3c-1.8,0.1-2.8,0.9-3,2.3
			C60.1,11.4,60.9,12.2,62.6,12.1z"/>
		<path class="st0" d="M92,14.7c0-0.1,0-0.1-0.1-0.1l-0.5,0.1c-2.7,0.7-5.2,1.1-7.3,1.1c-0.9,0-1.6-0.1-2.2-0.3
			c1.2-1.5,3.1-3.6,5.7-6.5c0.7-0.8,1.3-1.5,1.6-2.2C89.5,5.9,89.4,5,89,4.1c-0.9-1.9-2.1-3.2-3.8-4.1C85.1,0,85,0,84.9,0.1
			c0,0,0,0.1,0,0.1c0,0.9-0.2,1.6-0.6,2.3c-1.5,3.1-4.2,7.3-7.9,12.4c-2-0.3-3.1-0.4-3.4-0.4H73c-0.2,0-0.3,0-0.3,0.1
			c0,0,0.1,0.4,0.5,1c0.4,0.6,0.6,0.9,0.7,1l-6.6,8.5c0,0,0,0,0,0c-2.6,3-4.2,4.8-4.8,5.4c-2.4,2.5-4,4.1-4.9,4.8
			c-0.1,0-0.2-0.1-0.1-0.3c0.6-1.9,2.3-4.8,5.2-8.8c1-1.4,1.5-2.2,1.5-2.5c0-0.4-0.3-0.9-0.8-1.3l-2.2-1.7c-0.5-0.4-0.9-0.4-1.2,0
			L46.8,35.1c-0.1,0.1-0.2,0.1-0.2,0c0.2-4.5,2.1-8.4,5.8-11.7c2.7-2.4,5.3-4.1,7.9-5c0.2,0,0.3-0.1,0.4-0.1
			c0.2,0.1,0.3,0.2,0.3,0.3l0.7,0.9c0.1,0.2,0.3,0.3,0.4,0.3c0.1-0.1,0.1-0.2,0.1-0.3c0-0.3,0-0.6-0.1-1c-1.1-2.5-2.4-4.1-3.9-4.8
			c-0.2-0.1-0.3-0.1-0.4-0.1c-0.5,0.3-0.7,0.4-0.5,0.4c-4,1.9-7.1,4.2-9.3,7c-2.2,2.8-3.7,5.3-4.4,7.7c-0.2,0.2-0.3,0.4-0.5,0.6
			c-3.9,4.2-6.2,6.4-7.2,6.6c0-1.5,1.4-4.1,4.3-8c2.9-3.8,4.6-6.2,5.4-7.1c0.3-0.4,0.5-0.8,0.6-1.1c0.1-1.3-1-2.6-3.5-4
			c-0.7-0.3-1.2-0.3-1.7-0.3L39,15.9l-0.1-0.3c0.4-0.6,0.7-1,0.8-1.3l0.2-0.3c0.4-0.7,0.6-1.2,0.5-1.5c-0.2-0.9-0.8-1.7-1.8-2.3
			c-0.4-0.3-0.8-0.4-1.1-0.4c-0.1,0-0.3,0-0.4,0.1c-0.1-0.2-0.4-0.4-0.7-0.6c-0.4-0.3-2.2-0.5-3.2-0.6c1.2-1.3,2.4-2.5,3.6-3.6
			c0.4-0.4,0.7-0.7,0.8-0.8c0.1-0.3,0-0.5-0.3-0.8l-0.4-0.6c-3.7,0.1-8.1,1.9-8.1,1.9c-0.9,1-1.9,2.3-2.8,3.7
			c-6.3,0-15.6,0.4-22.2,2.1c-0.6,0.2-1.9,0.7-2.2,1.4c-0.1,0.4-0.3,0.8-0.5,1.5L0,15.9c0,0-0.1,1.6,0.9,1.1c1-0.5,1.6-0.6,1.6-0.6
			c1-0.5,9.2-3.8,21.3-4.8c-3.7,5.5-7.4,11.8-9.3,15.1c-2.3,3.9-3.4,6.8-3.4,8.7c0,1,0.3,2,0.8,3.1c0.1,0.5,0.4,1.1,0.8,2
			c0.9,1.7,8.5-3.1,13.4-7.8c5.7-5.5,11.1-11.9,12.2-13.1c0.9-0.3,2-0.7,3.1-1.2l0.1,0.1l-0.1,0.2c-1.9,2-4.4,5.3-7.5,9.9
			c-1,1.5-1.5,2.9-1.5,4.4c0,2.5,1.6,4.4,4.7,5.7c0.7,0.1,1.5-0.4,2.4-1.5c1.1-1.4,2.3-3.1,3.8-5.1c0,0.2,0,0.4,0,0.6
			c0.1,1.6,1.5,3.4,4,5.3c0.4,0.3,0.8,0.3,1.2,0.3c0.3-0.1,0.6-0.5,1-1.1l0.8-1.4c1.1-2,2.4-3.9,3.9-5.9c1-1.4,2.1-2.7,3.1-4.1h0.1
			c-2.2,3.6-3.2,6.4-3.1,8.5c0.1,1.4,0.6,2.6,1.7,3.6c0.3,0.3,0.6,0.5,0.8,0.6c0.3,0.2,0.6,0.3,1.2,0.3c0.7,0,1.3-0.3,1.7-0.9
			c3.7-5.3,6.1-8.9,7.5-10.8c0,0,0.1-0.1,0.1-0.1l4.9-6.3l0.1,0.1c-4.1,6.3-6.5,10-7.2,11.2c-3.8,6.3-5.7,11.3-5.6,14.9
			c0.1,3.7,1.4,5.9,3.9,6.6c1.2,0.8,2.2,1.1,3.1,1c4.1-0.6,8-4.6,11.7-12.2c2.2-4.6,3.4-9.3,3.4-14c0-3.6-0.8-6.5-2.3-8.7l0.9-1.5
			c2,1,4.1,1.5,6.2,1.4c2.2,0,4-1.4,5.5-4.2C92,15,92.1,14.8,92,14.7z M17.7,36c-1.6,0.9-2.9,1.4-3.7,1.6c0.5-1.9,1.4-4.1,2.7-6.4
			c2.6-4.6,8.1-13,14-19.9c1.5,0,3,0.1,4.6,0.2c-1.3,1.5-2,3-2.2,4.5c-0.2,1.6,0.2,2.9,1.1,3.7c0,0,0.7,0.6,1.3,0.5
			c-1.2,1.3-2.9,2.9-4.4,4.7C28.4,28.1,25.5,31.4,17.7,36z M74,40.8c-4.7,7.9-8,11.8-10.2,11.8c-0.2,0-0.3,0-0.5-0.1
			c-0.5-0.6-0.7-1.6-0.7-2.8c0-2,0.6-4.3,1.7-6.7c2-4.4,6.6-11.7,13.7-22c0.5,1.3,0.8,2.9,0.8,4.8C78.8,30.4,77.2,35.4,74,40.8z"/>
	</g>
	<g>
		<path class="st0" d="M95.7,13.3c0.1,0.1,0.3,0.1,0.4,0.1c0.1,0,0.2,0,0.3-0.1l0.6-0.5c1.7-1.4,4.1-3.6,7.3-6.6
			c0.3-0.4,0.5-0.7,0.6-1c0-0.3,0-0.6-0.2-0.9c-1-0.8-1.9-1.4-2.6-1.8c-0.3-0.1-0.5-0.2-0.6-0.2c-0.1,0-0.2,0-0.3,0.1
			c-0.2,0.1-0.4,0.3-0.6,0.6c-1.1,1.9-2.7,4.9-4.7,9C95.5,12.8,95.5,13.2,95.7,13.3z"/>
		<path class="st0" d="M165.6,22.3c-5.8,0-11.9,2-16.4,3.8c-3.8,1.6-12.9,6.2-14.2,7c-1.8,1.1-2.3,1.2-3.8,2
			c-0.9,0.5-0.6-0.2-0.6-0.2c0.6-2.2,3.2-5.6,6.7-10.5c0.2-0.2,0.3-0.5,0.3-0.8c0-0.3-0.3-0.7-0.8-1.2l-2.2-1.7
			c-0.5-0.4-0.9-0.4-1.2,0l-13.2,14.3c-0.1,0.1-0.2,0.1-0.2,0c0.2-4.5,2.1-8.4,5.8-11.7c2.7-2.4,5.3-4.1,7.9-5
			c0.2,0,0.3-0.1,0.4-0.1c0.2,0.1,0.3,0.2,0.3,0.3l0.7,0.9c0.1,0.2,0.3,0.3,0.4,0.3c0.1-0.1,0.1-0.2,0.1-0.3c0-0.3,0-0.6-0.1-1
			c-1.1-2.5-2.4-4.1-3.9-4.8c-0.2-0.1-0.3-0.1-0.4-0.1c-0.5,0.3-0.7,0.4-0.5,0.4c-4,1.9-7.1,4.2-9.3,7c-3.5,4.3-5.1,8.2-4.8,11.6
			c0,0.1,0,0.2,0,0.3c-0.8,0.8-1.5,1.4-2.1,1.7c-0.2,0.1-0.4,0.1-0.7,0.1c-1.3,0-2.6-0.7-3.9-2c-1.6-1.2-2.9-2.6-4.1-4.1l0.3,0.1
			c0.4,0.1,0.9,0.1,1.4,0.1c2,0,4.2-0.8,6.5-2.4c3.6-2.5,5.4-4.9,5.4-7.1c0.2-1.2-0.1-2.2-0.8-3.1c-0.7-0.9-1.6-1.6-2.8-1.9
			c-0.8,0-1.8,0.5-3.1,1.4c-1.6,1.2-2.9,2.2-4.1,3.2v-0.1c1-1.2,3.1-4.3,6.2-9.2c1.1-1.7,1.5-3,1.4-4c-0.2-1.4-1-2.6-2.3-3.5
			c-0.8-0.6-1.3-1-1.5-1.1c-0.3-0.2-0.5-0.2-0.6,0c-0.1,0.1-0.1,0.2-0.1,0.3c0,0.1,0,0.2,0.1,0.3c0.1,0.4,0,1.2-0.4,2.3
			c-0.8,2.5-2.8,6.2-6,11.1l-5.7,8.8C95.6,29,91.6,33,88.2,35.8c-0.2,0.1-0.3,0.1-0.5,0.1c-0.1,0-0.2,0-0.3-0.1
			c0-1.5,1.1-4.3,3.5-8.4c1.7-3,3.9-6,6.6-9.1c0.3-0.4,0.5-0.7,0.5-0.8c-0.1-0.6-1.1-1.6-2.9-3c-0.3-0.2-0.6-0.3-0.7-0.3
			c-0.2,0-0.4,0-0.5,0.1c-4,5-6.8,9.4-8.5,13.3c-1.1,2.5-1.6,4.2-1.5,5.1c0.1,1.8,0.9,3.2,2.4,4.4c1,1.1,2.1,1.7,3.2,1.8
			c0.7,0,1.4-0.4,1.9-1.1c0.6-0.7,1.2-1.6,1.8-2.5c0,0.7,0.2,1.2,0.5,1.5l1.4,1.6c0.4,0.3,0.7,0.5,1,0.5c0.5-0.9,0.8-1.8,1.1-2.6
			c1.3-2.4,3-4.8,5-7.3c2.1,3.6,3.6,5.8,4.4,6.6c1.6,2,3.1,3,4.3,3.2c0.9,0,1.7-0.3,2.4-0.8c1.5-1,2.9-2.2,4.1-3.6
			c0.6,1.1,1.8,2.3,3.5,3.6c0.4,0.3,0.8,0.3,1.2,0.3c0.3-0.1,0.6-0.5,1-1.1l0.8-1.4c1.1-2,2.4-3.9,3.9-5.9c1-1.4,2.1-2.7,3.1-4.1
			h0.1c-2.2,3.6-3.2,6.4-3.1,8.5c0.1,1,0.4,1.9,0.9,2.7c0.2,0.2,0.4,0.5,0.6,0.7c0.2,0.3,0.8,0.2,1.4,0c0.6-0.3,1-0.4,1.5-0.6
			c0.5-0.2,0.9-0.5,1.3-0.7c2.1-1.1,9.4-4.3,11.1-5c1.4-0.5,2.7-1,3.7-1.3c1.3-0.5,2.5-0.8,2.9-1c4.3-1.5,11.9-2.4,14.5-2.4
			c6.2,0,11,0.8,13.1,1.3c0.6,0.2,1.9-1.1,1.9-1.1S176.1,22.3,165.6,22.3z M104.3,26.3c1.8-2,3-3.4,3.7-4.1c3.4-3.7,6.3-5.8,8.6-6.2
			c-0.7,2.9-2.5,5.4-5.2,7.7c-2.4,1.9-4.4,2.8-6,2.8C105,26.4,104.7,26.4,104.3,26.3z"/>
	</g>
</g>
</svg>
