<?xml version="1.0" encoding="utf-8"?>
<!-- Generator: Adobe Illustrator 28.0.0, SVG Export Plug-In . SVG Version: 6.00 Build 0)  -->
<svg version="1.1" id="Capa_1" xmlns="http://www.w3.org/2000/svg" xmlns:xlink="http://www.w3.org/1999/xlink" x="0px" y="0px"
	 viewBox="0 0 45.8 58.2" style="enable-background:new 0 0 45.8 58.2;" xml:space="preserve">
<style type="text/css">
	.st0{fill:#FFFFFF;}
</style>
<rect y="0" width="45.8" height="58.2"/>
<g>
	<g>
		<path class="st0" d="M29.9,11.6L28.3,6h1l1.2,4.2L31.6,6h1l1.2,4.2L35,6h1l-1.6,5.7h-1.1l-1.1-4.2l-1.1,4.2H29.9z"/>
		<path class="st0" d="M35.9,9.5c0-1.4,0.9-2.3,2.1-2.3c1.2,0,2,0.8,2,2.3v0.2h-3.3c0.1,0.8,0.6,1.3,1.3,1.3c0.5,0,0.8-0.2,1-0.7H40
			c-0.2,0.9-0.9,1.5-2,1.5C36.9,11.7,35.9,10.8,35.9,9.5z M39.1,9c-0.1-0.6-0.5-1-1.1-1c-0.6,0-1,0.4-1.1,1H39.1z"/>
		<path class="st0" d="M20.5,18.8v-5.7h1.2l1.8,4.5l1.8-4.5h1.2v5.7h-1v-4l-1.6,4H23l-1.6-4v4H20.5z"/>
		<path class="st0" d="M27.1,17.6c0-1,1-1.2,1.8-1.3c0.6-0.1,1.1-0.1,1.1-0.4c0-0.4-0.4-0.7-0.9-0.7s-1,0.3-1.1,0.8h-1
			c0.1-0.9,0.9-1.6,2-1.6c1.1,0,1.8,0.6,1.8,1.6v2c0,0.1,0.1,0.2,0.2,0.2h0.2v0.8h-0.4c-0.4,0-0.7-0.2-0.8-0.5c0-0.1,0-0.1-0.1-0.1
			c-0.3,0.5-0.7,0.7-1.5,0.7C27.8,18.9,27.1,18.4,27.1,17.6z M30.1,17.2v-0.6c-0.1,0.3-0.6,0.3-1.1,0.4c-0.6,0.1-1,0.1-1,0.6
			c0,0.4,0.3,0.6,0.8,0.6C29.6,18.2,30.1,17.8,30.1,17.2z"/>
		<path class="st0" d="M31.9,18.8v-6.1h1v3.7l1.8-1.8h1.2l-1.6,1.6l1.8,2.8H35l-1.3-2.1l-0.8,0.8v1.3L31.9,18.8L31.9,18.8z"/>
		<path class="st0" d="M35.9,16.7c0-1.4,0.9-2.3,2.1-2.3c1.2,0,2,0.8,2,2.3v0.2h-3.3c0.1,0.8,0.6,1.3,1.3,1.3c0.5,0,0.8-0.2,1-0.7
			H40c-0.2,0.9-0.9,1.5-2,1.5C36.9,19,35.9,18,35.9,16.7z M39.1,16.2c-0.1-0.6-0.5-1-1.1-1c-0.6,0-1,0.4-1.1,1H39.1z"/>
		<path class="st0" d="M19.8,23.2c0-1.7,1.1-3,2.8-3c1.5,0,2.5,0.8,2.8,2.3h-1c-0.2-0.9-0.8-1.4-1.8-1.4c-1.1,0-1.8,0.8-1.8,2
			s0.7,2.1,1.8,2.1c0.9,0,1.5-0.6,1.5-1.4h-1.8v-0.8h1.9c0.7,0,1.1,0.4,1.1,1.1v1.9h-0.8v-1.8l0,0c-0.1,1.1-0.8,1.8-2,1.8
			C21,26.2,19.8,25,19.8,23.2z"/>
		<path class="st0" d="M26,23.9c0-1.4,0.9-2.3,2.2-2.3c1.4,0,2.2,1,2.2,2.3c0,1.5-0.9,2.3-2.2,2.3C26.8,26.2,26,25.2,26,23.9z
			 M29.4,23.9c0-0.8-0.5-1.4-1.2-1.4c-0.8,0-1.2,0.6-1.2,1.4c0,0.9,0.5,1.5,1.2,1.5C29,25.3,29.4,24.7,29.4,23.9z"/>
		<path class="st0" d="M30.8,23.9c0-1.4,0.9-2.3,2.2-2.3c1.4,0,2.2,1,2.2,2.3c0,1.5-0.9,2.3-2.2,2.3C31.6,26.2,30.8,25.2,30.8,23.9z
			 M34.2,23.9c0-0.8-0.5-1.4-1.2-1.4c-0.8,0-1.2,0.6-1.2,1.4c0,0.9,0.5,1.5,1.2,1.5C33.8,25.3,34.2,24.7,34.2,23.9z"/>
		<path class="st0" d="M35.5,23.9c0-1.3,0.8-2.3,2-2.3c0.6,0,1.1,0.3,1.4,0.6v-2.3h1v6.1h-0.8L39,25.3c-0.2,0.6-0.8,0.9-1.5,0.9
			C36.4,26.2,35.5,25.3,35.5,23.9z M38.9,23.9c0-0.8-0.5-1.4-1.2-1.4c-0.7,0-1.2,0.6-1.2,1.5c0,0.8,0.5,1.5,1.2,1.5
			C38.4,25.3,38.9,24.8,38.9,23.9z"/>
		<path class="st0" d="M26,31.6h1c0.1,0.6,0.6,1,1.6,1c0.7,0,1.1-0.3,1.1-0.8c0-0.4-0.4-0.6-0.9-0.8l-0.9-0.3
			c-0.6-0.2-1.7-0.5-1.7-1.6c0-0.9,0.8-1.6,2-1.6c1.3,0,2.3,0.7,2.3,1.9h-1c-0.1-0.6-0.5-1.1-1.3-1.1c-0.6,0-1.1,0.3-1.1,0.7
			c0,0.5,0.5,0.6,1.1,0.8l0.8,0.3c0.8,0.3,1.6,0.6,1.6,1.6s-0.8,1.7-2.1,1.7C27,33.4,26.1,32.6,26,31.6z"/>
		<path class="st0" d="M31.3,33.3v-6.1h1v2.3c0.3-0.4,0.8-0.6,1.3-0.6c0.9,0,1.5,0.6,1.5,1.6v2.8h-1v-2.8c0-0.5-0.3-0.8-0.8-0.8
			c-0.6,0-1.1,0.4-1.1,1v2.6C32.2,33.3,31.3,33.3,31.3,33.3z"/>
		<path class="st0" d="M35.7,27.7c0-0.4,0.3-0.6,0.6-0.6c0.4,0,0.6,0.3,0.6,0.6c0,0.4-0.3,0.6-0.6,0.6
			C35.9,28.4,35.7,28.1,35.7,27.7z M35.9,33.3v-4.3h1v4.3H35.9z"/>
		<path class="st0" d="M39.6,33.3c-0.9,0-1.4-0.5-1.4-1.3v-2.2h-0.8v-0.8h0.8v-1.5h1v1.5h1.1v0.8h-1.1v2.1c0,0.4,0.2,0.6,0.6,0.6
			h0.5v0.8L39.6,33.3L39.6,33.3z"/>
		<path class="st0" d="M17.6,40.5v-4.8h-1.9v-0.8h4.7v0.8h-1.8v4.8H17.6z"/>
		<path class="st0" d="M21,40.5v-6.1h1v2.2c0.3-0.4,0.8-0.6,1.3-0.6c0.9,0,1.5,0.6,1.5,1.6v2.8h-1v-2.8c0-0.5-0.3-0.8-0.8-0.8
			c-0.6,0-1.1,0.4-1.1,1v2.6L21,40.5L21,40.5z"/>
		<path class="st0" d="M25.4,35c0-0.4,0.3-0.6,0.6-0.6c0.4,0,0.6,0.3,0.6,0.6c0,0.4-0.3,0.6-0.6,0.6C25.7,35.6,25.4,35.4,25.4,35z
			 M25.6,40.5v-4.3h1v4.3H25.6z"/>
		<path class="st0" d="M27.3,40.5v-4.3h0.8l0.1,0.6c0.3-0.4,0.8-0.8,1.5-0.8c0.9,0,1.5,0.6,1.5,1.6v2.8h-1v-2.8
			c0-0.5-0.3-0.8-0.8-0.8c-0.6,0-1.1,0.4-1.1,1v2.6L27.3,40.5L27.3,40.5z"/>
		<path class="st0" d="M31.9,40.7h1c0,0.4,0.4,0.7,1.1,0.7c0.8,0,1.1-0.4,1.1-1.1v-0.6c-0.3,0.4-0.8,0.7-1.3,0.7c-1.1,0-2-0.9-2-2.2
			c0-1.3,0.8-2.2,2-2.2c0.7,0,1.2,0.3,1.5,0.8l0.1-0.6H36v4.2c0,1.1-0.8,1.9-2.1,1.9C32.7,42.2,31.9,41.7,31.9,40.7z M35,38.3
			c0-0.8-0.5-1.3-1.2-1.3c-0.7,0-1.2,0.6-1.2,1.4c0,0.8,0.5,1.3,1.2,1.3C34.5,39.7,35,39.1,35,38.3z"/>
		<path class="st0" d="M36.6,39.1h0.9c0,0.5,0.4,0.7,1,0.7c0.5,0,0.8-0.2,0.8-0.5c0-0.4-0.3-0.4-0.6-0.5l-0.6-0.2
			c-0.7-0.2-1.3-0.5-1.3-1.3s0.6-1.3,1.6-1.3c1,0,1.7,0.5,1.8,1.5h-0.9c-0.1-0.5-0.4-0.7-0.9-0.7c-0.4,0-0.6,0.2-0.6,0.5
			c0,0.4,0.4,0.4,0.7,0.5l0.5,0.1c0.8,0.3,1.3,0.6,1.3,1.3s-0.6,1.3-1.6,1.3C37.4,40.6,36.7,40,36.6,39.1z"/>
	</g>
	<path class="st0" d="M24.3,31.2v-1h17.9v1H24.3z"/>
</g>
</svg>
