<?xml version="1.0" encoding="utf-8"?>
<!-- Generator: Adobe Illustrator 28.0.0, SVG Export Plug-In . SVG Version: 6.00 Build 0)  -->
<svg version="1.1" id="Capa_1" xmlns:v="https://vecta.io/nano"
	 xmlns="http://www.w3.org/2000/svg" xmlns:xlink="http://www.w3.org/1999/xlink" x="0px" y="0px" viewBox="0 0 300 300"
	 style="enable-background:new 0 0 300 300;" xml:space="preserve">
<style type="text/css">
	.st0{opacity:0.2;enable-background:new    ;}
</style>
<path class="st0" d="M117.5,152.9h-4.4v-3.7h8.9v10.9c-0.4,0.4-0.8,0.6-1.3,0.9c-0.4,0.3-1,0.5-1.6,0.7s-1.2,0.4-1.9,0.4
	c-0.7,0.1-1.6,0.2-2.6,0.2c-1.6,0-3-0.3-4.2-0.9c-1.2-0.6-2.3-1.4-3.2-2.5c-0.9-1.1-1.5-2.4-1.9-3.8c-0.4-1.5-0.7-3.1-0.7-4.9
	c0-1.8,0.3-3.4,0.7-4.9c0.4-1.5,1.1-2.7,2-3.9c0.9-1.1,2-1.8,3.3-2.5c1.3-0.6,2.8-0.9,4.5-0.9c1.6,0,2.9,0.2,4,0.5s2,0.7,2.8,1.2
	l-1.1,3.7c-0.7-0.5-1.6-1-2.4-1.3c-0.9-0.4-1.8-0.5-3-0.5c-0.9,0-1.7,0.2-2.5,0.5c-0.8,0.4-1.4,0.9-1.9,1.5c-0.5,0.7-1,1.6-1.2,2.6
	c-0.3,1.1-0.4,2.4-0.4,3.8c0,1.2,0.2,2.5,0.4,3.4c0.3,1.1,0.7,1.9,1.2,2.6s1.1,1.3,1.8,1.7c0.7,0.4,1.5,0.6,2.3,0.6
	c0.4,0,1-0.1,1.4-0.2s0.7-0.3,1-0.4V152.9L117.5,152.9z M124.9,145h4v2.6c0.2-0.4,0.4-0.7,0.7-1.1c0.3-0.4,0.5-0.6,0.9-0.9
	c0.4-0.3,0.8-0.4,1.2-0.6s1.1-0.3,1.7-0.3c0.4,0,0.8,0,1.1,0.1l-0.4,3.5c-0.2,0-0.3-0.1-0.4-0.1h-0.6c-0.9,0-1.7,0.2-2.4,0.6
	c-0.6,0.4-1.2,1.1-1.7,2v11.2H125L124.9,145L124.9,145z M136.5,145h4.2v11.3c0,0.9,0.2,1.5,0.5,2c0.4,0.4,0.9,0.7,1.6,0.7
	c0.6,0,1.2-0.2,1.7-0.6c0.4-0.4,0.8-1,1.1-1.6v-11.8h4.1v17h-4v-2c-0.2,0.3-0.4,0.5-0.6,0.8c-0.3,0.3-0.5,0.5-0.9,0.8
	c-0.4,0.3-0.7,0.4-1.1,0.6c-0.4,0.2-1,0.3-1.5,0.3c-1,0-1.8-0.2-2.4-0.4c-0.6-0.3-1.1-0.7-1.6-1.1c-0.4-0.5-0.7-1.1-0.9-1.8
	s-0.3-1.5-0.3-2.5V145L136.5,145z M152.8,145h4.1v1.2c0.4-0.4,0.9-0.9,1.5-1.1c0.6-0.4,1.3-0.4,2.1-0.4c1.9,0,3.4,0.7,4.6,2.2
	c1.1,1.5,1.7,3.6,1.7,6.5c0,3.1-0.5,5.3-1.7,6.8c-1.1,1.5-2.6,2.2-4.4,2.2c-0.4,0-1-0.1-1.4-0.2c-0.4-0.1-0.8-0.3-1.1-0.4
	c-0.4-0.2-0.5-0.4-0.8-0.6c-0.2-0.3-0.4-0.4-0.5-0.6v8.4h-4.1L152.8,145L152.8,145z M156.9,157.6c0.3,0.4,0.5,0.7,1,1.1
	c0.4,0.4,1,0.5,1.5,0.5c0.8,0,1.5-0.4,2.1-1.3c0.6-0.9,0.9-2.3,0.9-4.2c0-2-0.3-3.5-0.9-4.4c-0.6-0.9-1.3-1.3-2.3-1.3
	c-0.6,0-1.1,0.2-1.5,0.4l-1,0.9v8.4H156.9z M175.7,162.3c-1.1,0-2.1-0.2-3.1-0.6c-0.9-0.4-1.7-1-2.4-1.8c-0.6-0.8-1.1-1.8-1.5-2.8
	c-0.4-1.1-0.5-2.4-0.5-3.8c0-1.3,0.2-2.6,0.5-3.7c0.4-1.1,0.9-2,1.5-2.7c0.6-0.7,1.4-1.3,2.3-1.7c0.9-0.4,1.9-0.6,3.1-0.6
	c2.3,0,4.1,0.8,5.5,2.3c1.3,1.5,2,3.7,2,6.4c0,1.4-0.2,2.6-0.5,3.8c-0.4,1.1-0.9,2.1-1.5,2.8c-0.6,0.8-1.4,1.4-2.3,1.8
	C177.8,162.1,176.8,162.3,175.7,162.3 M175.7,159.1c1.1,0,1.8-0.5,2.4-1.6c0.5-1.1,0.8-2.5,0.8-4.3c0-1.8-0.3-3.2-0.9-4.1
	c-0.6-1-1.3-1.4-2.3-1.4c-1,0-1.8,0.4-2.3,1.4c-0.6,1-0.9,2.3-0.9,4.1c0,1.8,0.3,3.3,0.9,4.3C173.8,158.6,174.6,159.1,175.7,159.1
	 M189.5,138.5h5.1l2.2,0.1l1.8,0.3c1.6,0.4,2.7,1,3.6,1.9s1.3,2.2,1.3,3.7c0,0.8-0.1,1.5-0.4,2c-0.2,0.5-0.4,1.1-0.8,1.4
	s-0.7,0.7-1.1,0.9c-0.4,0.3-0.8,0.4-1.1,0.5c0.5,0.2,1.1,0.4,1.7,0.7c0.5,0.3,1,0.7,1.4,1.1c0.4,0.4,0.7,1.1,1,1.7
	c0.3,0.6,0.4,1.3,0.4,2.1c0,1.1-0.2,2-0.6,2.9c-0.4,0.9-1,1.6-1.8,2.2c-0.8,0.6-1.7,1.1-2.7,1.3c-1.1,0.4-2.3,0.4-3.5,0.4h-6.5
	L189.5,138.5L189.5,138.5z M194.8,147.8c0.8,0,1.5-0.1,2.1-0.2c0.5-0.2,1-0.4,1.3-0.6c0.4-0.3,0.5-0.5,0.7-0.9s0.2-0.8,0.2-1.2
	c0-1-0.4-1.7-1-2.2c-0.6-0.5-1.7-0.7-3.2-0.7h-1.1v5.9L194.8,147.8L194.8,147.8z M195.4,158.4c1.6,0,2.7-0.3,3.5-0.9
	c0.7-0.5,1.1-1.4,1.1-2.6c0-1.1-0.4-2-1.1-2.6c-0.7-0.6-1.9-1-3.7-1H194v7L195.4,158.4L195.4,158.4z M207.2,138.5h5.5l1.1,3.7
	l1.4,4.6l1.5,4.7l1.4,4.1c0.4-1.1,0.9-2.6,1.3-4l1.5-4.6l1.4-4.6l1.2-4h5.3l0.3,23.5h-4.2l-0.1-15l-1.2,3.9l-1.3,4l-1.3,3.9
	l-1.1,3.2h-3.4l-1.1-3.2l-1.3-3.8l-1.3-4l-1.2-3.9l-0.2,14.8h-4L207.2,138.5L207.2,138.5z M238,162.1l-3.8-11.9l-1.8-6.1l-1.7-5.8
	h4.6l2.4,8.4l2.6,8.2l2.6-8.2l2.5-8.4h4.4l-3.6,12l-3.9,11.7L238,162.1L238,162.1z M66.9,158.2v-16.5H50.4c0,4.6,3.8,8.2,8.4,8.2
	c-4.6,0-8.4,3.8-8.4,8.4H66.9L66.9,158.2z M83.4,158.2v-16.5h16.5c0,4.6-3.8,8.2-8.4,8.2c4.6,0,8.4,3.8,8.4,8.4H83.4L83.4,158.2z
	 M83.4,158.2H66.9v16.5c4.6,0,8.2-3.8,8.2-8.4c0,4.6,3.8,8.4,8.4,8.4V158.2z M83.5,141.6l-8.4,8.2l-8.2-8.2v-16.1
	c4.6,0,8.2,5.8,8.2,10.4c0-4.6,3.8-10.4,8.4-10.4V141.6z M75.1,130.8c0.6-2.6,2.7-4.8,5.4-5.5H69.6
	C72.2,126.2,74.4,128.3,75.1,130.8"/>
</svg>
