<?xml version="1.0" encoding="utf-8"?>
<!-- Generator: Adobe Illustrator 28.0.0, SVG Export Plug-In . SVG Version: 6.00 Build 0)  -->
<svg version="1.1" id="Capa_1" xmlns:v="https://vecta.io/nano"
	 xmlns="http://www.w3.org/2000/svg" xmlns:xlink="http://www.w3.org/1999/xlink" x="0px" y="0px" viewBox="0 0 300 300"
	 style="enable-background:new 0 0 300 300;" xml:space="preserve">
<style type="text/css">
	.st0{opacity:0.2;enable-background:new    ;}
</style>
<g>
	<path class="st0" d="M194.7,140.5v21.5h-4.1v-2.2c-2.1,1.6-2.9,2.5-5.5,2.5c-2.4,0-3.7-1.7-3.7-4.5v-17.4h4.3v16.7
		c0,1.1,0.8,1.5,1.6,1.5c1,0,1.8-0.6,2.9-1.4v-16.9H194.7 M197.8,162.1v-21.5h4.3v2.2c1.8-1.6,2.9-2.5,5.3-2.5
		c2.4,0,3.9,1.7,3.9,4.5v17.4h-4.5v-16.8c0-1.1-0.6-1.5-1.6-1.5s-1.8,0.6-2.9,1.4V162L197.8,162.1 M214.1,134.4h4.5v27.7h-4.5V134.4
		z M220.4,144.2v-3.7h2.4v-6.1h4.5v6.1h2.9v3.7h-2.9v12.4c0,1.1,0.5,1.8,1.4,1.8h1.4v3.9c-0.5,0.2-1,0.2-2.1,0.2
		c-3.5,0-5.3-1.5-5.3-4.9v-13.4L220.4,144.2 M240.7,145c-0.8-0.6-1.6-1.2-2.4-1.2c-1.3,0-2.3,0.6-2.3,3.5v8c0,2.9,1,3.5,2.3,3.5
		c0.8,0,1.6-0.5,2.4-1.1V145 M240.9,162.1v-2.3c-1.4,1.9-2.6,2.6-4.7,2.6c-2.9,0-4.7-2.1-4.7-6v-10.4c0-4,1.8-6,4.7-6
		c1.8,0,2.9,0.8,4.5,2.3v-7.9h4.5v27.7L240.9,162.1L240.9,162.1z M120.4,148.5v-1.2c0-2.5-0.8-3.5-2.4-3.5c-1.6,0-2.4,1.1-2.4,3.5
		v1.1L120.4,148.5 M124.8,152.2h-9.4v3.2c0,2.4,0.8,3.5,2.4,3.5s2.4-1.1,2.4-3.5v-0.5h4.5c0,4.6-2.1,7.7-6.9,7.7
		c-5.1,0-6.9-3.2-6.9-8v-6.3c0-4.7,1.8-8,6.9-8s6.9,3.2,6.9,8C124.8,148.2,124.8,152.2,124.8,152.2z M153.1,147.3l5.1,14.8h-4.5
		l-3.5-10.7H150l-2.1,3.2v7.6h-4.4v-27.7h4.4v13.7l5-7.6h4.9L153.1,147.3 M160,134.4h11.3v3.7H160V134.4z"/>
	<path class="st0" d="M168.2,147.3c0-2.5-0.8-3.5-2.4-3.5c-1.6,0-2.6,1.1-2.6,3.5v7.9c0,2.4,1,3.5,2.6,3.5s2.4-1.1,2.4-3.5V147.3
		 M158.7,148.1c0-4.7,1.8-8,6.9-8c5.1,0,6.9,3.2,6.9,8v6.3c0,4.7-1.8,8-6.9,8c-5.1,0-6.9-3.2-6.9-8V148.1z M136.6,155.2
		c0,2.4-0.8,3.5-2.4,3.5c-1.6,0-2.4-1.1-2.4-3.5v-7.9c0-2.5,0.8-3.5,2.4-3.5c1.6,0,2.4,1.1,2.4,3.5v1.1h4.5v-0.5
		c0-4.6-1.8-7.8-6.9-7.8c-5.1,0-6.9,3.2-6.9,8v6.3c0,4.7,1.8,8,6.9,8c4.9,0,6.9-3.2,6.9-7.7h-4.5V155.2 M247.2,158.3h3.7v3.7h-3.7
		V158.3z M110.4,139.3l-2.5,0.1l2.3,1.4l0.6,0.8l-1.6,1.5l-0.8-1l-1.3-2.3l-1.2,2.3l-0.6,0.9l-1.8-1.4l0.5-0.9l2.3-1.2l-2.4-0.4
		l-1.2-0.5l1-2.1l1.4,0.5l1.6,1.4l-0.8-2.9v-1.2h2.4v1.1l-0.8,3l2.3-1.5l1-0.4l0.8,2.3L110.4,139.3 M47.9,132.6v34.8h50.7v-34.8
		L47.9,132.6L47.9,132.6z M52.8,148.9c0.5-6.5,5.7-11.4,12.1-11.4h7.6c0.5,0,0.5,0,0.5,0.4v3.5c0,0.3,0,0.4-0.5,0.4h-7.6
		c-4.1,0-7.1,2.7-7.9,7.3c0,0,0,0.6-0.5,0.6h-3.2c-0.5,0-0.5-0.1-0.5-0.5V148.9L52.8,148.9z M87.3,149.3c-0.2-0.5-0.8-0.6-0.8-1.2
		c0.2,0,0.2-0.2,0.5,0c0.6,0.7,1.3,1.4,1.3,2.4c0.5,0.6-0.2,1.1-0.6,1.5c-0.5,0.3-1,0.2-1.4,0.2c0-0.1-0.2-0.3,0-0.5
		C86.5,150.9,88.2,150.4,87.3,149.3L87.3,149.3z M86.1,149.3c-0.2,0.9-0.8,1.6-1,2.6c-0.6,0.5,0.2,1.5-0.5,2.2
		c-0.2,0.6,0.6,1.3-0.2,1.6c-0.6,0.4-1.6,0.7-2.3,0.2c-0.2-0.1-0.2-0.3-0.2-0.5c0.2-0.3,0.6-0.5,0.6-0.9c0-0.9-0.6-1.7-0.6-2.6
		c-0.2-0.5-0.8-0.3-1.3-0.3c-1,0-2.3-0.4-3.1,0.5c-1,0.5-2.6,0.5-3.7,0c-0.2,0-0.5,0.3-0.5,0.4c-0.5,1-1.3,1.8-1.3,3.1
		c-0.2,0.4-0.5,0.5-0.8,0.5c-0.6-0.2-1-0.2-1.6-0.1c-0.2,0-0.5-0.2-0.5-0.3c0.2-0.7,0.8-1.3,1-2.1c0.2-0.6,0.2-1.4-0.2-2
		c-0.5-0.4-0.8-0.3-1.3-0.5c-0.5-0.1-0.6-0.2-1-0.3c-0.5,0.3-0.5,0.9-1,1.1c-0.2,0.2-0.5,0.7-0.8,0.6c-1.3-0.5-2.1,0.9-3.2,1.1
		c-1.4-0.2-2.6,0.4-3.7,1.1c-0.2,0.1-0.5,0-0.5,0c-0.2-0.2-0.5-0.5-0.5-0.7c0-0.5,0.2-0.9,0.2-1.4c-0.6-0.6-0.8-1.4-0.6-2.2
		c0.2-0.2,0.2-0.5,0.6-0.6c0.5,0,0.2,0.5,0.5,0.7c0.2,0.2,0.5,0.5,0.6,0.5c0.8-0.2,1.3-1.1,1.4-1.8c-0.2-0.7,0.8-0.9,0.8-1.7
		c0.2-0.6,0.5-1.3,0.8-1.5c0.5,0.1,0.6,0.7,1.3,0.4c0.2-0.3,0.5,0.1,0.8,0c1.6-1.4,3.7-2.3,6-2.6c2.1,0,3.5,1.9,5.7,1.3
		c1.8-0.6,4.1-0.9,5.7,0.2c1.3,0.6,2.3,1.5,3.5,2.4C86.3,147.6,86.1,148.5,86.1,149.3L86.1,149.3z M79.9,154.7
		c-0.5,0.6-1.3,0.3-2.1,0.2c-0.2-0.1-0.5-0.1-0.5-0.4c0-0.5,0.6-0.5,0.8-0.9c0.5-0.5-0.2-1.5,0.5-1.9c0.8,0,1.6,0,2.4,0.1
		c0.5,0.3,0,0.8,0,1.2C80.8,153.6,79.8,153.8,79.9,154.7z M69.8,153.6L69.8,153.6c0.2,0.3,0,0.5,0,0.6c-0.2,0.2-0.5,0.4-0.8,0.3
		c-0.2-0.1-0.2-0.2-0.2-0.4C69,153.9,69.3,153.7,69.8,153.6L69.8,153.6z M69.1,151.5c0-0.2,0-0.3,0.2-0.4c0.2,0,0.6,0,0.8,0.5
		c0,0.4,0.2,0.9,0,1.3c0,0.1-0.2,0-0.2,0.1C69.8,152.4,69.3,151.9,69.1,151.5z M72.8,162.2c0,0.4,0,0.4-0.5,0.4h-7.6
		c-6.3,0-11.6-5-12.1-11.4v-0.2c0-0.5,0-0.5,0.5-0.5h3.2c0.5,0,0.5,0.6,0.5,0.6c0.8,4.5,3.9,7.3,7.9,7.3h7.6c0.5,0,0.5,0.1,0.5,0.4
		L72.8,162.2L72.8,162.2z M93.7,151.2c-0.5,6.5-5.7,11.4-12.1,11.4H74c-0.5,0-0.5,0-0.5-0.4v-3.5c0-0.3,0-0.4,0.5-0.4h7.6
		c4.1,0,7.1-2.7,7.9-7.3c0,0,0-0.6,0.5-0.6h3.5c0.2,0,0.2,0.1,0.2,0.5V151.2L93.7,151.2z M93.7,149.1c0,0.5,0,0.5-0.2,0.5H90
		c-0.5,0-0.5-0.6-0.5-0.6c-0.8-4.5-3.9-7.3-7.9-7.3H74c-0.5,0-0.5-0.1-0.5-0.4v-3.5c0-0.4,0-0.4,0.5-0.4h7.6c6.3,0,11.6,5,12.1,11.4
		V149.1L93.7,149.1z M249,136.5h0.5c0.5,0,0.8,0,0.8-0.5c0-0.4-0.5-0.5-0.6-0.5H249L249,136.5 M248.4,135.3h1.3c0.8,0,1,0.3,1,0.8
		c0,0.5-0.2,0.7-0.8,0.7l1,1.3h-0.6l-0.8-1.2H249v1.2h-0.6L248.4,135.3L248.4,135.3z M249.4,138.7c1.3,0,2.3-0.9,2.3-2
		c0-1.2-1-2-2.3-2c-1.3,0-2.1,0.9-2.1,2C247.4,137.8,248.2,138.7,249.4,138.7z M249.4,134.3c1.4,0,2.6,1,2.6,2.3
		c0,1.4-1.3,2.3-2.6,2.3c-1.4,0-2.4-1.1-2.4-2.3C247,135.3,248,134.3,249.4,134.3z"/>
</g>
</svg>
