<?xml version="1.0" encoding="utf-8"?>
<!-- Generator: Adobe Illustrator 28.0.0, SVG Export Plug-In . SVG Version: 6.00 Build 0)  -->
<svg version="1.1" id="Capa_1" xmlns:v="https://vecta.io/nano"
	 xmlns="http://www.w3.org/2000/svg" xmlns:xlink="http://www.w3.org/1999/xlink" x="0px" y="0px" viewBox="0 0 300 300"
	 style="enable-background:new 0 0 300 300;" xml:space="preserve">
<style type="text/css">
	.st0{opacity:0.2;}
	.st1{fill-rule:evenodd;clip-rule:evenodd;}
</style>
<g class="st0">
	<path class="st1" d="M173.9,124.4c14.1,0,25.6,11.5,25.6,25.6c0,5.1-1.5,10.1-4.5,14.4l7.4,9.7h-15.7l-1-1.3
		c-3.7,1.9-7.7,2.9-11.8,2.9c-13,0-23.8-9.8-25.4-22.3c-1.6,12.6-12.4,22.3-25.4,22.3c-14.2-0.1-25.8-11.6-25.8-25.7
		c0-14.1,11.5-25.6,25.6-25.6c11.3,0,21,7.4,24.3,17.6h-15.9c-2.1-2.2-5.1-3.6-8.4-3.6c-6.4,0-11.7,5.3-11.7,11.7
		c0,6.4,5.3,11.7,11.7,11.7c3.5,0,6.6-1.5,8.8-4h-7.2v-11.5h23.8c0,0.2,0.1,0.4,0.1,0.6C150.2,134.1,161,124.4,173.9,124.4
		L173.9,124.4z M169.1,150.7h15.7l0.7,0.9c0.1-0.6,0.1-1.1,0.1-1.7c0-6.4-5.3-11.7-11.7-11.7c-6.4,0-11.7,5.3-11.7,11.7
		c0,6.4,5.3,11.7,11.7,11.7c1.1,0,2.1-0.1,3.1-0.4L169.1,150.7z"/>
</g>
</svg>
