<?xml version="1.0" encoding="utf-8"?>
<!-- Generator: Adobe Illustrator 28.0.0, SVG Export Plug-In . SVG Version: 6.00 Build 0)  -->
<svg version="1.1" id="Capa_1" xmlns:v="https://vecta.io/nano"
	 xmlns="http://www.w3.org/2000/svg" xmlns:xlink="http://www.w3.org/1999/xlink" x="0px" y="0px" viewBox="0 0 300 300"
	 style="enable-background:new 0 0 300 300;" xml:space="preserve">
<style type="text/css">
	.st0{opacity:0.2;enable-background:new    ;}
</style>
<path class="st0" d="M225.7,137.3l-39.9,15.2l2.4-5l-54.1,18.5l3-6.2l-62.8,24.1l47.2-11.8l-3.9,7.5l58.4-21.8l-3.3,6.5L225.7,137.3
	L225.7,137.3z M214.9,119.1c0-1.1,0.9-2,2-2c1,0,2,0.8,2,2c0,1.1-0.9,2-2,2C215.8,121,214.9,120.2,214.9,119.1z M216.9,120.7
	c0.9,0,1.6-0.7,1.6-1.7c0-0.9-0.6-1.6-1.5-1.6h-0.1c-0.9,0-1.6,0.7-1.6,1.6C215.3,120,216,120.7,216.9,120.7z M216.5,120.2h-0.4V118
	h0.9c0.6,0,0.8,0.2,0.8,0.6c0,0.4-0.2,0.6-0.6,0.6l0.6,1h-0.4l-0.6-0.9h-0.4L216.5,120.2L216.5,120.2z M216.9,118.9
	c0.3,0,0.6,0,0.6-0.4c0-0.3-0.2-0.3-0.5-0.3h-0.5v0.7H216.9L216.9,118.9z M109.5,125.4l-6.9,5.8l-3-3.3c-0.2,0.2-5.9,5-5.9,5
	l0.8-7.9l-20.2,17.1l13.8-6.6l-3.5,29.8l4.6,3.4l3.9-31.7l4-3.4l0.9,0.9l-3.2,27.2l4.6,3.4c0-0.2,2.9-24.9,3.6-30.8l4-3.4l0.9,0.9
	l-3.1,26.5l4.6,3.4l3.8-32.3L109.5,125.4L109.5,125.4z M212.1,132.6l-1.4-1.2l0.3-2.3l6.5-3.6l-5.2-6.5l-4.7,4.2l-1.1,8.9l-6.3,3.5
	l-1.5-1.3l0.3-2.4l7-3.9l-5.7-6.8l-5.1,4.4l-1.2,8.7l-2.3,2.2l-3.6-7.1l8-7.3l-3.6,0.6l-6.1,5.2l1.4-11.6l-4.4,0.6l-2.4,19.8
	l-2.7,2.9l-0.6-0.6l1.6-12.6l-4.7,1.1l-1.5,11.4l-2.1,2.5l-0.9-0.8l1.6-12.5l-4.7,0.9l-1.5,11.6l-2.2,2.8l-0.9-0.9l1.7-13.1l-4.7,1
	l-0.1,1l-3.3-1.6l-4.6,6l-1.3,10.6l4.5,3.9l4.2-5.3l3.5,3l3.9-5l3.3,2.9l3.7-4.8l3.5,3.1l4.7-5.1l3.6,2.8l1.1-8.7l3.8,7.8l5-4.9
	l3.2,2.8l9.7-5.3l2.5,2.1l8.9-5.2l0.2-1.9L212.1,132.6L212.1,132.6z M211.8,122.9l2,2.5l-2.6,1.5L211.8,122.9z M199.8,125.4l2.3,2.6
	l-2.8,1.6L199.8,125.4L199.8,125.4z M157.8,143.1l-2,2.4l-1-0.9l1.6-12.3l2.6,1.4L157.8,143.1z M146.4,133.3l-1.9,14.9l-1,1.1
	l-1.8-1.5l1.8-14l-4.8,1.2l-1.8,14.6l-1.4,1.9L134,150l1.8-14.6l-4.8,1l-1.6,13.3l-2,2.7l-1.4-1.1l3.1-25.1l-4.7,0.8l-2.9,24.1
	l-2.4,3.3l-1.2-0.9l2-14.7l-4.8,0.9l-2.2,17l4.2,3.3l4.2-5.6l4.3,3.5l4.2-5.7l4.5,3.9l4.4-5.8l3.6,3.1l6.2-6.8l1.9-14.2L146.4,133.3
	L146.4,133.3z M120.7,131.3l-4.8,0.8l-0.6,4.7l4.8-0.9L120.7,131.3z"/>
</svg>
