<?xml version="1.0" encoding="utf-8"?>
<!-- Generator: Adobe Illustrator 28.0.0, SVG Export Plug-In . SVG Version: 6.00 Build 0)  -->
<svg version="1.1" id="Capa_1" xmlns:v="https://vecta.io/nano"
	 xmlns="http://www.w3.org/2000/svg" xmlns:xlink="http://www.w3.org/1999/xlink" x="0px" y="0px" viewBox="0 0 300 300"
	 style="enable-background:new 0 0 300 300;" xml:space="preserve">
<style type="text/css">
	.st0{opacity:0.2;}
</style>
<g transform="translate(170.24 5.0558)" class="st0">
	<g id="Layer_1_1_" transform="matrix(.52497 0 0 .52497 -170.24 -5.0558)">
		<g id="Nissan_Badge_1_">
			<path d="M301.9,293.2c-0.1,0.1-0.8,0.1-1.1,0.1h-20v4.7h20.4c0.1,0,1.3,0,1.6-0.1c4.1-0.4,6-3.8,6-6.9c0-3.1-2-6.5-5.8-6.8
				c-0.7-0.1-1.3-0.1-1.6-0.1h-13.3c-0.6,0-1.2-0.1-1.5-0.1c-1.1-0.3-1.4-1.2-1.4-2c0-0.7,0.4-1.6,1.5-1.9c0.3-0.1,0.6-0.1,1.4-0.1
				h19.3v-4.5h-19.5c-0.8,0-1.4,0.1-1.9,0.1c-3.3,0.5-5.7,3.1-5.7,6.5c0,2.8,1.8,6,5.6,6.6c0.7,0.1,1.7,0.1,2.1,0.1h12.9
				c0.2,0,0.8,0,0.9,0.1c1.5,0.2,2,1.3,2,2.3C303.8,292,303.2,293,301.9,293.2z"/>
			<path d="M264,293.2c-0.1,0.1-0.8,0.1-1,0.1h-20.1v4.7h20.4c0.1,0,1.3,0,1.6-0.1c4.1-0.4,6-3.8,6-6.9c0-3.1-2-6.5-5.8-6.8
				c-0.7-0.1-1.3-0.1-1.6-0.1h-13.3c-0.6,0-1.2-0.1-1.5-0.1c-1.1-0.3-1.4-1.2-1.4-2c0-0.7,0.4-1.6,1.5-1.9c0.3-0.1,0.6-0.1,1.4-0.1
				h19.3v-4.5h-19.5c-0.8,0-1.4,0.1-1.9,0.1c-3.3,0.5-5.7,3.1-5.7,6.5c0,2.8,1.8,6,5.6,6.6c0.7,0.1,1.7,0.1,2.1,0.1h13
				c0.2,0,0.8,0,0.9,0.1c1.5,0.2,2,1.3,2,2.3C265.8,292,265.3,293,264,293.2L264,293.2z"/>
			<rect x="227.4" y="275.3" width="5" height="22.8"/>
			<polygon points="216.2,298.1 216.2,275.3 211.2,275.3 211.2,292.2 194.4,275.3 187.9,275.3 187.9,298.1 192.9,298.1 192.9,280.9 
				209.8,298.1 			"/>
			<polygon points="378.6,275.3 378.6,292.2 361.7,275.3 355.3,275.3 355.3,298.1 360.3,298.1 360.3,280.9 377.2,298.1 383.6,298.1 
				383.6,275.3 			"/>
			<path d="M329,275.3l-14.2,22.8h6.1l2.6-4H340l2.6,4h6.1l-14.2-22.8H329z M337.4,289.7h-11.4l5.7-9.2L337.4,289.7z"/>
			<path d="M216,262.3c10.2-29.7,38.2-49.7,69.8-49.7s59.7,20,69.8,49.7l0.1,0.2h22.2v-2.7l-9.2-1.1c-5.7-0.6-6.9-3.2-8.5-6.4
				l-0.4-0.8c-13.4-28.4-42.4-46.8-74-46.8c-31.6,0-60.7,18.4-74,46.9l-0.4,0.8c-1.6,3.2-2.8,5.7-8.5,6.4l-9.2,1.1v2.7H216
				L216,262.3z"/>
			<path d="M355.7,310.8l-0.1,0.2c-10.2,29.7-38.2,49.7-69.8,49.7s-59.7-20-69.8-49.7l-0.1-0.2h-22.2v2.7l9.2,1.1
				c5.7,0.6,6.9,3.2,8.5,6.4l0.4,0.8c13.4,28.5,42.4,46.9,74,46.9s60.7-18.4,74-46.9l0.4-0.8c1.6-3.2,2.8-5.7,8.5-6.4l9.2-1.1v-2.7
				H355.7z"/>
		</g>
	</g>
</g>
</svg>
