<?xml version="1.0" encoding="utf-8"?>
<!-- Generator: Adobe Illustrator 28.0.0, SVG Export Plug-In . SVG Version: 6.00 Build 0)  -->
<svg version="1.1" id="Capa_1" xmlns:v="https://vecta.io/nano"
	 xmlns="http://www.w3.org/2000/svg" xmlns:xlink="http://www.w3.org/1999/xlink" x="0px" y="0px" viewBox="0 0 300 300"
	 style="enable-background:new 0 0 300 300;" xml:space="preserve">
<style type="text/css">
	.st0{opacity:0.2;}
</style>
<g class="st0">
	<path d="M95.3,162.6l9.9-15.9h4.9l2.8-4.6h-4.9l4-6.6h-6.8l-4.1,6.6h-3.6l-2.8,4.6h3.6l-10,16c-0.6,1-0.9,2-0.9,2.8
		c0,2,1.2,3.6,3.8,3.6h6.5l2.9-4.9h-4.6C95.1,164.2,94.8,163.4,95.3,162.6"/>
	<g>
		<path id="B" d="M126.1,153.4h-11.2l0.4-0.6c2-3.3,4.9-5.5,8.5-5.5c3.8,0,4.8,2,3.6,4.1L126.1,153.4L126.1,153.4z M125.2,143.5
			c-10.6,0-14.4,5.3-18,11.1c-2.3,3.7-4.5,7.7-4.5,9.8c0,2.9,2.6,4.7,6.7,4.7H122l3.6-5.7h-13.3c-1.2,0-2-0.5-2-1.5c0-1.1,2-4,2-4
			H129l3.2-5.2c0.7-1.2,1.7-2.7,1.7-4.4C133.9,145.2,130.4,143.5,125.2,143.5"/>
	</g>
	<path d="M161.1,148.9h5.8l3.5-5.4h-7.7c-6.9,0-13.1,2.8-17.4,9.2c-2.4,3.6-5.7,8.7-5.7,11.8c0,3.2,2.9,4.5,7,4.5h10.2l3.6-5.7
		h-11.6c-1.2,0-2-0.5-2-1.5c0-1,0.8-2.2,1.9-4C151.6,153.1,155.5,148.9,161.1,148.9 M146,135.5l-20.8,33.7h6.8l20.8-33.7H146z
		 M205.6,135.5l-20.8,33.7h6.8l20.9-33.7H205.6z"/>
	<g>
		<path id="B_00000181789809254122573260000018383973564025851304_" d="M185.8,153.4h-11.2l0.4-0.6c2-3.3,4.9-5.5,8.5-5.5
			c3.8,0,4.8,2,3.6,4.1L185.8,153.4L185.8,153.4z M184.8,143.5c-10.6,0-14.4,5.3-18,11.1c-2.3,3.7-4.5,7.7-4.5,9.8
			c0,2.9,2.6,4.7,6.7,4.7h12.6l3.6-5.7h-13.3c-1.2,0-2-0.5-2-1.5c0-1.1,2-4,2-4h16.8l3.2-5.2c0.7-1.2,1.7-2.7,1.7-4.4
			C193.5,145.2,190.1,143.5,184.8,143.5"/>
	</g>
</g>
</svg>
