<?xml version="1.0" encoding="utf-8"?>
<!-- Generator: Adobe Illustrator 28.0.0, SVG Export Plug-In . SVG Version: 6.00 Build 0)  -->
<svg version="1.1" id="Capa_1" xmlns:v="https://vecta.io/nano"
	 xmlns="http://www.w3.org/2000/svg" xmlns:xlink="http://www.w3.org/1999/xlink" x="0px" y="0px" viewBox="0 0 300 300"
	 style="enable-background:new 0 0 300 300;" xml:space="preserve">
<style type="text/css">
	.st0{opacity:0.2;}
</style>
<g class="st0">
	<polygon id="Shape_00000016041292142680733610000002398110446294586537_" points="115.7,150.3 121.2,138.3 130.4,138.3 
		118.3,161.7 113.1,161.7 101,138.3 110.2,138.3 	"/>
	<path id="Shape_00000174601412737985034120000005595360318954223744_" d="M136.4,139.8c-1.6,0-3-0.6-4.2-1.5v23.4h8.4v-23.4
		C139.5,139.2,138,139.8,136.4,139.8"/>
	<path id="Shape_00000027575512427189989490000017843216749033162405_" d="M141.8,131.7c0,3-2.4,5.4-5.4,5.4c-3,0-5.4-2.4-5.4-5.4
		c0-3,2.4-5.4,5.4-5.4C139.4,126.3,141.8,128.7,141.8,131.7"/>
	<path id="Shape_00000096743481177523958080000011899194508936959423_" d="M184.2,146.9c-1.1-0.2-3.8-0.5-3.8-2
		c0-1.2,1.7-1.6,2.6-1.6c1.4,0,3.2,0.5,4.5,1.1l2.8-5.2c-2.4-1.1-5.1-1.5-7.8-1.5c-5.2,0-10.4,2.5-10.4,8.2c0,4.2,2.6,5.4,5.3,6.1
		c2.6,0.7,5.3,0.8,5.3,2.6c0,1.3-1.6,1.8-2.6,1.8c-2.4,0-5.5-1.6-7.2-2.7c-0.5,2.2-1.4,4.2-2.8,5.9c3,1.9,6.6,2.9,9.9,2.9
		c5.5,0,11.2-2.5,11.2-8.6C191.1,149.5,188.2,147.7,184.2,146.9"/>
	<path id="Shape_00000178886960131707845590000009884085058159116960_" d="M157,155.9c-2.9,0-5.4-2.5-5.4-5.5c0-3,2.4-5.5,5.4-5.5
		c2.9,0,5.4,2.5,5.4,5.5S159.9,155.9,157,155.9 M159,137.7c-2.7,0-5.5,1.1-7,3.4h-0.1v-2.7h-8.2v35.3h8.2v-14c1.8,2.1,4.5,3,7.2,3
		c6.9,0,11.6-5.7,11.6-12.5C170.7,143.5,165.9,137.7,159,137.7"/>
	<g>
		<g id="Shape_00000049210922974759639110000013965673234460885657_">
			<path d="M196.2,139.5c0.7,0,0.9-0.1,0.9-0.6c0-0.4-0.2-0.6-0.8-0.6h-0.6v1.2L196.2,139.5L196.2,139.5z M195.1,137.9
				c0-0.1,0-0.1,0.1-0.1h1.1c0.8,0,1.3,0.4,1.3,1.1c0,0.7-0.4,0.9-0.8,1l0.8,1.1c0,0.1,0,0.1-0.1,0.1h-0.4c-0.1,0-0.1,0-0.1-0.1
				l-0.8-1h-0.6v1c0,0.1,0,0.1-0.1,0.1h-0.4c-0.1,0-0.1,0-0.1-0.1V137.9z M198.4,139.5c0-1.3-0.6-2.5-2.2-2.5
				c-1.6,0-2.2,1.2-2.2,2.5c0,1.4,0.6,2.5,2.2,2.5C197.8,142,198.4,140.8,198.4,139.5z M198.9,139.5c0,1.6-0.8,3-2.7,3
				c-1.9,0-2.7-1.4-2.7-3s0.8-3,2.7-3C198.2,136.5,198.9,137.9,198.9,139.5z"/>
		</g>
		<g id="Shape_00000119117317815036103480000001512754780207631782_">
			<path d="M196.2,139.5c0.7,0,0.9-0.1,0.9-0.6c0-0.4-0.2-0.6-0.8-0.6h-0.6v1.2L196.2,139.5L196.2,139.5z M195.1,137.9
				c0-0.1,0-0.1,0.1-0.1h1.1c0.8,0,1.3,0.4,1.3,1.1c0,0.7-0.4,0.9-0.8,1l0.8,1.1c0,0.1,0,0.1-0.1,0.1h-0.4c-0.1,0-0.1,0-0.1-0.1
				l-0.8-1h-0.6v1c0,0.1,0,0.1-0.1,0.1h-0.4c-0.1,0-0.1,0-0.1-0.1V137.9z M198.4,139.5c0-1.3-0.6-2.5-2.2-2.5
				c-1.6,0-2.2,1.2-2.2,2.5c0,1.4,0.6,2.5,2.2,2.5C197.8,142,198.4,140.8,198.4,139.5z M198.9,139.5c0,1.6-0.8,3-2.7,3
				c-1.9,0-2.7-1.4-2.7-3s0.8-3,2.7-3C198.2,136.5,198.9,137.9,198.9,139.5z"/>
			<path d="M196.2,142.6c-2.1,0-2.8-1.6-2.8-3.1c0-1.5,0.7-3.1,2.8-3.1c1.8,0,2.8,1.2,2.8,3.1C199,141.4,198,142.6,196.2,142.6z
				 M196.2,136.6c-1.6,0-2.6,1.1-2.6,2.9c0,2.7,2,2.9,2.6,2.9c1.6,0,2.6-1.1,2.6-2.9C198.8,137.7,197.9,136.6,196.2,136.6z
				 M196.2,142.1c-1.5,0-2.3-0.9-2.3-2.6c0-1.7,0.8-2.6,2.3-2.6s2.3,0.9,2.3,2.6C198.5,141.1,197.7,142.1,196.2,142.1z M196.2,137.1
				c-1.8,0-2.1,1.5-2.1,2.4c0,1.1,0.4,2.4,2.1,2.4c1.8,0,2.1-1.5,2.1-2.4C198.3,138.6,198.1,137.1,196.2,137.1z M197.6,141.2h-0.4
				c-0.1,0-0.2,0-0.2-0.1l-0.7-1h-0.4v0.9c0,0.1,0,0.2-0.2,0.2h-0.4c-0.1,0-0.2-0.1-0.2-0.2v-3.1c0-0.1,0.1-0.2,0.2-0.2h1.1
				c0.9,0,1.4,0.5,1.4,1.2c0,0.7-0.4,1-0.7,1.1l0.7,1c0,0.1,0,0.1,0,0.2C197.8,141.2,197.7,141.2,197.6,141.2z M195.6,139.9h0.7l0,0
				l0.8,1.1c0,0,0,0,0.1,0h0.4l-0.9-1.2l0.2,0c0.5-0.1,0.7-0.4,0.7-0.9c0-0.7-0.5-1-1.2-1h-1.1c0,0,0,0,0,0c0,0,0,0,0,0v3.1
				c0,0,0,0,0,0h0.4c0,0,0,0,0,0c0,0,0,0,0,0V139.9z M196.3,139.6h-0.7v-1.4h0.7c0.5,0,0.9,0.1,0.9,0.7
				C197.2,139.4,196.9,139.5,196.3,139.6L196.3,139.6z M195.8,139.4l0.4,0c0.7,0,0.8-0.1,0.8-0.5c0-0.3-0.1-0.5-0.7-0.5h-0.5V139.4z
				"/>
		</g>
	</g>
</g>
</svg>
