<?xml version="1.0" encoding="utf-8"?>
<!-- Generator: Adobe Illustrator 24.0.3, SVG Export Plug-In . SVG Version: 6.00 Build 0)  -->
<svg version="1.1" id="Capa_1" xmlns="http://www.w3.org/2000/svg" xmlns:xlink="http://www.w3.org/1999/xlink" x="0px" y="0px"
	 viewBox="0 0 45.2 44.9" style="enable-background:new 0 0 45.2 44.9;" xml:space="preserve">
<style type="text/css">
	.st0{fill:none;stroke:#000000;stroke-width:3;stroke-miterlimit:10;}
</style>
<circle class="st0" cx="22.6" cy="22.4" r="20.4"/>
<path d="M17,34.5c-0.2,0-0.4,0-0.6-0.1c-0.4-0.2-0.7-0.6-0.7-1.1V11.7c0-0.5,0.3-0.9,0.7-1.1c0.4-0.2,0.9-0.2,1.3,0.1l15.1,10.8
	c0.3,0.2,0.5,0.6,0.5,1c0,0.4-0.2,0.8-0.5,1L17.8,34.3C17.6,34.4,17.3,34.5,17,34.5z M18.3,14.1v16.7L30,22.4L18.3,14.1z"/>
</svg>
